<ttFont>
<head>
    <!-- Most of this table will be recalculated by the compiler -->
    <tableVersion value="1.0"/>
    <fontRevision value="0.06"/>
    <checkSumAdjustment value="0x69e60151"/>
    <magicNumber value="0x5f0f3cf5"/>
    <flags value="00100000 00001111"/>
    <unitsPerEm value="1024"/>
    <created value="Thu Sep 23 07:26:21 2021"/>
    <modified value="Thu Sep 23 09:13:37 2021"/>
    <xMin value="-192"/>
    <yMin value="-202"/>
    <xMax value="825"/>
    <yMax value="969"/>
    <macStyle value="00000000 00000000"/>
    <lowestRecPPEM value="7"/>
    <fontDirectionHint value="2"/>
    <indexToLocFormat value="0"/>
    <glyphDataFormat value="0"/>
  </head>
    <TTGlyph name=".notdef" xMin="34" yMin="-30" xMax="414" yMax="670">
      <contour>
        <pt x="34" y="670" on="1"/>
        <pt x="414" y="670" on="1"/>
        <pt x="414" y="-30" on="1"/>
        <pt x="34" y="-30" on="1"/>
      </contour>
      <contour>
        <pt x="196" y="589" on="0"/>
        <pt x="294" y="557" on="0"/>
        <pt x="322" y="516" on="0"/>
        <pt x="322" y="490" on="1"/>
        <pt x="322" y="463" on="0"/>
        <pt x="299" y="424" on="0"/>
        <pt x="275" y="397" on="1"/>
        <pt x="250" y="369" on="0"/>
        <pt x="218" y="322" on="0"/>
        <pt x="194" y="247" on="0"/>
        <pt x="193" y="195" on="1"/>
        <pt x="250" y="193" on="1"/>
        <pt x="250" y="239" on="0"/>
        <pt x="272" y="304" on="0"/>
        <pt x="301" y="346" on="0"/>
        <pt x="325" y="373" on="1"/>
        <pt x="353" y="403" on="0"/>
        <pt x="382" y="455" on="0"/>
        <pt x="382" y="493" on="1"/>
        <pt x="382" y="541" on="0"/>
        <pt x="330" y="605" on="0"/>
        <pt x="207" y="642" on="0"/>
        <pt x="102" y="645" on="1"/>
        <pt x="99" y="594" on="1"/>
      </contour>
      <contour>
        <pt x="167" y="20" on="0"/>
        <pt x="200" y="-10" on="0"/>
        <pt x="224" y="-10" on="1"/>
        <pt x="248" y="-10" on="0"/>
        <pt x="281" y="20" on="0"/>
        <pt x="281" y="47" on="1"/>
        <pt x="281" y="73" on="0"/>
        <pt x="248" y="104" on="0"/>
        <pt x="224" y="104" on="1"/>
        <pt x="200" y="104" on="0"/>
        <pt x="167" y="73" on="0"/>
        <pt x="167" y="47" on="1"/>
      </contour>
    </TTGlyph>
    <TTGlyph name="A" xMin="39" yMin="0" xMax="410" yMax="643">
      <contour>
        <pt x="55" y="187" on="0"/>
        <pt x="137" y="521" on="0"/>
        <pt x="199" y="643" on="1"/>
        <pt x="249" y="643" on="1"/>
        <pt x="311" y="521" on="0"/>
        <pt x="393" y="187" on="0"/>
        <pt x="410" y="0" on="1"/>
        <pt x="349" y="0" on="1"/>
        <pt x="337" y="120" on="0"/>
        <pt x="323" y="198" on="1"/>
        <pt x="125" y="198" on="1"/>
        <pt x="108" y="93" on="0"/>
        <pt x="100" y="0" on="1"/>
        <pt x="39" y="0" on="1"/>
      </contour>
      <contour>
        <pt x="314" y="250" on="1"/>
        <pt x="280" y="433" on="0"/>
        <pt x="224" y="567" on="1"/>
        <pt x="168" y="433" on="0"/>
        <pt x="134" y="250" on="1"/>
      </contour>
    </TTGlyph>
    <TTGlyph name="A.hex" xMin="39" yMin="0" xMax="410" yMax="579">
      <contour>
        <pt x="55" y="168" on="0"/>
        <pt x="137" y="469" on="0"/>
        <pt x="199" y="579" on="1"/>
        <pt x="249" y="579" on="1"/>
        <pt x="311" y="469" on="0"/>
        <pt x="393" y="169" on="0"/>
        <pt x="410" y="0" on="1"/>
        <pt x="349" y="0" on="1"/>
        <pt x="341" y="71" on="0"/>
        <pt x="331" y="134" on="1"/>
        <pt x="118" y="134" on="1"/>
        <pt x="108" y="71" on="0"/>
        <pt x="100" y="0" on="1"/>
        <pt x="39" y="0" on="1"/>
      </contour>
      <contour>
        <pt x="322" y="186" on="1"/>
        <pt x="284" y="377" on="0"/>
        <pt x="224" y="505" on="1"/>
        <pt x="163" y="376" on="0"/>
        <pt x="127" y="186" on="1"/>
      </contour>
    </TTGlyph>
    <TTGlyph name="A.sups" xMin="128" yMin="320" xMax="320" yMax="640">
      <contour>
        <pt x="320" y="640" on="1"/>
        <pt x="320" y="320" on="1"/>
        <pt x="256" y="320" on="1"/>
        <pt x="256" y="448" on="1"/>
        <pt x="192" y="448" on="1"/>
        <pt x="192" y="320" on="1"/>
        <pt x="128" y="320" on="1"/>
        <pt x="128" y="640" on="1"/>
      </contour>
      <contour>
        <pt x="256" y="512" on="1"/>
        <pt x="256" y="576" on="1"/>
        <pt x="192" y="576" on="1"/>
        <pt x="192" y="512" on="1"/>
      </contour>
    </TTGlyph>
    <TTGlyph name="AE" xMin="-15" yMin="0" xMax="455" yMax="640">
      <contour>
        <pt x="455" y="52" on="1"/>
        <pt x="455" y="0" on="1"/>
        <pt x="203" y="0" on="1"/>
        <pt x="203" y="198" on="1"/>
        <pt x="71" y="198" on="1"/>
        <pt x="54" y="90" on="0"/>
        <pt x="46" y="0" on="1"/>
        <pt x="-15" y="0" on="1"/>
        <pt x="2" y="187" on="0"/>
        <pt x="83" y="520" on="0"/>
        <pt x="144" y="640" on="1"/>
        <pt x="445" y="640" on="1"/>
        <pt x="445" y="588" on="1"/>
        <pt x="261" y="588" on="1"/>
        <pt x="261" y="314" on="1"/>
        <pt x="391" y="314" on="1"/>
        <pt x="391" y="262" on="1"/>
        <pt x="261" y="262" on="1"/>
        <pt x="261" y="52" on="1"/>
      </contour>
      <contour>
        <pt x="203" y="250" on="1"/>
        <pt x="203" y="588" on="1"/>
        <pt x="180" y="588" on="1"/>
        <pt x="119" y="449" on="0"/>
        <pt x="80" y="250" on="1"/>
      </contour>
    </TTGlyph>
    <TTGlyph name="AEacute" xMin="-15" yMin="0" xMax="455" yMax="841">
      <component glyphName="AE" x="0" y="0" flags="0x0"/>
      <component glyphName="acutecomb.case" x="48" y="0" flags="0x0"/>
    </TTGlyph>
    <TTGlyph name="Aacute" xMin="39" yMin="0" xMax="410" yMax="841">
      <component glyphName="A" x="0" y="0" flags="0x0"/>
      <component glyphName="acutecomb.case" x="0" y="0" flags="0x0"/>
    </TTGlyph>
    <TTGlyph name="Abreve" xMin="39" yMin="0" xMax="410" yMax="833">
      <component glyphName="A" x="0" y="0" flags="0x0"/>
      <component glyphName="uni0306.case" x="0" y="0" flags="0x0"/>
    </TTGlyph>
    <TTGlyph name="Acircumflex" xMin="39" yMin="0" xMax="410" yMax="842">
      <component glyphName="A" x="0" y="0" flags="0x0"/>
      <component glyphName="uni0302.case" x="0" y="0" flags="0x0"/>
    </TTGlyph>
    <TTGlyph name="Adieresis" xMin="39" yMin="0" xMax="410" yMax="813">
      <component glyphName="A" x="0" y="0" flags="0x0"/>
      <component glyphName="uni0308.case" x="0" y="0" flags="0x0"/>
    </TTGlyph>
    <TTGlyph name="Agrave" xMin="39" yMin="0" xMax="410" yMax="841">
      <component glyphName="A" x="0" y="0" flags="0x0"/>
      <component glyphName="gravecomb.case" x="0" y="0" flags="0x0"/>
    </TTGlyph>
    <TTGlyph name="Alpha" xMin="39" yMin="0" xMax="410" yMax="643">
      <component glyphName="A" x="0" y="0" flags="0x0"/>
    </TTGlyph>
    <TTGlyph name="Alphatonos" xMin="4" yMin="0" xMax="410" yMax="704">
      <component glyphName="A" x="0" y="0" flags="0x0"/>
      <component glyphName="tonos" x="-192" y="0" flags="0x0"/>
    </TTGlyph>
    <TTGlyph name="Amacron" xMin="39" yMin="0" xMax="410" yMax="766">
      <component glyphName="A" x="0" y="0" flags="0x0"/>
      <component glyphName="uni0304.case" x="0" y="0" flags="0x0"/>
    </TTGlyph>
    <TTGlyph name="Aogonek" xMin="39" yMin="-197" xMax="429" yMax="643">
      <component glyphName="A" x="0" y="0" flags="0x0"/>
      <component glyphName="uni0328" x="31" y="0" flags="0x0"/>
    </TTGlyph>
    <TTGlyph name="Aring" xMin="39" yMin="0" xMax="410" yMax="819">
      <component glyphName="A" x="0" y="0" flags="0x0"/>
      <component glyphName="uni030A.case" x="0" y="-64" flags="0x4"/>
    </TTGlyph>
    <TTGlyph name="Aringacute" xMin="39" yMin="0" xMax="410" yMax="832">
      <component glyphName="A.hex" x="0" y="0" flags="0x0"/>
      <component glyphName="uni030A.case" x="0" y="-157" flags="0x4"/>
      <component glyphName="acutecomb.case" x="0" y="-9" flags="0x4"/>
    </TTGlyph>
    <TTGlyph name="Atilde" xMin="39" yMin="0" xMax="410" yMax="837">
      <component glyphName="A" x="0" y="0" flags="0x0"/>
      <component glyphName="tildecomb.case" x="0" y="0" flags="0x0"/>
    </TTGlyph>
    <TTGlyph name="B" xMin="64" yMin="0" xMax="408" yMax="640">
      <contour>
        <pt x="64" y="640" on="1"/>
        <pt x="191" y="640" on="1"/>
        <pt x="284" y="640" on="0"/>
        <pt x="387" y="558" on="0"/>
        <pt x="387" y="477" on="1"/>
        <pt x="387" y="385" on="0"/>
        <pt x="294" y="311" on="1"/>
        <pt x="347" y="298" on="0"/>
        <pt x="408" y="223" on="0"/>
        <pt x="408" y="166" on="1"/>
        <pt x="408" y="87" on="0"/>
        <pt x="301" y="0" on="0"/>
        <pt x="211" y="0" on="1"/>
        <pt x="64" y="0" on="1"/>
      </contour>
      <contour>
        <pt x="206" y="52" on="1"/>
        <pt x="280" y="52" on="0"/>
        <pt x="346" y="109" on="0"/>
        <pt x="346" y="167" on="1"/>
        <pt x="346" y="220" on="0"/>
        <pt x="281" y="278" on="0"/>
        <pt x="206" y="278" on="1"/>
        <pt x="122" y="278" on="1"/>
        <pt x="122" y="52" on="1"/>
      </contour>
      <contour>
        <pt x="244" y="330" on="1"/>
        <pt x="282" y="357" on="0"/>
        <pt x="323" y="438" on="0"/>
        <pt x="323" y="480" on="1"/>
        <pt x="323" y="534" on="0"/>
        <pt x="259" y="588" on="0"/>
        <pt x="187" y="588" on="1"/>
        <pt x="122" y="588" on="1"/>
        <pt x="122" y="330" on="1"/>
      </contour>
    </TTGlyph>
    <TTGlyph name="B.hex" xMin="64" yMin="0" xMax="408" yMax="576">
      <contour>
        <pt x="64" y="576" on="1"/>
        <pt x="191" y="576" on="1"/>
        <pt x="284" y="576" on="0"/>
        <pt x="387" y="502" on="0"/>
        <pt x="387" y="429" on="1"/>
        <pt x="387" y="346" on="0"/>
        <pt x="296" y="279" on="1"/>
        <pt x="348" y="265" on="0"/>
        <pt x="408" y="200" on="0"/>
        <pt x="408" y="150" on="1"/>
        <pt x="408" y="78" on="0"/>
        <pt x="301" y="0" on="0"/>
        <pt x="211" y="0" on="1"/>
        <pt x="64" y="0" on="1"/>
      </contour>
      <contour>
        <pt x="206" y="52" on="1"/>
        <pt x="279" y="52" on="0"/>
        <pt x="346" y="101" on="0"/>
        <pt x="346" y="151" on="1"/>
        <pt x="346" y="196" on="0"/>
        <pt x="280" y="246" on="0"/>
        <pt x="206" y="246" on="1"/>
        <pt x="122" y="246" on="1"/>
        <pt x="122" y="52" on="1"/>
      </contour>
      <contour>
        <pt x="245" y="298" on="1"/>
        <pt x="283" y="322" on="0"/>
        <pt x="323" y="395" on="0"/>
        <pt x="323" y="432" on="1"/>
        <pt x="323" y="478" on="0"/>
        <pt x="259" y="524" on="0"/>
        <pt x="187" y="524" on="1"/>
        <pt x="122" y="524" on="1"/>
        <pt x="122" y="298" on="1"/>
      </contour>
    </TTGlyph>
    <TTGlyph name="B.sups" xMin="128" yMin="320" xMax="320" yMax="640">
      <contour>
        <pt x="320" y="640" on="1"/>
        <pt x="320" y="512" on="1"/>
        <pt x="256" y="512" on="1"/>
        <pt x="256" y="576" on="1"/>
        <pt x="192" y="576" on="1"/>
        <pt x="192" y="512" on="1"/>
        <pt x="256" y="512" on="1"/>
        <pt x="256" y="448" on="1"/>
        <pt x="192" y="448" on="1"/>
        <pt x="192" y="384" on="1"/>
        <pt x="256" y="384" on="1"/>
        <pt x="256" y="448" on="1"/>
        <pt x="320" y="448" on="1"/>
        <pt x="320" y="320" on="1"/>
        <pt x="128" y="320" on="1"/>
        <pt x="128" y="640" on="1"/>
      </contour>
    </TTGlyph>
    <TTGlyph name="Beta" xMin="64" yMin="0" xMax="408" yMax="640">
      <component glyphName="B" x="0" y="0" flags="0x0"/>
    </TTGlyph>
    <TTGlyph name="C" xMin="48" yMin="-9" xMax="348" yMax="647">
      <contour>
        <pt x="172" y="-9" on="0"/>
        <pt x="87" y="55" on="0"/>
        <pt x="48" y="197" on="0"/>
        <pt x="48" y="319" on="1"/>
        <pt x="48" y="441" on="0"/>
        <pt x="87" y="583" on="0"/>
        <pt x="172" y="647" on="0"/>
        <pt x="245" y="647" on="1"/>
        <pt x="296" y="647" on="0"/>
        <pt x="343" y="636" on="1"/>
        <pt x="334" y="587" on="1"/>
        <pt x="288" y="595" on="0"/>
        <pt x="249" y="595" on="1"/>
        <pt x="191" y="595" on="0"/>
        <pt x="132" y="540" on="0"/>
        <pt x="112" y="425" on="0"/>
        <pt x="112" y="319" on="1"/>
        <pt x="112" y="214" on="0"/>
        <pt x="133" y="98" on="0"/>
        <pt x="192" y="43" on="0"/>
        <pt x="250" y="43" on="1"/>
        <pt x="292" y="43" on="0"/>
        <pt x="339" y="53" on="1"/>
        <pt x="348" y="4" on="1"/>
        <pt x="290" y="-9" on="0"/>
        <pt x="245" y="-9" on="1"/>
      </contour>
    </TTGlyph>
    <TTGlyph name="C.hex" xMin="64" yMin="-9" xMax="379" yMax="583">
      <contour>
        <pt x="196" y="-9" on="0"/>
        <pt x="105" y="49" on="0"/>
        <pt x="64" y="177" on="0"/>
        <pt x="64" y="287" on="1"/>
        <pt x="64" y="397" on="0"/>
        <pt x="105" y="525" on="0"/>
        <pt x="196" y="583" on="0"/>
        <pt x="273" y="583" on="1"/>
        <pt x="325" y="583" on="0"/>
        <pt x="375" y="572" on="1"/>
        <pt x="365" y="523" on="1"/>
        <pt x="315" y="531" on="0"/>
        <pt x="277" y="531" on="1"/>
        <pt x="213" y="531" on="0"/>
        <pt x="150" y="482" on="0"/>
        <pt x="128" y="381" on="0"/>
        <pt x="128" y="287" on="1"/>
        <pt x="128" y="194" on="0"/>
        <pt x="151" y="92" on="0"/>
        <pt x="215" y="43" on="0"/>
        <pt x="278" y="43" on="1"/>
        <pt x="321" y="43" on="0"/>
        <pt x="370" y="53" on="1"/>
        <pt x="379" y="4" on="1"/>
        <pt x="320" y="-9" on="0"/>
        <pt x="273" y="-9" on="1"/>
      </contour>
    </TTGlyph>
    <TTGlyph name="C.pl" xMin="48" yMin="380" xMax="268" yMax="708">
      <contour>
        <pt x="120" y="380" on="0"/>
        <pt x="48" y="465" on="0"/>
        <pt x="48" y="544" on="1"/>
        <pt x="48" y="623" on="0"/>
        <pt x="120" y="708" on="0"/>
        <pt x="184" y="708" on="1"/>
        <pt x="228" y="708" on="0"/>
        <pt x="268" y="698" on="1"/>
        <pt x="258" y="647" on="1"/>
        <pt x="216" y="654" on="0"/>
        <pt x="188" y="654" on="1"/>
        <pt x="151" y="654" on="0"/>
        <pt x="116" y="608" on="0"/>
        <pt x="116" y="544" on="1"/>
        <pt x="116" y="480" on="0"/>
        <pt x="151" y="434" on="0"/>
        <pt x="188" y="434" on="1"/>
        <pt x="216" y="434" on="0"/>
        <pt x="258" y="441" on="1"/>
        <pt x="268" y="390" on="1"/>
        <pt x="228" y="380" on="0"/>
        <pt x="184" y="380" on="1"/>
      </contour>
    </TTGlyph>
    <TTGlyph name="C.sups" xMin="127" yMin="316" xMax="326" yMax="644">
      <contour>
        <pt x="281" y="370" on="0"/>
        <pt x="316" y="377" on="1"/>
        <pt x="326" y="326" on="1"/>
        <pt x="291" y="316" on="0"/>
        <pt x="252" y="316" on="1"/>
        <pt x="193" y="316" on="0"/>
        <pt x="127" y="401" on="0"/>
        <pt x="127" y="480" on="1"/>
        <pt x="127" y="559" on="0"/>
        <pt x="193" y="644" on="0"/>
        <pt x="252" y="644" on="1"/>
        <pt x="291" y="644" on="0"/>
        <pt x="326" y="634" on="1"/>
        <pt x="316" y="583" on="1"/>
        <pt x="281" y="590" on="0"/>
        <pt x="256" y="590" on="1"/>
        <pt x="234" y="590" on="0"/>
        <pt x="207" y="573" on="0"/>
        <pt x="193" y="525" on="0"/>
        <pt x="193" y="480" on="1"/>
        <pt x="193" y="435" on="0"/>
        <pt x="207" y="387" on="0"/>
        <pt x="234" y="370" on="0"/>
        <pt x="256" y="370" on="1"/>
      </contour>
    </TTGlyph>
    <TTGlyph name="Cacute" xMin="48" yMin="-9" xMax="348" yMax="841">
      <component glyphName="C" x="0" y="0" flags="0x0"/>
      <component glyphName="acutecomb.case" x="8" y="0" flags="0x0"/>
    </TTGlyph>
    <TTGlyph name="Ccaron" xMin="48" yMin="-9" xMax="363" yMax="839">
      <component glyphName="C" x="0" y="0" flags="0x0"/>
      <component glyphName="uni030C.case" x="8" y="0" flags="0x0"/>
    </TTGlyph>
    <TTGlyph name="Ccedilla" xMin="48" yMin="-192" xMax="348" yMax="647">
      <component glyphName="C" x="0" y="0" flags="0x0"/>
      <component glyphName="uni0327" x="-25" y="0" flags="0x0"/>
    </TTGlyph>
    <TTGlyph name="Ccircumflex" xMin="48" yMin="-9" xMax="363" yMax="842">
      <component glyphName="C" x="0" y="0" flags="0x0"/>
      <component glyphName="uni0302.case" x="8" y="0" flags="0x0"/>
    </TTGlyph>
    <TTGlyph name="Cdotaccent" xMin="48" yMin="-9" xMax="348" yMax="815">
      <component glyphName="C" x="0" y="0" flags="0x0"/>
      <component glyphName="uni0307.case" x="8" y="0" flags="0x0"/>
    </TTGlyph>
    <TTGlyph name="Chi" xMin="51" yMin="0" xMax="397" yMax="640">
      <component glyphName="X" x="0" y="0" flags="0x0"/>
    </TTGlyph>
    <TTGlyph name="D" xMin="64" yMin="0" xMax="423" yMax="640">
      <contour>
        <pt x="287" y="640" on="0"/>
        <pt x="380" y="574" on="0"/>
        <pt x="423" y="433" on="0"/>
        <pt x="423" y="317" on="1"/>
        <pt x="423" y="201" on="0"/>
        <pt x="380" y="63" on="0"/>
        <pt x="288" y="0" on="0"/>
        <pt x="212" y="0" on="1"/>
        <pt x="64" y="0" on="1"/>
        <pt x="64" y="640" on="1"/>
        <pt x="211" y="640" on="1"/>
      </contour>
      <contour>
        <pt x="205" y="52" on="1"/>
        <pt x="272" y="52" on="0"/>
        <pt x="338" y="107" on="0"/>
        <pt x="359" y="216" on="0"/>
        <pt x="359" y="317" on="1"/>
        <pt x="359" y="420" on="0"/>
        <pt x="337" y="532" on="0"/>
        <pt x="272" y="588" on="0"/>
        <pt x="205" y="588" on="1"/>
        <pt x="122" y="588" on="1"/>
        <pt x="122" y="52" on="1"/>
      </contour>
    </TTGlyph>
    <TTGlyph name="D.hex" xMin="64" yMin="0" xMax="391" yMax="576">
      <contour>
        <pt x="255" y="576" on="0"/>
        <pt x="348" y="517" on="0"/>
        <pt x="391" y="389" on="0"/>
        <pt x="391" y="285" on="1"/>
        <pt x="391" y="180" on="0"/>
        <pt x="348" y="56" on="0"/>
        <pt x="256" y="0" on="0"/>
        <pt x="180" y="0" on="1"/>
        <pt x="64" y="0" on="1"/>
        <pt x="64" y="576" on="1"/>
        <pt x="179" y="576" on="1"/>
      </contour>
      <contour>
        <pt x="173" y="52" on="1"/>
        <pt x="240" y="52" on="0"/>
        <pt x="306" y="101" on="0"/>
        <pt x="327" y="197" on="0"/>
        <pt x="327" y="285" on="1"/>
        <pt x="327" y="376" on="0"/>
        <pt x="305" y="475" on="0"/>
        <pt x="240" y="524" on="0"/>
        <pt x="173" y="524" on="1"/>
        <pt x="122" y="524" on="1"/>
        <pt x="122" y="52" on="1"/>
      </contour>
    </TTGlyph>
    <TTGlyph name="D.sups" xMin="128" yMin="320" xMax="320" yMax="640">
      <contour>
        <pt x="256" y="640" on="1"/>
        <pt x="256" y="576" on="1"/>
        <pt x="192" y="576" on="1"/>
        <pt x="192" y="384" on="1"/>
        <pt x="256" y="384" on="1"/>
        <pt x="256" y="320" on="1"/>
        <pt x="128" y="320" on="1"/>
        <pt x="128" y="640" on="1"/>
      </contour>
      <contour>
        <pt x="256" y="576" on="1"/>
        <pt x="320" y="576" on="1"/>
        <pt x="320" y="384" on="1"/>
        <pt x="256" y="384" on="1"/>
      </contour>
    </TTGlyph>
    <TTGlyph name="Dcaron" xMin="64" yMin="0" xMax="423" yMax="839">
      <component glyphName="D" x="0" y="0" flags="0x0"/>
      <component glyphName="uni030C.case" x="4" y="0" flags="0x0"/>
    </TTGlyph>
    <TTGlyph name="Dcroat" xMin="9" yMin="0" xMax="423" yMax="640">
      <component glyphName="Eth" x="0" y="0" flags="0x0"/>
    </TTGlyph>
    <TTGlyph name="E" xMin="64" yMin="0" xMax="377" yMax="640">
      <contour>
        <pt x="64" y="640" on="1"/>
        <pt x="367" y="640" on="1"/>
        <pt x="367" y="588" on="1"/>
        <pt x="122" y="588" on="1"/>
        <pt x="122" y="314" on="1"/>
        <pt x="313" y="314" on="1"/>
        <pt x="313" y="262" on="1"/>
        <pt x="122" y="262" on="1"/>
        <pt x="122" y="52" on="1"/>
        <pt x="377" y="52" on="1"/>
        <pt x="377" y="0" on="1"/>
        <pt x="64" y="0" on="1"/>
      </contour>
    </TTGlyph>
    <TTGlyph name="E.hex" xMin="64" yMin="0" xMax="377" yMax="576">
      <contour>
        <pt x="64" y="576" on="1"/>
        <pt x="367" y="576" on="1"/>
        <pt x="367" y="524" on="1"/>
        <pt x="122" y="524" on="1"/>
        <pt x="122" y="298" on="1"/>
        <pt x="313" y="298" on="1"/>
        <pt x="313" y="246" on="1"/>
        <pt x="122" y="246" on="1"/>
        <pt x="122" y="52" on="1"/>
        <pt x="377" y="52" on="1"/>
        <pt x="377" y="0" on="1"/>
        <pt x="64" y="0" on="1"/>
      </contour>
    </TTGlyph>
    <TTGlyph name="E.sups" xMin="128" yMin="320" xMax="318" yMax="640">
      <contour>
        <pt x="128" y="640" on="1"/>
        <pt x="314" y="640" on="1"/>
        <pt x="314" y="585" on="1"/>
        <pt x="192" y="585" on="1"/>
        <pt x="192" y="508" on="1"/>
        <pt x="302" y="508" on="1"/>
        <pt x="302" y="453" on="1"/>
        <pt x="192" y="453" on="1"/>
        <pt x="192" y="375" on="1"/>
        <pt x="318" y="375" on="1"/>
        <pt x="318" y="320" on="1"/>
        <pt x="128" y="320" on="1"/>
      </contour>
    </TTGlyph>
    <TTGlyph name="Eacute" xMin="64" yMin="0" xMax="377" yMax="841">
      <component glyphName="E" x="0" y="0" flags="0x0"/>
      <component glyphName="acutecomb.case" x="-4" y="0" flags="0x0"/>
    </TTGlyph>
    <TTGlyph name="Ebreve" xMin="64" yMin="0" xMax="377" yMax="833">
      <component glyphName="E" x="0" y="0" flags="0x0"/>
      <component glyphName="uni0306.case" x="-4" y="0" flags="0x0"/>
    </TTGlyph>
    <TTGlyph name="Ecaron" xMin="64" yMin="0" xMax="377" yMax="839">
      <component glyphName="E" x="0" y="0" flags="0x0"/>
      <component glyphName="uni030C.case" x="-4" y="0" flags="0x0"/>
    </TTGlyph>
    <TTGlyph name="Ecircumflex" xMin="64" yMin="0" xMax="377" yMax="842">
      <component glyphName="E" x="0" y="0" flags="0x0"/>
      <component glyphName="uni0302.case" x="-4" y="0" flags="0x0"/>
    </TTGlyph>
    <TTGlyph name="Edieresis" xMin="64" yMin="0" xMax="377" yMax="813">
      <component glyphName="E" x="0" y="0" flags="0x0"/>
      <component glyphName="uni0308.case" x="-4" y="0" flags="0x0"/>
    </TTGlyph>
    <TTGlyph name="Edotaccent" xMin="64" yMin="0" xMax="377" yMax="815">
      <component glyphName="E" x="0" y="0" flags="0x0"/>
      <component glyphName="uni0307.case" x="-4" y="0" flags="0x0"/>
    </TTGlyph>
    <TTGlyph name="Egrave" xMin="64" yMin="0" xMax="377" yMax="841">
      <component glyphName="E" x="0" y="0" flags="0x0"/>
      <component glyphName="gravecomb.case" x="-4" y="0" flags="0x0"/>
    </TTGlyph>
    <TTGlyph name="Emacron" xMin="64" yMin="0" xMax="377" yMax="766">
      <component glyphName="E" x="0" y="0" flags="0x0"/>
      <component glyphName="uni0304.case" x="-4" y="0" flags="0x0"/>
    </TTGlyph>
    <TTGlyph name="Eng" xMin="64" yMin="-196" xMax="385" yMax="640">
      <contour>
        <pt x="385" y="-77" on="0"/>
        <pt x="334" y="-167" on="0"/>
        <pt x="269" y="-196" on="1"/>
        <pt x="245" y="-148" on="1"/>
        <pt x="290" y="-128" on="0"/>
        <pt x="327" y="-69" on="0"/>
        <pt x="327" y="-13" on="1"/>
        <pt x="327" y="4" on="1"/>
        <pt x="174" y="385" on="1"/>
        <pt x="122" y="542" on="1"/>
        <pt x="122" y="0" on="1"/>
        <pt x="64" y="0" on="1"/>
        <pt x="64" y="640" on="1"/>
        <pt x="135" y="640" on="1"/>
        <pt x="287" y="260" on="1"/>
        <pt x="327" y="138" on="1"/>
        <pt x="327" y="640" on="1"/>
        <pt x="385" y="640" on="1"/>
        <pt x="385" y="-5" on="1"/>
      </contour>
    </TTGlyph>
    <TTGlyph name="Eogonek" xMin="64" yMin="-197" xMax="397" yMax="640">
      <component glyphName="E" x="0" y="0" flags="0x0"/>
      <component glyphName="uni0328" x="-1" y="0" flags="0x0"/>
    </TTGlyph>
    <TTGlyph name="Epsilon" xMin="64" yMin="0" xMax="377" yMax="640">
      <component glyphName="E" x="0" y="0" flags="0x0"/>
    </TTGlyph>
    <TTGlyph name="Epsilontonos" xMin="-60" yMin="0" xMax="377" yMax="704">
      <component glyphName="E" x="0" y="0" flags="0x0"/>
      <component glyphName="tonos" x="-256" y="0" flags="0x0"/>
    </TTGlyph>
    <TTGlyph name="Eta" xMin="64" yMin="0" xMax="417" yMax="640">
      <component glyphName="H" x="0" y="0" flags="0x0"/>
    </TTGlyph>
    <TTGlyph name="Etatonos" xMin="-60" yMin="0" xMax="417" yMax="704">
      <component glyphName="H" x="0" y="0" flags="0x0"/>
      <component glyphName="tonos" x="-256" y="0" flags="0x0"/>
    </TTGlyph>
    <TTGlyph name="Eth" xMin="9" yMin="0" xMax="423" yMax="640">
      <contour>
        <pt x="64" y="314" on="1"/>
        <pt x="64" y="640" on="1"/>
        <pt x="211" y="640" on="1"/>
        <pt x="287" y="640" on="0"/>
        <pt x="380" y="574" on="0"/>
        <pt x="423" y="433" on="0"/>
        <pt x="423" y="317" on="1"/>
        <pt x="423" y="201" on="0"/>
        <pt x="380" y="63" on="0"/>
        <pt x="288" y="0" on="0"/>
        <pt x="212" y="0" on="1"/>
        <pt x="64" y="0" on="1"/>
        <pt x="64" y="262" on="1"/>
        <pt x="9" y="262" on="1"/>
        <pt x="9" y="314" on="1"/>
      </contour>
      <contour>
        <pt x="205" y="52" on="1"/>
        <pt x="272" y="52" on="0"/>
        <pt x="338" y="107" on="0"/>
        <pt x="359" y="216" on="0"/>
        <pt x="359" y="317" on="1"/>
        <pt x="359" y="420" on="0"/>
        <pt x="337" y="532" on="0"/>
        <pt x="272" y="588" on="0"/>
        <pt x="205" y="588" on="1"/>
        <pt x="122" y="588" on="1"/>
        <pt x="122" y="314" on="1"/>
        <pt x="233" y="314" on="1"/>
        <pt x="233" y="262" on="1"/>
        <pt x="122" y="262" on="1"/>
        <pt x="122" y="52" on="1"/>
      </contour>
    </TTGlyph>
    <TTGlyph name="Euro" xMin="68" yMin="-7" xMax="406" yMax="583">
      <contour>
        <pt x="348" y="45" on="0"/>
        <pt x="392" y="59" on="1"/>
        <pt x="406" y="12" on="1"/>
        <pt x="361" y="-7" on="0"/>
        <pt x="308" y="-7" on="1"/>
        <pt x="225" y="-7" on="0"/>
        <pt x="134" y="96" on="0"/>
        <pt x="121" y="197" on="1"/>
        <pt x="68" y="197" on="1"/>
        <pt x="68" y="249" on="1"/>
        <pt x="117" y="249" on="1"/>
        <pt x="116" y="262" on="0"/>
        <pt x="116" y="288" on="1"/>
        <pt x="117" y="327" on="1"/>
        <pt x="68" y="327" on="1"/>
        <pt x="68" y="379" on="1"/>
        <pt x="121" y="379" on="1"/>
        <pt x="134" y="480" on="0"/>
        <pt x="225" y="583" on="0"/>
        <pt x="308" y="583" on="1"/>
        <pt x="331" y="583" on="0"/>
        <pt x="384" y="573" on="0"/>
        <pt x="406" y="564" on="1"/>
        <pt x="392" y="517" on="1"/>
        <pt x="348" y="531" on="0"/>
        <pt x="310" y="531" on="1"/>
        <pt x="254" y="531" on="0"/>
        <pt x="190" y="460" on="0"/>
        <pt x="179" y="379" on="1"/>
        <pt x="362" y="379" on="1"/>
        <pt x="350" y="327" on="1"/>
        <pt x="175" y="327" on="1"/>
        <pt x="174" y="315" on="0"/>
        <pt x="174" y="288" on="1"/>
        <pt x="175" y="249" on="1"/>
        <pt x="334" y="249" on="1"/>
        <pt x="323" y="197" on="1"/>
        <pt x="179" y="197" on="1"/>
        <pt x="189" y="115" on="0"/>
        <pt x="254" y="45" on="0"/>
        <pt x="310" y="45" on="1"/>
      </contour>
    </TTGlyph>
    <TTGlyph name="F" xMin="64" yMin="0" xMax="355" yMax="640">
      <contour>
        <pt x="64" y="640" on="1"/>
        <pt x="355" y="640" on="1"/>
        <pt x="355" y="588" on="1"/>
        <pt x="122" y="588" on="1"/>
        <pt x="122" y="314" on="1"/>
        <pt x="306" y="314" on="1"/>
        <pt x="306" y="262" on="1"/>
        <pt x="122" y="262" on="1"/>
        <pt x="122" y="0" on="1"/>
        <pt x="64" y="0" on="1"/>
      </contour>
    </TTGlyph>
    <TTGlyph name="F.hex" xMin="64" yMin="0" xMax="377" yMax="576">
      <contour>
        <pt x="64" y="576" on="1"/>
        <pt x="377" y="576" on="1"/>
        <pt x="377" y="524" on="1"/>
        <pt x="122" y="524" on="1"/>
        <pt x="122" y="298" on="1"/>
        <pt x="313" y="298" on="1"/>
        <pt x="313" y="246" on="1"/>
        <pt x="122" y="246" on="1"/>
        <pt x="122" y="0" on="1"/>
        <pt x="64" y="0" on="1"/>
      </contour>
    </TTGlyph>
    <TTGlyph name="F.pl" xMin="192" yMin="-65" xMax="408" yMax="255">
      <contour>
        <pt x="192" y="255" on="1"/>
        <pt x="408" y="255" on="1"/>
        <pt x="408" y="199" on="1"/>
        <pt x="256" y="199" on="1"/>
        <pt x="256" y="119" on="1"/>
        <pt x="388" y="119" on="1"/>
        <pt x="388" y="63" on="1"/>
        <pt x="256" y="63" on="1"/>
        <pt x="256" y="-65" on="1"/>
        <pt x="192" y="-65" on="1"/>
      </contour>
    </TTGlyph>
    <TTGlyph name="F.sups" xMin="128" yMin="320" xMax="320" yMax="640">
      <contour>
        <pt x="128" y="640" on="1"/>
        <pt x="320" y="640" on="1"/>
        <pt x="320" y="585" on="1"/>
        <pt x="192" y="585" on="1"/>
        <pt x="192" y="503" on="1"/>
        <pt x="300" y="503" on="1"/>
        <pt x="300" y="448" on="1"/>
        <pt x="192" y="448" on="1"/>
        <pt x="192" y="320" on="1"/>
        <pt x="128" y="320" on="1"/>
      </contour>
    </TTGlyph>
    <TTGlyph name="G" xMin="58" yMin="-9" xMax="385" yMax="647">
      <contour>
        <pt x="189" y="-9" on="0"/>
        <pt x="99" y="55" on="0"/>
        <pt x="58" y="197" on="0"/>
        <pt x="58" y="319" on="1"/>
        <pt x="58" y="441" on="0"/>
        <pt x="99" y="583" on="0"/>
        <pt x="189" y="647" on="0"/>
        <pt x="267" y="647" on="1"/>
        <pt x="293" y="647" on="0"/>
        <pt x="354" y="640" on="0"/>
        <pt x="379" y="633" on="1"/>
        <pt x="369" y="584" on="1"/>
        <pt x="320" y="595" on="0"/>
        <pt x="271" y="595" on="1"/>
        <pt x="207" y="595" on="0"/>
        <pt x="144" y="540" on="0"/>
        <pt x="122" y="425" on="0"/>
        <pt x="122" y="319" on="1"/>
        <pt x="122" y="214" on="0"/>
        <pt x="145" y="98" on="0"/>
        <pt x="209" y="43" on="0"/>
        <pt x="272" y="43" on="1"/>
        <pt x="299" y="43" on="0"/>
        <pt x="327" y="47" on="1"/>
        <pt x="327" y="262" on="1"/>
        <pt x="231" y="262" on="1"/>
        <pt x="231" y="314" on="1"/>
        <pt x="385" y="314" on="1"/>
        <pt x="385" y="7" on="1"/>
        <pt x="357" y="0" on="0"/>
        <pt x="292" y="-9" on="0"/>
        <pt x="267" y="-9" on="1"/>
      </contour>
    </TTGlyph>
    <TTGlyph name="G.sups" xMin="128" yMin="320" xMax="320" yMax="640">
      <contour>
        <pt x="192" y="576" on="1"/>
        <pt x="192" y="384" on="1"/>
        <pt x="128" y="384" on="1"/>
        <pt x="128" y="576" on="1"/>
      </contour>
      <contour>
        <pt x="192" y="384" on="1"/>
        <pt x="256" y="384" on="1"/>
        <pt x="256" y="512" on="1"/>
        <pt x="320" y="512" on="1"/>
        <pt x="320" y="320" on="1"/>
        <pt x="192" y="320" on="1"/>
      </contour>
      <contour>
        <pt x="192" y="640" on="1"/>
        <pt x="320" y="640" on="1"/>
        <pt x="320" y="576" on="1"/>
        <pt x="192" y="576" on="1"/>
      </contour>
    </TTGlyph>
    <TTGlyph name="Gamma" xMin="64" yMin="0" xMax="355" yMax="640">
      <component glyphName="uni0413" x="0" y="0" flags="0x0"/>
    </TTGlyph>
    <TTGlyph name="Gbreve" xMin="58" yMin="-9" xMax="385" yMax="833">
      <component glyphName="G" x="0" y="0" flags="0x0"/>
      <component glyphName="uni0306.case" x="20" y="0" flags="0x0"/>
    </TTGlyph>
    <TTGlyph name="Gcaron" xMin="58" yMin="-9" xMax="385" yMax="839">
      <component glyphName="G" x="0" y="0" flags="0x0"/>
      <component glyphName="uni030C.case" x="20" y="0" flags="0x0"/>
    </TTGlyph>
    <TTGlyph name="Gcircumflex" xMin="58" yMin="-9" xMax="385" yMax="842">
      <component glyphName="G" x="0" y="0" flags="0x0"/>
      <component glyphName="uni0302.case" x="20" y="0" flags="0x0"/>
    </TTGlyph>
    <TTGlyph name="Gdotaccent" xMin="58" yMin="-9" xMax="385" yMax="815">
      <component glyphName="G" x="0" y="0" flags="0x0"/>
      <component glyphName="uni0307.case" x="20" y="0" flags="0x0"/>
    </TTGlyph>
    <TTGlyph name="H" xMin="64" yMin="0" xMax="417" yMax="640">
      <contour>
        <pt x="64" y="640" on="1"/>
        <pt x="122" y="640" on="1"/>
        <pt x="122" y="314" on="1"/>
        <pt x="359" y="314" on="1"/>
        <pt x="359" y="640" on="1"/>
        <pt x="417" y="640" on="1"/>
        <pt x="417" y="0" on="1"/>
        <pt x="359" y="0" on="1"/>
        <pt x="359" y="262" on="1"/>
        <pt x="122" y="262" on="1"/>
        <pt x="122" y="0" on="1"/>
        <pt x="64" y="0" on="1"/>
      </contour>
    </TTGlyph>
    <TTGlyph name="H.sups" xMin="124" yMin="320" xMax="324" yMax="640">
      <contour>
        <pt x="188" y="508" on="1"/>
        <pt x="260" y="508" on="1"/>
        <pt x="260" y="640" on="1"/>
        <pt x="324" y="640" on="1"/>
        <pt x="324" y="320" on="1"/>
        <pt x="260" y="320" on="1"/>
        <pt x="260" y="452" on="1"/>
        <pt x="188" y="452" on="1"/>
        <pt x="188" y="320" on="1"/>
        <pt x="124" y="320" on="1"/>
        <pt x="124" y="640" on="1"/>
        <pt x="188" y="640" on="1"/>
      </contour>
    </TTGlyph>
    <TTGlyph name="Hbar" xMin="10" yMin="0" xMax="470" yMax="640">
      <contour>
        <pt x="64" y="447" on="1"/>
        <pt x="10" y="447" on="1"/>
        <pt x="10" y="498" on="1"/>
        <pt x="64" y="498" on="1"/>
        <pt x="64" y="640" on="1"/>
        <pt x="122" y="640" on="1"/>
        <pt x="122" y="498" on="1"/>
        <pt x="359" y="498" on="1"/>
        <pt x="359" y="640" on="1"/>
        <pt x="417" y="640" on="1"/>
        <pt x="417" y="498" on="1"/>
        <pt x="470" y="498" on="1"/>
        <pt x="470" y="447" on="1"/>
        <pt x="417" y="447" on="1"/>
        <pt x="417" y="0" on="1"/>
        <pt x="359" y="0" on="1"/>
        <pt x="359" y="262" on="1"/>
        <pt x="122" y="262" on="1"/>
        <pt x="122" y="0" on="1"/>
        <pt x="64" y="0" on="1"/>
      </contour>
      <contour>
        <pt x="359" y="314" on="1"/>
        <pt x="359" y="447" on="1"/>
        <pt x="122" y="447" on="1"/>
        <pt x="122" y="314" on="1"/>
      </contour>
    </TTGlyph>
    <TTGlyph name="Hcircumflex" xMin="64" yMin="0" xMax="417" yMax="842">
      <component glyphName="H" x="0" y="0" flags="0x0"/>
      <component glyphName="uni0302.case" x="16" y="0" flags="0x0"/>
    </TTGlyph>
    <TTGlyph name="I" xMin="58" yMin="0" xMax="263" yMax="640">
      <contour>
        <pt x="58" y="47" on="1"/>
        <pt x="131" y="51" on="1"/>
        <pt x="131" y="589" on="1"/>
        <pt x="62" y="593" on="1"/>
        <pt x="62" y="640" on="1"/>
        <pt x="258" y="640" on="1"/>
        <pt x="258" y="593" on="1"/>
        <pt x="189" y="589" on="1"/>
        <pt x="189" y="51" on="1"/>
        <pt x="263" y="47" on="1"/>
        <pt x="263" y="0" on="1"/>
        <pt x="58" y="0" on="1"/>
      </contour>
    </TTGlyph>
    <TTGlyph name="I.sups" xMin="128" yMin="320" xMax="320" yMax="640">
      <contour>
        <pt x="320" y="320" on="1"/>
        <pt x="128" y="320" on="1"/>
        <pt x="128" y="368" on="1"/>
        <pt x="192" y="376" on="1"/>
        <pt x="192" y="584" on="1"/>
        <pt x="128" y="592" on="1"/>
        <pt x="128" y="640" on="1"/>
        <pt x="320" y="640" on="1"/>
        <pt x="320" y="592" on="1"/>
        <pt x="256" y="584" on="1"/>
        <pt x="256" y="376" on="1"/>
        <pt x="320" y="368" on="1"/>
      </contour>
    </TTGlyph>
    <TTGlyph name="IJ" xMin="4" yMin="0" xMax="384" yMax="640">
      <contour>
        <pt x="4" y="44" on="1"/>
        <pt x="70" y="52" on="1"/>
        <pt x="70" y="588" on="1"/>
        <pt x="9" y="597" on="1"/>
        <pt x="9" y="640" on="1"/>
        <pt x="192" y="640" on="1"/>
        <pt x="192" y="597" on="1"/>
        <pt x="128" y="588" on="1"/>
        <pt x="128" y="52" on="1"/>
        <pt x="223" y="52" on="1"/>
        <pt x="277" y="52" on="0"/>
        <pt x="326" y="115" on="0"/>
        <pt x="326" y="177" on="1"/>
        <pt x="326" y="588" on="1"/>
        <pt x="242" y="588" on="1"/>
        <pt x="242" y="640" on="1"/>
        <pt x="384" y="640" on="1"/>
        <pt x="384" y="181" on="1"/>
        <pt x="384" y="88" on="0"/>
        <pt x="298" y="0" on="0"/>
        <pt x="223" y="0" on="1"/>
        <pt x="4" y="0" on="1"/>
      </contour>
    </TTGlyph>
    <TTGlyph name="Iacute" xMin="58" yMin="0" xMax="264" yMax="841">
      <component glyphName="I" x="0" y="0" flags="0x0"/>
      <component glyphName="acutecomb.case" x="-64" y="0" flags="0x0"/>
    </TTGlyph>
    <TTGlyph name="Iacute_J.loclNLD" xMin="4" yMin="0" xMax="384" yMax="841">
      <component glyphName="IJ" x="0" y="0" flags="0x0"/>
      <component glyphName="acutecomb.case" x="0" y="0" flags="0x0"/>
    </TTGlyph>
    <TTGlyph name="Ibreve" xMin="35" yMin="0" xMax="285" yMax="833">
      <component glyphName="I" x="0" y="0" flags="0x0"/>
      <component glyphName="uni0306.case" x="-64" y="0" flags="0x0"/>
    </TTGlyph>
    <TTGlyph name="Icircumflex" xMin="29" yMin="0" xMax="291" yMax="842">
      <component glyphName="I" x="0" y="0" flags="0x0"/>
      <component glyphName="uni0302.case" x="-64" y="0" flags="0x0"/>
    </TTGlyph>
    <TTGlyph name="Idieresis" xMin="19" yMin="0" xMax="301" yMax="813">
      <component glyphName="I" x="0" y="0" flags="0x0"/>
      <component glyphName="uni0308.case" x="-64" y="0" flags="0x0"/>
    </TTGlyph>
    <TTGlyph name="Idotaccent" xMin="58" yMin="0" xMax="263" yMax="815">
      <component glyphName="I" x="0" y="0" flags="0x0"/>
      <component glyphName="uni0307.case" x="-64" y="0" flags="0x0"/>
    </TTGlyph>
    <TTGlyph name="Igrave" xMin="56" yMin="0" xMax="263" yMax="841">
      <component glyphName="I" x="0" y="0" flags="0x0"/>
      <component glyphName="gravecomb.case" x="-64" y="0" flags="0x0"/>
    </TTGlyph>
    <TTGlyph name="Imacron" xMin="42" yMin="0" xMax="278" yMax="766">
      <component glyphName="I" x="0" y="0" flags="0x0"/>
      <component glyphName="uni0304.case" x="-64" y="0" flags="0x0"/>
    </TTGlyph>
    <TTGlyph name="Iogonek" xMin="58" yMin="-197" xMax="282" yMax="640">
      <component glyphName="I" x="0" y="0" flags="0x0"/>
      <component glyphName="uni0328" x="-116" y="0" flags="0x0"/>
    </TTGlyph>
    <TTGlyph name="Iota" xMin="58" yMin="0" xMax="263" yMax="640">
      <component glyphName="I" x="0" y="0" flags="0x0"/>
    </TTGlyph>
    <TTGlyph name="Iotadieresis" xMin="19" yMin="0" xMax="301" yMax="813">
      <component glyphName="I" x="0" y="0" flags="0x0"/>
      <component glyphName="uni0308.case" x="-64" y="0" flags="0x0"/>
    </TTGlyph>
    <TTGlyph name="Iotatonos" xMin="-60" yMin="0" xMax="263" yMax="704">
      <component glyphName="I" x="0" y="0" flags="0x0"/>
      <component glyphName="tonos" x="-256" y="0" flags="0x0"/>
    </TTGlyph>
    <TTGlyph name="Itilde" xMin="10" yMin="0" xMax="309" yMax="837">
      <component glyphName="I" x="0" y="0" flags="0x0"/>
      <component glyphName="tildecomb.case" x="-64" y="0" flags="0x0"/>
    </TTGlyph>
    <TTGlyph name="J" xMin="66" yMin="-8" xMax="385" yMax="640">
      <contour>
        <pt x="131" y="87" on="0"/>
        <pt x="179" y="44" on="0"/>
        <pt x="224" y="44" on="1"/>
        <pt x="278" y="44" on="0"/>
        <pt x="327" y="107" on="0"/>
        <pt x="327" y="169" on="1"/>
        <pt x="327" y="588" on="1"/>
        <pt x="173" y="588" on="1"/>
        <pt x="173" y="640" on="1"/>
        <pt x="385" y="640" on="1"/>
        <pt x="385" y="173" on="1"/>
        <pt x="385" y="80" on="0"/>
        <pt x="299" y="-8" on="0"/>
        <pt x="224" y="-8" on="1"/>
        <pt x="95" y="-8" on="0"/>
        <pt x="66" y="114" on="1"/>
        <pt x="119" y="129" on="1"/>
      </contour>
    </TTGlyph>
    <TTGlyph name="J.sups" xMin="128" yMin="320" xMax="320" yMax="640">
      <contour>
        <pt x="320" y="640" on="1"/>
        <pt x="320" y="384" on="1"/>
        <pt x="256" y="384" on="1"/>
        <pt x="256" y="576" on="1"/>
        <pt x="128" y="576" on="1"/>
        <pt x="128" y="640" on="1"/>
      </contour>
      <contour>
        <pt x="128" y="384" on="1"/>
        <pt x="256" y="384" on="1"/>
        <pt x="256" y="320" on="1"/>
        <pt x="128" y="320" on="1"/>
      </contour>
    </TTGlyph>
    <TTGlyph name="Jcircumflex" xMin="66" yMin="-8" xMax="401" yMax="842">
      <component glyphName="J" x="0" y="0" flags="0x0"/>
      <component glyphName="uni0302.case" x="46" y="0" flags="0x0"/>
    </TTGlyph>
    <TTGlyph name="K" xMin="64" yMin="0" xMax="397" yMax="640">
      <contour>
        <pt x="64" y="640" on="1"/>
        <pt x="122" y="640" on="1"/>
        <pt x="122" y="319" on="1"/>
        <pt x="179" y="319" on="1"/>
        <pt x="241" y="390" on="0"/>
        <pt x="320" y="541" on="0"/>
        <pt x="336" y="640" on="1"/>
        <pt x="395" y="640" on="1"/>
        <pt x="380" y="545" on="0"/>
        <pt x="303" y="390" on="0"/>
        <pt x="239" y="317" on="1"/>
        <pt x="377" y="300" on="0"/>
        <pt x="386" y="150" on="1"/>
        <pt x="397" y="0" on="1"/>
        <pt x="335" y="0" on="1"/>
        <pt x="326" y="148" on="1"/>
        <pt x="322" y="211" on="0"/>
        <pt x="265" y="267" on="0"/>
        <pt x="200" y="267" on="1"/>
        <pt x="122" y="267" on="1"/>
        <pt x="122" y="0" on="1"/>
        <pt x="64" y="0" on="1"/>
      </contour>
    </TTGlyph>
    <TTGlyph name="K.sups" xMin="128" yMin="320" xMax="320" yMax="640">
      <contour>
        <pt x="192" y="640" on="1"/>
        <pt x="192" y="512" on="1"/>
        <pt x="256" y="512" on="1"/>
        <pt x="256" y="448" on="1"/>
        <pt x="192" y="448" on="1"/>
        <pt x="192" y="320" on="1"/>
        <pt x="128" y="320" on="1"/>
        <pt x="128" y="640" on="1"/>
      </contour>
      <contour>
        <pt x="256" y="448" on="1"/>
        <pt x="320" y="448" on="1"/>
        <pt x="320" y="320" on="1"/>
        <pt x="256" y="320" on="1"/>
      </contour>
      <contour>
        <pt x="256" y="640" on="1"/>
        <pt x="320" y="640" on="1"/>
        <pt x="320" y="512" on="1"/>
        <pt x="256" y="512" on="1"/>
      </contour>
    </TTGlyph>
    <TTGlyph name="Kappa" xMin="64" yMin="0" xMax="397" yMax="640">
      <component glyphName="K" x="0" y="0" flags="0x0"/>
    </TTGlyph>
    <TTGlyph name="L" xMin="64" yMin="0" xMax="341" yMax="640">
      <contour>
        <pt x="64" y="640" on="1"/>
        <pt x="122" y="640" on="1"/>
        <pt x="122" y="52" on="1"/>
        <pt x="341" y="52" on="1"/>
        <pt x="341" y="0" on="1"/>
        <pt x="64" y="0" on="1"/>
      </contour>
    </TTGlyph>
    <TTGlyph name="L.pl" xMin="64" yMin="384" xMax="284" yMax="704">
      <contour>
        <pt x="284" y="384" on="1"/>
        <pt x="64" y="384" on="1"/>
        <pt x="64" y="704" on="1"/>
        <pt x="128" y="704" on="1"/>
        <pt x="128" y="440" on="1"/>
        <pt x="284" y="440" on="1"/>
      </contour>
    </TTGlyph>
    <TTGlyph name="L.sups" xMin="128" yMin="320" xMax="320" yMax="640">
      <contour>
        <pt x="320" y="320" on="1"/>
        <pt x="128" y="320" on="1"/>
        <pt x="128" y="640" on="1"/>
        <pt x="192" y="640" on="1"/>
        <pt x="192" y="376" on="1"/>
        <pt x="320" y="376" on="1"/>
      </contour>
    </TTGlyph>
    <TTGlyph name="Lacute" xMin="64" yMin="0" xMax="341" yMax="841">
      <component glyphName="L" x="0" y="0" flags="0x0"/>
      <component glyphName="acutecomb.case" x="-132" y="0" flags="0x0"/>
    </TTGlyph>
    <TTGlyph name="Lambda" xMin="39" yMin="0" xMax="410" yMax="643">
      <contour>
        <pt x="55" y="187" on="0"/>
        <pt x="137" y="521" on="0"/>
        <pt x="199" y="643" on="1"/>
        <pt x="249" y="643" on="1"/>
        <pt x="311" y="521" on="0"/>
        <pt x="393" y="187" on="0"/>
        <pt x="410" y="0" on="1"/>
        <pt x="349" y="0" on="1"/>
        <pt x="333" y="172" on="0"/>
        <pt x="268" y="462" on="0"/>
        <pt x="224" y="567" on="1"/>
        <pt x="179" y="462" on="0"/>
        <pt x="116" y="172" on="0"/>
        <pt x="100" y="0" on="1"/>
        <pt x="39" y="0" on="1"/>
      </contour>
    </TTGlyph>
    <TTGlyph name="Lcaron" xMin="-39" yMin="0" xMax="341" yMax="839">
      <component glyphName="L" x="0" y="0" flags="0x0"/>
      <component glyphName="uni030C.case" x="-132" y="0" flags="0x0"/>
    </TTGlyph>
    <TTGlyph name="Ldot" xMin="64" yMin="0" xMax="342" yMax="640">
      <contour>
        <pt x="64" y="640" on="1"/>
        <pt x="122" y="640" on="1"/>
        <pt x="122" y="52" on="1"/>
        <pt x="341" y="52" on="1"/>
        <pt x="341" y="0" on="1"/>
        <pt x="64" y="0" on="1"/>
      </contour>
      <contour>
        <pt x="228" y="329" on="0"/>
        <pt x="261" y="360" on="0"/>
        <pt x="285" y="360" on="1"/>
        <pt x="309" y="360" on="0"/>
        <pt x="342" y="329" on="0"/>
        <pt x="342" y="303" on="1"/>
        <pt x="342" y="276" on="0"/>
        <pt x="309" y="246" on="0"/>
        <pt x="285" y="246" on="1"/>
        <pt x="261" y="246" on="0"/>
        <pt x="228" y="276" on="0"/>
        <pt x="228" y="303" on="1"/>
      </contour>
    </TTGlyph>
    <TTGlyph name="Lslash" xMin="-39" yMin="0" xMax="341" yMax="640">
      <component glyphName="L" x="0" y="0" flags="0x0"/>
      <component glyphName="_part.slash.comp" x="-112" y="0" flags="0x0"/>
    </TTGlyph>
    <TTGlyph name="M" xMin="64" yMin="0" xMax="513" yMax="640">
      <contour>
        <pt x="64" y="640" on="1"/>
        <pt x="136" y="640" on="1"/>
        <pt x="251" y="345" on="1"/>
        <pt x="288" y="239" on="1"/>
        <pt x="327" y="345" on="1"/>
        <pt x="440" y="640" on="1"/>
        <pt x="513" y="640" on="1"/>
        <pt x="513" y="0" on="1"/>
        <pt x="455" y="0" on="1"/>
        <pt x="455" y="453" on="1"/>
        <pt x="457" y="540" on="1"/>
        <pt x="418" y="427" on="1"/>
        <pt x="309" y="150" on="1"/>
        <pt x="267" y="150" on="1"/>
        <pt x="159" y="427" on="1"/>
        <pt x="119" y="544" on="1"/>
        <pt x="122" y="453" on="1"/>
        <pt x="122" y="0" on="1"/>
        <pt x="64" y="0" on="1"/>
      </contour>
    </TTGlyph>
    <TTGlyph name="M.sups" xMin="128" yMin="320" xMax="320" yMax="640">
      <contour>
        <pt x="320" y="640" on="1"/>
        <pt x="320" y="320" on="1"/>
        <pt x="256" y="320" on="1"/>
        <pt x="256" y="384" on="1"/>
        <pt x="192" y="384" on="1"/>
        <pt x="192" y="320" on="1"/>
        <pt x="128" y="320" on="1"/>
        <pt x="128" y="640" on="1"/>
      </contour>
    </TTGlyph>
    <TTGlyph name="Mu" xMin="64" yMin="0" xMax="513" yMax="640">
      <component glyphName="M" x="0" y="0" flags="0x0"/>
    </TTGlyph>
    <TTGlyph name="N" xMin="64" yMin="0" xMax="417" yMax="640">
      <contour>
        <pt x="122" y="540" on="1"/>
        <pt x="122" y="0" on="1"/>
        <pt x="64" y="0" on="1"/>
        <pt x="64" y="640" on="1"/>
        <pt x="141" y="640" on="1"/>
        <pt x="359" y="110" on="1"/>
        <pt x="359" y="640" on="1"/>
        <pt x="417" y="640" on="1"/>
        <pt x="417" y="0" on="1"/>
        <pt x="343" y="0" on="1"/>
      </contour>
    </TTGlyph>
    <TTGlyph name="N.pl" xMin="131" yMin="-64" xMax="382" yMax="256">
      <contour>
        <pt x="131" y="256" on="1"/>
        <pt x="215" y="256" on="1"/>
        <pt x="322" y="23" on="1"/>
        <pt x="322" y="256" on="1"/>
        <pt x="382" y="256" on="1"/>
        <pt x="382" y="-64" on="1"/>
        <pt x="298" y="-64" on="1"/>
        <pt x="191" y="169" on="1"/>
        <pt x="191" y="-64" on="1"/>
        <pt x="131" y="-64" on="1"/>
      </contour>
    </TTGlyph>
    <TTGlyph name="N.sups" xMin="128" yMin="320" xMax="320" yMax="640">
      <contour>
        <pt x="256" y="640" on="1"/>
        <pt x="256" y="576" on="1"/>
        <pt x="192" y="576" on="1"/>
        <pt x="192" y="320" on="1"/>
        <pt x="128" y="320" on="1"/>
        <pt x="128" y="640" on="1"/>
      </contour>
      <contour>
        <pt x="256" y="576" on="1"/>
        <pt x="320" y="576" on="1"/>
        <pt x="320" y="320" on="1"/>
        <pt x="256" y="320" on="1"/>
      </contour>
    </TTGlyph>
    <TTGlyph name="Nacute" xMin="64" yMin="0" xMax="417" yMax="841">
      <component glyphName="N" x="0" y="0" flags="0x0"/>
      <component glyphName="acutecomb.case" x="16" y="0" flags="0x0"/>
    </TTGlyph>
    <TTGlyph name="Ncaron" xMin="64" yMin="0" xMax="417" yMax="839">
      <component glyphName="N" x="0" y="0" flags="0x0"/>
      <component glyphName="uni030C.case" x="16" y="0" flags="0x0"/>
    </TTGlyph>
    <TTGlyph name="Ntilde" xMin="64" yMin="0" xMax="417" yMax="837">
      <component glyphName="N" x="0" y="0" flags="0x0"/>
      <component glyphName="tildecomb.case" x="16" y="0" flags="0x0"/>
    </TTGlyph>
    <TTGlyph name="Nu" xMin="64" yMin="0" xMax="417" yMax="640">
      <component glyphName="N" x="0" y="0" flags="0x0"/>
    </TTGlyph>
    <TTGlyph name="O" xMin="41" yMin="-10" xMax="439" yMax="650">
      <contour>
        <pt x="41" y="-10" on="0"/>
        <pt x="41" y="319" on="1"/>
        <pt x="41" y="486" on="0"/>
        <pt x="140" y="650" on="0"/>
        <pt x="240" y="650" on="1"/>
        <pt x="342" y="650" on="0"/>
        <pt x="439" y="487" on="0"/>
        <pt x="439" y="319" on="1"/>
        <pt x="439" y="154" on="0"/>
        <pt x="342" y="-10" on="0"/>
        <pt x="240" y="-10" on="1"/>
      </contour>
      <contour>
        <pt x="103" y="172" on="0"/>
        <pt x="167" y="43" on="0"/>
        <pt x="240" y="43" on="1"/>
        <pt x="313" y="43" on="0"/>
        <pt x="377" y="172" on="0"/>
        <pt x="377" y="319" on="1"/>
        <pt x="377" y="467" on="0"/>
        <pt x="313" y="597" on="0"/>
        <pt x="240" y="597" on="1"/>
        <pt x="167" y="597" on="0"/>
        <pt x="103" y="467" on="0"/>
        <pt x="103" y="319" on="1"/>
      </contour>
    </TTGlyph>
    <TTGlyph name="O.pl" xMin="121" yMin="-71" xMax="400" yMax="265">
      <contour>
        <pt x="191" y="-71" on="0"/>
        <pt x="121" y="21" on="0"/>
        <pt x="121" y="97" on="1"/>
        <pt x="121" y="173" on="0"/>
        <pt x="191" y="265" on="0"/>
        <pt x="260" y="265" on="1"/>
        <pt x="329" y="265" on="0"/>
        <pt x="400" y="173" on="0"/>
        <pt x="400" y="97" on="1"/>
        <pt x="400" y="21" on="0"/>
        <pt x="329" y="-71" on="0"/>
        <pt x="260" y="-71" on="1"/>
      </contour>
      <contour>
        <pt x="187" y="39" on="0"/>
        <pt x="220" y="-15" on="0"/>
        <pt x="260" y="-15" on="1"/>
        <pt x="300" y="-15" on="0"/>
        <pt x="334" y="39" on="0"/>
        <pt x="334" y="97" on="1"/>
        <pt x="334" y="153" on="0"/>
        <pt x="299" y="209" on="0"/>
        <pt x="260" y="209" on="1"/>
        <pt x="221" y="209" on="0"/>
        <pt x="187" y="154" on="0"/>
        <pt x="187" y="97" on="1"/>
      </contour>
    </TTGlyph>
    <TTGlyph name="O.sups" xMin="104" yMin="316" xMax="344" yMax="644">
      <contour>
        <pt x="161" y="316" on="0"/>
        <pt x="104" y="406" on="0"/>
        <pt x="104" y="480" on="1"/>
        <pt x="104" y="555" on="0"/>
        <pt x="161" y="644" on="0"/>
        <pt x="224" y="644" on="1"/>
        <pt x="286" y="644" on="0"/>
        <pt x="344" y="554" on="0"/>
        <pt x="344" y="480" on="1"/>
        <pt x="344" y="407" on="0"/>
        <pt x="286" y="316" on="0"/>
        <pt x="224" y="316" on="1"/>
      </contour>
      <contour>
        <pt x="168" y="420" on="0"/>
        <pt x="193" y="372" on="0"/>
        <pt x="224" y="372" on="1"/>
        <pt x="255" y="372" on="0"/>
        <pt x="280" y="420" on="0"/>
        <pt x="280" y="480" on="1"/>
        <pt x="280" y="539" on="0"/>
        <pt x="255" y="588" on="0"/>
        <pt x="224" y="588" on="1"/>
        <pt x="193" y="588" on="0"/>
        <pt x="168" y="539" on="0"/>
        <pt x="168" y="480" on="1"/>
      </contour>
    </TTGlyph>
    <TTGlyph name="OE" xMin="41" yMin="-10" xMax="825" yMax="650">
      <contour>
        <pt x="41" y="-10" on="0"/>
        <pt x="41" y="319" on="1"/>
        <pt x="41" y="486" on="0"/>
        <pt x="131" y="650" on="0"/>
        <pt x="224" y="650" on="1"/>
        <pt x="319" y="650" on="0"/>
        <pt x="408" y="487" on="0"/>
        <pt x="408" y="319" on="1"/>
        <pt x="408" y="154" on="0"/>
        <pt x="318" y="-10" on="0"/>
        <pt x="224" y="-10" on="1"/>
      </contour>
      <contour>
        <pt x="103" y="172" on="0"/>
        <pt x="159" y="43" on="0"/>
        <pt x="224" y="43" on="1"/>
        <pt x="289" y="43" on="0"/>
        <pt x="346" y="172" on="0"/>
        <pt x="346" y="319" on="1"/>
        <pt x="346" y="467" on="0"/>
        <pt x="289" y="597" on="0"/>
        <pt x="224" y="597" on="1"/>
        <pt x="159" y="597" on="0"/>
        <pt x="103" y="467" on="0"/>
        <pt x="103" y="319" on="1"/>
      </contour>
      <contour>
        <pt x="512" y="640" on="1"/>
        <pt x="815" y="640" on="1"/>
        <pt x="815" y="588" on="1"/>
        <pt x="570" y="588" on="1"/>
        <pt x="570" y="314" on="1"/>
        <pt x="761" y="314" on="1"/>
        <pt x="761" y="262" on="1"/>
        <pt x="570" y="262" on="1"/>
        <pt x="570" y="52" on="1"/>
        <pt x="825" y="52" on="1"/>
        <pt x="825" y="0" on="1"/>
        <pt x="512" y="0" on="1"/>
      </contour>
    </TTGlyph>
    <TTGlyph name="Oacute" xMin="41" yMin="-10" xMax="439" yMax="841">
      <component glyphName="O" x="0" y="0" flags="0x0"/>
      <component glyphName="acutecomb.case" x="16" y="0" flags="0x0"/>
    </TTGlyph>
    <TTGlyph name="Obreve" xMin="41" yMin="-10" xMax="439" yMax="833">
      <component glyphName="O" x="0" y="0" flags="0x0"/>
      <component glyphName="uni0306.case" x="16" y="0" flags="0x0"/>
    </TTGlyph>
    <TTGlyph name="Ocircumflex" xMin="41" yMin="-10" xMax="439" yMax="842">
      <component glyphName="O" x="0" y="0" flags="0x0"/>
      <component glyphName="uni0302.case" x="16" y="0" flags="0x0"/>
    </TTGlyph>
    <TTGlyph name="Odieresis" xMin="41" yMin="-10" xMax="439" yMax="813">
      <component glyphName="O" x="0" y="0" flags="0x0"/>
      <component glyphName="uni0308.case" x="16" y="0" flags="0x0"/>
    </TTGlyph>
    <TTGlyph name="Ograve" xMin="41" yMin="-10" xMax="439" yMax="841">
      <component glyphName="O" x="0" y="0" flags="0x0"/>
      <component glyphName="gravecomb.case" x="16" y="0" flags="0x0"/>
    </TTGlyph>
    <TTGlyph name="Ohorn" xMin="41" yMin="-10" xMax="448" yMax="768">
      <contour>
        <pt x="41" y="-10" on="0"/>
        <pt x="41" y="319" on="1"/>
        <pt x="41" y="486" on="0"/>
        <pt x="140" y="650" on="0"/>
        <pt x="240" y="650" on="1"/>
        <pt x="257" y="650" on="0"/>
        <pt x="291" y="646" on="0"/>
        <pt x="296" y="645" on="1"/>
        <pt x="323" y="640" on="0"/>
        <pt x="346" y="640" on="1"/>
        <pt x="369" y="640" on="0"/>
        <pt x="390" y="664" on="0"/>
        <pt x="390" y="691" on="1"/>
        <pt x="390" y="718" on="0"/>
        <pt x="380" y="768" on="1"/>
        <pt x="436" y="768" on="1"/>
        <pt x="448" y="718" on="0"/>
        <pt x="448" y="685" on="1"/>
        <pt x="448" y="642" on="0"/>
        <pt x="411" y="598" on="0"/>
        <pt x="373" y="593" on="1"/>
        <pt x="407" y="552" on="0"/>
        <pt x="439" y="418" on="0"/>
        <pt x="439" y="319" on="1"/>
        <pt x="439" y="154" on="0"/>
        <pt x="342" y="-10" on="0"/>
        <pt x="240" y="-10" on="1"/>
      </contour>
      <contour>
        <pt x="103" y="172" on="0"/>
        <pt x="167" y="43" on="0"/>
        <pt x="240" y="43" on="1"/>
        <pt x="313" y="43" on="0"/>
        <pt x="377" y="172" on="0"/>
        <pt x="377" y="319" on="1"/>
        <pt x="377" y="467" on="0"/>
        <pt x="313" y="597" on="0"/>
        <pt x="240" y="597" on="1"/>
        <pt x="167" y="597" on="0"/>
        <pt x="103" y="467" on="0"/>
        <pt x="103" y="319" on="1"/>
      </contour>
    </TTGlyph>
    <TTGlyph name="Ohungarumlaut" xMin="41" yMin="-10" xMax="439" yMax="836">
      <component glyphName="O" x="0" y="0" flags="0x0"/>
      <component glyphName="uni030B.case" x="16" y="0" flags="0x0"/>
    </TTGlyph>
    <TTGlyph name="Omacron" xMin="41" yMin="-10" xMax="439" yMax="766">
      <component glyphName="O" x="0" y="0" flags="0x0"/>
      <component glyphName="uni0304.case" x="16" y="0" flags="0x0"/>
    </TTGlyph>
    <TTGlyph name="Omegatonos" xMin="-60" yMin="0" xMax="408" yMax="704">
      <component glyphName="uni03A9" x="0" y="0" flags="0x0"/>
      <component glyphName="tonos" x="-256" y="0" flags="0x0"/>
    </TTGlyph>
    <TTGlyph name="Omicron" xMin="41" yMin="-10" xMax="439" yMax="650">
      <component glyphName="O" x="0" y="0" flags="0x0"/>
    </TTGlyph>
    <TTGlyph name="Omicrontonos" xMin="-60" yMin="-10" xMax="439" yMax="704">
      <component glyphName="O" x="0" y="0" flags="0x0"/>
      <component glyphName="tonos" x="-256" y="0" flags="0x0"/>
    </TTGlyph>
    <TTGlyph name="Oslash" xMin="41" yMin="-11" xMax="439" yMax="652">
      <component glyphName="O" x="0" y="0" flags="0x0"/>
      <component glyphName="slash.O" x="16" y="0" flags="0x0"/>
    </TTGlyph>
    <TTGlyph name="Oslashacute" xMin="41" yMin="-11" xMax="439" yMax="841">
      <component glyphName="Oslash" x="0" y="0" flags="0x0"/>
      <component glyphName="acutecomb.case" x="16" y="0" flags="0x0"/>
    </TTGlyph>
    <TTGlyph name="Otilde" xMin="41" yMin="-10" xMax="439" yMax="837">
      <component glyphName="O" x="0" y="0" flags="0x0"/>
      <component glyphName="tildecomb.case" x="16" y="0" flags="0x0"/>
    </TTGlyph>
    <TTGlyph name="P" xMin="64" yMin="0" xMax="398" yMax="640">
      <contour>
        <pt x="64" y="640" on="1"/>
        <pt x="214" y="640" on="1"/>
        <pt x="298" y="640" on="0"/>
        <pt x="398" y="523" on="0"/>
        <pt x="398" y="417" on="1"/>
        <pt x="398" y="311" on="0"/>
        <pt x="299" y="198" on="0"/>
        <pt x="214" y="198" on="1"/>
        <pt x="122" y="198" on="1"/>
        <pt x="122" y="0" on="1"/>
        <pt x="64" y="0" on="1"/>
      </contour>
      <contour>
        <pt x="210" y="250" on="1"/>
        <pt x="278" y="250" on="0"/>
        <pt x="336" y="337" on="0"/>
        <pt x="336" y="417" on="1"/>
        <pt x="336" y="499" on="0"/>
        <pt x="277" y="588" on="0"/>
        <pt x="209" y="588" on="1"/>
        <pt x="122" y="588" on="1"/>
        <pt x="122" y="250" on="1"/>
      </contour>
    </TTGlyph>
    <TTGlyph name="P.sups" xMin="128" yMin="320" xMax="337" yMax="640">
      <contour>
        <pt x="128" y="640" on="1"/>
        <pt x="232" y="640" on="1"/>
        <pt x="280" y="640" on="0"/>
        <pt x="337" y="589" on="0"/>
        <pt x="337" y="544" on="1"/>
        <pt x="337" y="498" on="0"/>
        <pt x="281" y="448" on="0"/>
        <pt x="234" y="448" on="1"/>
        <pt x="192" y="448" on="1"/>
        <pt x="192" y="320" on="1"/>
        <pt x="128" y="320" on="1"/>
      </contour>
      <contour>
        <pt x="230" y="503" on="1"/>
        <pt x="269" y="503" on="0"/>
        <pt x="269" y="544" on="1"/>
        <pt x="269" y="585" on="0"/>
        <pt x="230" y="585" on="1"/>
        <pt x="192" y="585" on="1"/>
        <pt x="192" y="503" on="1"/>
      </contour>
    </TTGlyph>
    <TTGlyph name="Phi" xMin="64" yMin="0" xMax="384" yMax="640">
      <component glyphName="uni0424" x="0" y="0" flags="0x0"/>
    </TTGlyph>
    <TTGlyph name="Pi" xMin="64" yMin="0" xMax="385" yMax="640">
      <component glyphName="uni041F" x="0" y="0" flags="0x0"/>
    </TTGlyph>
    <TTGlyph name="Psi" xMin="64" yMin="0" xMax="384" yMax="640">
      <contour>
        <pt x="128" y="256" on="1"/>
        <pt x="128" y="320" on="1"/>
        <pt x="192" y="320" on="1"/>
        <pt x="192" y="640" on="1"/>
        <pt x="256" y="640" on="1"/>
        <pt x="256" y="320" on="1"/>
        <pt x="320" y="320" on="1"/>
        <pt x="320" y="256" on="1"/>
        <pt x="256" y="256" on="1"/>
        <pt x="256" y="0" on="1"/>
        <pt x="192" y="0" on="1"/>
        <pt x="192" y="256" on="1"/>
      </contour>
      <contour>
        <pt x="64" y="640" on="1"/>
        <pt x="128" y="640" on="1"/>
        <pt x="128" y="320" on="1"/>
        <pt x="64" y="320" on="1"/>
      </contour>
      <contour>
        <pt x="320" y="640" on="1"/>
        <pt x="384" y="640" on="1"/>
        <pt x="384" y="320" on="1"/>
        <pt x="320" y="320" on="1"/>
      </contour>
    </TTGlyph>
    <TTGlyph name="Q" xMin="41" yMin="-135" xMax="439" yMax="650">
      <contour>
        <pt x="339" y="-133" on="0"/>
        <pt x="246" y="-74" on="0"/>
        <pt x="233" y="-10" on="1"/>
        <pt x="41" y="-4" on="0"/>
        <pt x="41" y="319" on="1"/>
        <pt x="41" y="486" on="0"/>
        <pt x="140" y="650" on="0"/>
        <pt x="240" y="650" on="1"/>
        <pt x="342" y="650" on="0"/>
        <pt x="439" y="487" on="0"/>
        <pt x="439" y="319" on="1"/>
        <pt x="439" y="176" on="0"/>
        <pt x="366" y="15" on="0"/>
        <pt x="290" y="-4" on="1"/>
        <pt x="298" y="-47" on="0"/>
        <pt x="357" y="-78" on="0"/>
        <pt x="425" y="-80" on="1"/>
        <pt x="420" y="-135" on="1"/>
      </contour>
      <contour>
        <pt x="103" y="172" on="0"/>
        <pt x="167" y="43" on="0"/>
        <pt x="240" y="43" on="1"/>
        <pt x="313" y="43" on="0"/>
        <pt x="377" y="172" on="0"/>
        <pt x="377" y="319" on="1"/>
        <pt x="377" y="467" on="0"/>
        <pt x="313" y="597" on="0"/>
        <pt x="240" y="597" on="1"/>
        <pt x="167" y="597" on="0"/>
        <pt x="103" y="467" on="0"/>
        <pt x="103" y="319" on="1"/>
      </contour>
    </TTGlyph>
    <TTGlyph name="Q.sups" xMin="128" yMin="256" xMax="320" yMax="640">
      <contour>
        <pt x="320" y="640" on="1"/>
        <pt x="320" y="320" on="1"/>
        <pt x="256" y="320" on="1"/>
        <pt x="256" y="256" on="1"/>
        <pt x="192" y="256" on="1"/>
        <pt x="192" y="320" on="1"/>
        <pt x="128" y="320" on="1"/>
        <pt x="128" y="640" on="1"/>
      </contour>
      <contour>
        <pt x="256" y="384" on="1"/>
        <pt x="256" y="576" on="1"/>
        <pt x="192" y="576" on="1"/>
        <pt x="192" y="384" on="1"/>
      </contour>
    </TTGlyph>
    <TTGlyph name="R" xMin="64" yMin="0" xMax="408" yMax="640">
      <contour>
        <pt x="299" y="640" on="0"/>
        <pt x="398" y="537" on="0"/>
        <pt x="398" y="444" on="1"/>
        <pt x="398" y="361" on="0"/>
        <pt x="322" y="266" on="0"/>
        <pt x="255" y="255" on="1"/>
        <pt x="319" y="229" on="0"/>
        <pt x="399" y="95" on="0"/>
        <pt x="408" y="0" on="1"/>
        <pt x="348" y="0" on="1"/>
        <pt x="336" y="100" on="0"/>
        <pt x="260" y="214" on="0"/>
        <pt x="183" y="247" on="1"/>
        <pt x="122" y="247" on="1"/>
        <pt x="122" y="0" on="1"/>
        <pt x="64" y="0" on="1"/>
        <pt x="64" y="640" on="1"/>
        <pt x="215" y="640" on="1"/>
      </contour>
      <contour>
        <pt x="212" y="299" on="1"/>
        <pt x="280" y="299" on="0"/>
        <pt x="336" y="373" on="0"/>
        <pt x="336" y="443" on="1"/>
        <pt x="336" y="513" on="0"/>
        <pt x="280" y="588" on="0"/>
        <pt x="212" y="588" on="1"/>
        <pt x="122" y="588" on="1"/>
        <pt x="122" y="299" on="1"/>
      </contour>
    </TTGlyph>
    <TTGlyph name="R.sups" xMin="128" yMin="320" xMax="320" yMax="640">
      <contour>
        <pt x="320" y="640" on="1"/>
        <pt x="320" y="512" on="1"/>
        <pt x="256" y="512" on="1"/>
        <pt x="256" y="576" on="1"/>
        <pt x="192" y="576" on="1"/>
        <pt x="192" y="512" on="1"/>
        <pt x="256" y="512" on="1"/>
        <pt x="256" y="448" on="1"/>
        <pt x="192" y="448" on="1"/>
        <pt x="192" y="320" on="1"/>
        <pt x="128" y="320" on="1"/>
        <pt x="128" y="640" on="1"/>
      </contour>
      <contour>
        <pt x="256" y="448" on="1"/>
        <pt x="320" y="448" on="1"/>
        <pt x="320" y="320" on="1"/>
        <pt x="256" y="320" on="1"/>
      </contour>
    </TTGlyph>
    <TTGlyph name="Racute" xMin="64" yMin="0" xMax="408" yMax="841">
      <component glyphName="R" x="0" y="0" flags="0x0"/>
      <component glyphName="acutecomb.case" x="0" y="0" flags="0x0"/>
    </TTGlyph>
    <TTGlyph name="Rcaron" xMin="64" yMin="0" xMax="408" yMax="839">
      <component glyphName="R" x="0" y="0" flags="0x0"/>
      <component glyphName="uni030C.case" x="0" y="0" flags="0x0"/>
    </TTGlyph>
    <TTGlyph name="Rho" xMin="64" yMin="0" xMax="398" yMax="640">
      <component glyphName="P" x="0" y="0" flags="0x0"/>
    </TTGlyph>
    <TTGlyph name="S" xMin="56" yMin="-8" xMax="387" yMax="648">
      <contour>
        <pt x="129" y="-8" on="0"/>
        <pt x="56" y="17" on="1"/>
        <pt x="71" y="67" on="1"/>
        <pt x="106" y="56" on="0"/>
        <pt x="165" y="44" on="0"/>
        <pt x="201" y="44" on="1"/>
        <pt x="270" y="44" on="0"/>
        <pt x="326" y="95" on="0"/>
        <pt x="326" y="141" on="1"/>
        <pt x="326" y="176" on="0"/>
        <pt x="296" y="222" on="0"/>
        <pt x="252" y="251" on="0"/>
        <pt x="213" y="269" on="1"/>
        <pt x="165" y="292" on="0"/>
        <pt x="105" y="333" on="0"/>
        <pt x="63" y="410" on="0"/>
        <pt x="63" y="470" on="1"/>
        <pt x="63" y="550" on="0"/>
        <pt x="163" y="648" on="0"/>
        <pt x="255" y="648" on="1"/>
        <pt x="284" y="648" on="0"/>
        <pt x="347" y="638" on="0"/>
        <pt x="371" y="630" on="1"/>
        <pt x="358" y="580" on="1"/>
        <pt x="305" y="596" on="0"/>
        <pt x="254" y="596" on="1"/>
        <pt x="124" y="596" on="0"/>
        <pt x="124" y="472" on="1"/>
        <pt x="124" y="428" on="0"/>
        <pt x="159" y="370" on="0"/>
        <pt x="209" y="336" on="0"/>
        <pt x="252" y="315" on="1"/>
        <pt x="296" y="294" on="0"/>
        <pt x="350" y="257" on="0"/>
        <pt x="387" y="194" on="0"/>
        <pt x="387" y="145" on="1"/>
        <pt x="387" y="69" on="0"/>
        <pt x="291" y="-8" on="0"/>
        <pt x="203" y="-8" on="1"/>
      </contour>
    </TTGlyph>
    <TTGlyph name="S.sups" xMin="125" yMin="316" xMax="320" yMax="644">
      <contour>
        <pt x="171" y="316" on="0"/>
        <pt x="125" y="326" on="1"/>
        <pt x="134" y="377" on="1"/>
        <pt x="188" y="370" on="0"/>
        <pt x="208" y="370" on="1"/>
        <pt x="234" y="370" on="0"/>
        <pt x="256" y="390" on="0"/>
        <pt x="256" y="410" on="1"/>
        <pt x="256" y="431" on="0"/>
        <pt x="235" y="447" on="0"/>
        <pt x="201" y="458" on="1"/>
        <pt x="164" y="471" on="0"/>
        <pt x="128" y="512" on="0"/>
        <pt x="128" y="550" on="1"/>
        <pt x="128" y="591" on="0"/>
        <pt x="178" y="644" on="0"/>
        <pt x="234" y="644" on="1"/>
        <pt x="275" y="644" on="0"/>
        <pt x="315" y="634" on="1"/>
        <pt x="305" y="583" on="1"/>
        <pt x="265" y="590" on="0"/>
        <pt x="238" y="590" on="1"/>
        <pt x="192" y="590" on="0"/>
        <pt x="192" y="552" on="1"/>
        <pt x="192" y="533" on="0"/>
        <pt x="212" y="519" on="0"/>
        <pt x="240" y="510" on="1"/>
        <pt x="282" y="497" on="0"/>
        <pt x="320" y="456" on="0"/>
        <pt x="320" y="412" on="1"/>
        <pt x="320" y="367" on="0"/>
        <pt x="266" y="316" on="0"/>
        <pt x="214" y="316" on="1"/>
      </contour>
    </TTGlyph>
    <TTGlyph name="Sacute" xMin="56" yMin="-8" xMax="387" yMax="841">
      <component glyphName="S" x="0" y="0" flags="0x0"/>
      <component glyphName="acutecomb.case" x="0" y="0" flags="0x0"/>
    </TTGlyph>
    <TTGlyph name="Scaron" xMin="56" yMin="-8" xMax="387" yMax="839">
      <component glyphName="S" x="0" y="0" flags="0x0"/>
      <component glyphName="uni030C.case" x="0" y="0" flags="0x0"/>
    </TTGlyph>
    <TTGlyph name="Scedilla" xMin="56" yMin="-172" xMax="387" yMax="648">
      <component glyphName="S" x="0" y="0" flags="0x0"/>
      <component glyphName="uni0327" x="-55" y="20" flags="0x4"/>
    </TTGlyph>
    <TTGlyph name="Scircumflex" xMin="56" yMin="-8" xMax="387" yMax="842">
      <component glyphName="S" x="0" y="0" flags="0x0"/>
      <component glyphName="uni0302.case" x="0" y="0" flags="0x0"/>
    </TTGlyph>
    <TTGlyph name="Sigma" xMin="59" yMin="0" xMax="385" yMax="640">
      <contour>
        <pt x="194" y="320" on="1"/>
        <pt x="71" y="597" on="1"/>
        <pt x="71" y="640" on="1"/>
        <pt x="385" y="640" on="1"/>
        <pt x="385" y="588" on="1"/>
        <pt x="138" y="588" on="1"/>
        <pt x="257" y="320" on="1"/>
        <pt x="126" y="52" on="1"/>
        <pt x="385" y="52" on="1"/>
        <pt x="385" y="0" on="1"/>
        <pt x="59" y="0" on="1"/>
        <pt x="59" y="43" on="1"/>
      </contour>
    </TTGlyph>
    <TTGlyph name="T" xMin="51" yMin="0" xMax="397" yMax="640">
      <contour>
        <pt x="254" y="588" on="1"/>
        <pt x="254" y="0" on="1"/>
        <pt x="194" y="0" on="1"/>
        <pt x="194" y="588" on="1"/>
        <pt x="51" y="588" on="1"/>
        <pt x="51" y="640" on="1"/>
        <pt x="397" y="640" on="1"/>
        <pt x="397" y="588" on="1"/>
      </contour>
    </TTGlyph>
    <TTGlyph name="T.sups" xMin="120" yMin="320" xMax="328" yMax="640">
      <contour>
        <pt x="328" y="584" on="1"/>
        <pt x="256" y="584" on="1"/>
        <pt x="256" y="320" on="1"/>
        <pt x="192" y="320" on="1"/>
        <pt x="192" y="584" on="1"/>
        <pt x="120" y="584" on="1"/>
        <pt x="120" y="640" on="1"/>
        <pt x="328" y="640" on="1"/>
      </contour>
    </TTGlyph>
    <TTGlyph name="Tau" xMin="51" yMin="0" xMax="397" yMax="640">
      <component glyphName="T" x="0" y="0" flags="0x0"/>
    </TTGlyph>
    <TTGlyph name="Tbar" xMin="51" yMin="0" xMax="397" yMax="640">
      <contour>
        <pt x="254" y="261" on="1"/>
        <pt x="254" y="0" on="1"/>
        <pt x="194" y="0" on="1"/>
        <pt x="194" y="261" on="1"/>
        <pt x="88" y="261" on="1"/>
        <pt x="88" y="315" on="1"/>
        <pt x="194" y="315" on="1"/>
        <pt x="194" y="588" on="1"/>
        <pt x="51" y="588" on="1"/>
        <pt x="51" y="640" on="1"/>
        <pt x="397" y="640" on="1"/>
        <pt x="397" y="588" on="1"/>
        <pt x="254" y="588" on="1"/>
        <pt x="254" y="315" on="1"/>
        <pt x="361" y="315" on="1"/>
        <pt x="361" y="261" on="1"/>
      </contour>
    </TTGlyph>
    <TTGlyph name="Tcaron" xMin="51" yMin="0" xMax="397" yMax="839">
      <component glyphName="T" x="0" y="0" flags="0x0"/>
      <component glyphName="uni030C.case" x="0" y="0" flags="0x0"/>
    </TTGlyph>
    <TTGlyph name="Theta" xMin="41" yMin="-10" xMax="439" yMax="650">
      <contour>
        <pt x="41" y="-10" on="0"/>
        <pt x="41" y="319" on="1"/>
        <pt x="41" y="486" on="0"/>
        <pt x="140" y="650" on="0"/>
        <pt x="240" y="650" on="1"/>
        <pt x="342" y="650" on="0"/>
        <pt x="439" y="487" on="0"/>
        <pt x="439" y="319" on="1"/>
        <pt x="439" y="154" on="0"/>
        <pt x="342" y="-10" on="0"/>
        <pt x="240" y="-10" on="1"/>
      </contour>
      <contour>
        <pt x="377" y="317" on="1"/>
        <pt x="377" y="319" on="1"/>
        <pt x="377" y="467" on="0"/>
        <pt x="313" y="597" on="0"/>
        <pt x="240" y="597" on="1"/>
        <pt x="167" y="597" on="0"/>
        <pt x="103" y="467" on="0"/>
        <pt x="103" y="319" on="1"/>
        <pt x="103" y="317" on="1"/>
      </contour>
      <contour>
        <pt x="110" y="145" on="0"/>
        <pt x="175" y="43" on="0"/>
        <pt x="240" y="43" on="1"/>
        <pt x="305" y="43" on="0"/>
        <pt x="370" y="145" on="0"/>
        <pt x="376" y="259" on="1"/>
        <pt x="104" y="259" on="1"/>
      </contour>
    </TTGlyph>
    <TTGlyph name="Thorn" xMin="64" yMin="0" xMax="398" yMax="640">
      <contour>
        <pt x="298" y="506" on="0"/>
        <pt x="398" y="408" on="0"/>
        <pt x="398" y="318" on="1"/>
        <pt x="398" y="228" on="0"/>
        <pt x="299" y="134" on="0"/>
        <pt x="213" y="134" on="1"/>
        <pt x="122" y="134" on="1"/>
        <pt x="122" y="0" on="1"/>
        <pt x="64" y="0" on="1"/>
        <pt x="64" y="640" on="1"/>
        <pt x="122" y="640" on="1"/>
        <pt x="122" y="506" on="1"/>
        <pt x="213" y="506" on="1"/>
      </contour>
      <contour>
        <pt x="209" y="186" on="1"/>
        <pt x="280" y="186" on="0"/>
        <pt x="338" y="255" on="0"/>
        <pt x="338" y="318" on="1"/>
        <pt x="338" y="383" on="0"/>
        <pt x="280" y="454" on="0"/>
        <pt x="209" y="454" on="1"/>
        <pt x="122" y="454" on="1"/>
        <pt x="122" y="186" on="1"/>
      </contour>
    </TTGlyph>
    <TTGlyph name="U" xMin="64" yMin="-10" xMax="417" yMax="640">
      <contour>
        <pt x="122" y="640" on="1"/>
        <pt x="122" y="175" on="1"/>
        <pt x="122" y="112" on="0"/>
        <pt x="176" y="41" on="0"/>
        <pt x="240" y="41" on="1"/>
        <pt x="359" y="41" on="0"/>
        <pt x="359" y="174" on="1"/>
        <pt x="359" y="640" on="1"/>
        <pt x="417" y="640" on="1"/>
        <pt x="417" y="178" on="1"/>
        <pt x="417" y="86" on="0"/>
        <pt x="318" y="-10" on="0"/>
        <pt x="240" y="-10" on="1"/>
        <pt x="163" y="-10" on="0"/>
        <pt x="64" y="85" on="0"/>
        <pt x="64" y="176" on="1"/>
        <pt x="64" y="640" on="1"/>
      </contour>
    </TTGlyph>
    <TTGlyph name="U.sups" xMin="128" yMin="320" xMax="320" yMax="640">
      <contour>
        <pt x="192" y="640" on="1"/>
        <pt x="192" y="384" on="1"/>
        <pt x="128" y="384" on="1"/>
        <pt x="128" y="640" on="1"/>
      </contour>
      <contour>
        <pt x="192" y="384" on="1"/>
        <pt x="256" y="384" on="1"/>
        <pt x="256" y="640" on="1"/>
        <pt x="320" y="640" on="1"/>
        <pt x="320" y="320" on="1"/>
        <pt x="192" y="320" on="1"/>
      </contour>
    </TTGlyph>
    <TTGlyph name="Uacute" xMin="64" yMin="-10" xMax="417" yMax="841">
      <component glyphName="U" x="0" y="0" flags="0x0"/>
      <component glyphName="acutecomb.case" x="16" y="0" flags="0x0"/>
    </TTGlyph>
    <TTGlyph name="Ubreve" xMin="64" yMin="-10" xMax="417" yMax="833">
      <component glyphName="U" x="0" y="0" flags="0x0"/>
      <component glyphName="uni0306.case" x="16" y="0" flags="0x0"/>
    </TTGlyph>
    <TTGlyph name="Ucircumflex" xMin="64" yMin="-10" xMax="417" yMax="842">
      <component glyphName="U" x="0" y="0" flags="0x0"/>
      <component glyphName="uni0302.case" x="16" y="0" flags="0x0"/>
    </TTGlyph>
    <TTGlyph name="Udieresis" xMin="64" yMin="-10" xMax="417" yMax="813">
      <component glyphName="U" x="0" y="0" flags="0x0"/>
      <component glyphName="uni0308.case" x="16" y="0" flags="0x0"/>
    </TTGlyph>
    <TTGlyph name="Ugrave" xMin="64" yMin="-10" xMax="417" yMax="841">
      <component glyphName="U" x="0" y="0" flags="0x0"/>
      <component glyphName="gravecomb.case" x="16" y="0" flags="0x0"/>
    </TTGlyph>
    <TTGlyph name="Uhorn" xMin="64" yMin="-10" xMax="484" yMax="768">
      <component glyphName="U" x="0" y="0" flags="0x0"/>
      <component glyphName="uni031B.case" x="32" y="0" flags="0x0"/>
    </TTGlyph>
    <TTGlyph name="Uhungarumlaut" xMin="64" yMin="-10" xMax="417" yMax="836">
      <component glyphName="U" x="0" y="0" flags="0x0"/>
      <component glyphName="uni030B.case" x="16" y="0" flags="0x0"/>
    </TTGlyph>
    <TTGlyph name="Umacron" xMin="64" yMin="-10" xMax="417" yMax="766">
      <component glyphName="U" x="0" y="0" flags="0x0"/>
      <component glyphName="uni0304.case" x="16" y="0" flags="0x0"/>
    </TTGlyph>
    <TTGlyph name="Uogonek" xMin="64" yMin="-197" xMax="417" yMax="640">
      <component glyphName="U" x="0" y="0" flags="0x0"/>
      <component glyphName="uni0328" x="-80" y="0" flags="0x0"/>
    </TTGlyph>
    <TTGlyph name="Upsilon" xMin="40" yMin="0" xMax="409" yMax="640">
      <component glyphName="Y" x="0" y="0" flags="0x0"/>
    </TTGlyph>
    <TTGlyph name="Upsilondieresis" xMin="40" yMin="0" xMax="409" yMax="813">
      <component glyphName="Y" x="0" y="0" flags="0x0"/>
      <component glyphName="uni0308.case" x="0" y="0" flags="0x0"/>
    </TTGlyph>
    <TTGlyph name="Upsilontonos" xMin="-60" yMin="0" xMax="409" yMax="704">
      <component glyphName="Y" x="0" y="0" flags="0x0"/>
      <component glyphName="tonos" x="-256" y="0" flags="0x0"/>
    </TTGlyph>
    <TTGlyph name="Uring" xMin="64" yMin="-10" xMax="417" yMax="883">
      <component glyphName="U" x="0" y="0" flags="0x0"/>
      <component glyphName="uni030A.case" x="16" y="0" flags="0x0"/>
    </TTGlyph>
    <TTGlyph name="Utilde" xMin="64" yMin="-10" xMax="417" yMax="837">
      <component glyphName="U" x="0" y="0" flags="0x0"/>
      <component glyphName="tildecomb.case" x="16" y="0" flags="0x0"/>
    </TTGlyph>
    <TTGlyph name="V" xMin="39" yMin="-3" xMax="410" yMax="640">
      <contour>
        <pt x="137" y="119" on="0"/>
        <pt x="55" y="453" on="0"/>
        <pt x="39" y="640" on="1"/>
        <pt x="100" y="640" on="1"/>
        <pt x="116" y="468" on="0"/>
        <pt x="179" y="178" on="0"/>
        <pt x="224" y="73" on="1"/>
        <pt x="268" y="178" on="0"/>
        <pt x="333" y="468" on="0"/>
        <pt x="349" y="640" on="1"/>
        <pt x="410" y="640" on="1"/>
        <pt x="393" y="453" on="0"/>
        <pt x="311" y="119" on="0"/>
        <pt x="249" y="-3" on="1"/>
        <pt x="199" y="-3" on="1"/>
      </contour>
    </TTGlyph>
    <TTGlyph name="V.sups" xMin="106" yMin="320" xMax="341" yMax="640">
      <contour>
        <pt x="184" y="515" on="0"/>
        <pt x="224" y="384" on="1"/>
        <pt x="264" y="518" on="0"/>
        <pt x="280" y="640" on="1"/>
        <pt x="341" y="640" on="1"/>
        <pt x="320" y="477" on="0"/>
        <pt x="252" y="320" on="1"/>
        <pt x="196" y="320" on="1"/>
        <pt x="126" y="486" on="0"/>
        <pt x="106" y="640" on="1"/>
        <pt x="168" y="640" on="1"/>
      </contour>
    </TTGlyph>
    <TTGlyph name="W" xMin="43" yMin="0" xMax="405" yMax="640">
      <contour>
        <pt x="78" y="153" on="0"/>
        <pt x="45" y="445" on="0"/>
        <pt x="43" y="640" on="1"/>
        <pt x="101" y="640" on="1"/>
        <pt x="103" y="467" on="0"/>
        <pt x="124" y="207" on="0"/>
        <pt x="148" y="73" on="1"/>
        <pt x="173" y="175" on="0"/>
        <pt x="198" y="355" on="0"/>
        <pt x="198" y="448" on="1"/>
        <pt x="250" y="448" on="1"/>
        <pt x="250" y="356" on="0"/>
        <pt x="275" y="176" on="0"/>
        <pt x="300" y="72" on="1"/>
        <pt x="324" y="208" on="0"/>
        <pt x="345" y="469" on="0"/>
        <pt x="347" y="640" on="1"/>
        <pt x="405" y="640" on="1"/>
        <pt x="403" y="445" on="0"/>
        <pt x="370" y="153" on="0"/>
        <pt x="331" y="0" on="1"/>
        <pt x="277" y="0" on="1"/>
        <pt x="236" y="127" on="0"/>
        <pt x="224" y="256" on="1"/>
        <pt x="218" y="186" on="0"/>
        <pt x="193" y="65" on="0"/>
        <pt x="171" y="0" on="1"/>
        <pt x="117" y="0" on="1"/>
      </contour>
    </TTGlyph>
    <TTGlyph name="W.sups" xMin="128" yMin="320" xMax="320" yMax="640">
      <contour>
        <pt x="192" y="640" on="1"/>
        <pt x="192" y="576" on="1"/>
        <pt x="256" y="576" on="1"/>
        <pt x="256" y="640" on="1"/>
        <pt x="320" y="640" on="1"/>
        <pt x="320" y="320" on="1"/>
        <pt x="128" y="320" on="1"/>
        <pt x="128" y="640" on="1"/>
      </contour>
    </TTGlyph>
    <TTGlyph name="Wacute" xMin="43" yMin="0" xMax="405" yMax="841">
      <component glyphName="W" x="0" y="0" flags="0x0"/>
      <component glyphName="acutecomb.case" x="0" y="0" flags="0x0"/>
    </TTGlyph>
    <TTGlyph name="Wcircumflex" xMin="43" yMin="0" xMax="405" yMax="842">
      <component glyphName="W" x="0" y="0" flags="0x0"/>
      <component glyphName="uni0302.case" x="0" y="0" flags="0x0"/>
    </TTGlyph>
    <TTGlyph name="Wdieresis" xMin="43" yMin="0" xMax="405" yMax="813">
      <component glyphName="W" x="0" y="0" flags="0x0"/>
      <component glyphName="uni0308.case" x="0" y="0" flags="0x0"/>
    </TTGlyph>
    <TTGlyph name="Wgrave" xMin="43" yMin="0" xMax="405" yMax="841">
      <component glyphName="W" x="0" y="0" flags="0x0"/>
      <component glyphName="gravecomb.case" x="0" y="0" flags="0x0"/>
    </TTGlyph>
    <TTGlyph name="X" xMin="51" yMin="0" xMax="397" yMax="640">
      <contour>
        <pt x="70" y="96" on="0"/>
        <pt x="127" y="230" on="0"/>
        <pt x="183" y="301" on="1"/>
        <pt x="124" y="367" on="0"/>
        <pt x="71" y="515" on="0"/>
        <pt x="60" y="640" on="1"/>
        <pt x="118" y="640" on="1"/>
        <pt x="125" y="558" on="0"/>
        <pt x="149" y="452" on="0"/>
        <pt x="190" y="374" on="0"/>
        <pt x="226" y="334" on="1"/>
        <pt x="275" y="388" on="0"/>
        <pt x="320" y="521" on="0"/>
        <pt x="331" y="640" on="1"/>
        <pt x="389" y="640" on="1"/>
        <pt x="377" y="516" on="0"/>
        <pt x="322" y="364" on="0"/>
        <pt x="264" y="298" on="1"/>
        <pt x="322" y="230" on="0"/>
        <pt x="378" y="100" on="0"/>
        <pt x="397" y="0" on="1"/>
        <pt x="337" y="0" on="1"/>
        <pt x="318" y="96" on="0"/>
        <pt x="270" y="206" on="0"/>
        <pt x="221" y="264" on="1"/>
        <pt x="176" y="206" on="0"/>
        <pt x="129" y="92" on="0"/>
        <pt x="111" y="0" on="1"/>
        <pt x="51" y="0" on="1"/>
      </contour>
    </TTGlyph>
    <TTGlyph name="X.sups" xMin="128" yMin="320" xMax="320" yMax="640">
      <contour>
        <pt x="192" y="640" on="1"/>
        <pt x="192" y="512" on="1"/>
        <pt x="128" y="512" on="1"/>
        <pt x="128" y="640" on="1"/>
      </contour>
      <contour>
        <pt x="128" y="448" on="1"/>
        <pt x="192" y="448" on="1"/>
        <pt x="192" y="320" on="1"/>
        <pt x="128" y="320" on="1"/>
      </contour>
      <contour>
        <pt x="192" y="512" on="1"/>
        <pt x="256" y="512" on="1"/>
        <pt x="256" y="448" on="1"/>
        <pt x="192" y="448" on="1"/>
      </contour>
      <contour>
        <pt x="256" y="448" on="1"/>
        <pt x="320" y="448" on="1"/>
        <pt x="320" y="320" on="1"/>
        <pt x="256" y="320" on="1"/>
      </contour>
      <contour>
        <pt x="256" y="640" on="1"/>
        <pt x="320" y="640" on="1"/>
        <pt x="320" y="512" on="1"/>
        <pt x="256" y="512" on="1"/>
      </contour>
    </TTGlyph>
    <TTGlyph name="Xi" xMin="50" yMin="0" xMax="398" yMax="640">
      <contour>
        <pt x="393" y="640" on="1"/>
        <pt x="393" y="588" on="1"/>
        <pt x="55" y="588" on="1"/>
        <pt x="55" y="640" on="1"/>
      </contour>
      <contour>
        <pt x="50" y="52" on="1"/>
        <pt x="398" y="52" on="1"/>
        <pt x="398" y="0" on="1"/>
        <pt x="50" y="0" on="1"/>
      </contour>
      <contour>
        <pt x="104" y="314" on="1"/>
        <pt x="344" y="314" on="1"/>
        <pt x="344" y="262" on="1"/>
        <pt x="104" y="262" on="1"/>
      </contour>
    </TTGlyph>
    <TTGlyph name="Y" xMin="40" yMin="0" xMax="409" yMax="640">
      <contour>
        <pt x="195" y="202" on="1"/>
        <pt x="131" y="285" on="0"/>
        <pt x="56" y="498" on="0"/>
        <pt x="40" y="640" on="1"/>
        <pt x="98" y="640" on="1"/>
        <pt x="113" y="516" on="0"/>
        <pt x="171" y="332" on="0"/>
        <pt x="224" y="241" on="1"/>
        <pt x="277" y="331" on="0"/>
        <pt x="335" y="515" on="0"/>
        <pt x="351" y="640" on="1"/>
        <pt x="409" y="640" on="1"/>
        <pt x="393" y="498" on="0"/>
        <pt x="316" y="285" on="0"/>
        <pt x="253" y="202" on="1"/>
        <pt x="253" y="0" on="1"/>
        <pt x="195" y="0" on="1"/>
      </contour>
    </TTGlyph>
    <TTGlyph name="Y.sups" xMin="128" yMin="320" xMax="320" yMax="640">
      <contour>
        <pt x="192" y="640" on="1"/>
        <pt x="192" y="512" on="1"/>
        <pt x="256" y="512" on="1"/>
        <pt x="256" y="640" on="1"/>
        <pt x="320" y="640" on="1"/>
        <pt x="320" y="384" on="1"/>
        <pt x="256" y="384" on="1"/>
        <pt x="256" y="448" on="1"/>
        <pt x="128" y="448" on="1"/>
        <pt x="128" y="640" on="1"/>
      </contour>
      <contour>
        <pt x="128" y="384" on="1"/>
        <pt x="256" y="384" on="1"/>
        <pt x="256" y="320" on="1"/>
        <pt x="128" y="320" on="1"/>
      </contour>
    </TTGlyph>
    <TTGlyph name="Yacute" xMin="40" yMin="0" xMax="409" yMax="841">
      <component glyphName="Y" x="0" y="0" flags="0x0"/>
      <component glyphName="acutecomb.case" x="0" y="0" flags="0x0"/>
    </TTGlyph>
    <TTGlyph name="Ycircumflex" xMin="40" yMin="0" xMax="409" yMax="842">
      <component glyphName="Y" x="0" y="0" flags="0x0"/>
      <component glyphName="uni0302.case" x="0" y="0" flags="0x0"/>
    </TTGlyph>
    <TTGlyph name="Ydieresis" xMin="40" yMin="0" xMax="409" yMax="813">
      <component glyphName="Y" x="0" y="0" flags="0x0"/>
      <component glyphName="uni0308.case" x="0" y="0" flags="0x0"/>
    </TTGlyph>
    <TTGlyph name="Ygrave" xMin="40" yMin="0" xMax="409" yMax="841">
      <component glyphName="Y" x="0" y="0" flags="0x0"/>
      <component glyphName="gravecomb.case" x="0" y="0" flags="0x0"/>
    </TTGlyph>
    <TTGlyph name="Z" xMin="59" yMin="0" xMax="385" yMax="640">
      <contour>
        <pt x="59" y="43" on="1"/>
        <pt x="317" y="588" on="1"/>
        <pt x="71" y="588" on="1"/>
        <pt x="71" y="640" on="1"/>
        <pt x="385" y="640" on="1"/>
        <pt x="385" y="597" on="1"/>
        <pt x="126" y="52" on="1"/>
        <pt x="385" y="52" on="1"/>
        <pt x="385" y="0" on="1"/>
        <pt x="59" y="0" on="1"/>
      </contour>
    </TTGlyph>
    <TTGlyph name="Z.sups" xMin="128" yMin="320" xMax="320" yMax="640">
      <contour>
        <pt x="320" y="640" on="1"/>
        <pt x="320" y="512" on="1"/>
        <pt x="256" y="512" on="1"/>
        <pt x="256" y="576" on="1"/>
        <pt x="128" y="576" on="1"/>
        <pt x="128" y="640" on="1"/>
      </contour>
      <contour>
        <pt x="128" y="448" on="1"/>
        <pt x="192" y="448" on="1"/>
        <pt x="192" y="384" on="1"/>
        <pt x="320" y="384" on="1"/>
        <pt x="320" y="320" on="1"/>
        <pt x="128" y="320" on="1"/>
      </contour>
      <contour>
        <pt x="192" y="512" on="1"/>
        <pt x="256" y="512" on="1"/>
        <pt x="256" y="448" on="1"/>
        <pt x="192" y="448" on="1"/>
      </contour>
    </TTGlyph>
    <TTGlyph name="Zacute" xMin="59" yMin="0" xMax="385" yMax="841">
      <component glyphName="Z" x="0" y="0" flags="0x0"/>
      <component glyphName="acutecomb.case" x="0" y="0" flags="0x0"/>
    </TTGlyph>
    <TTGlyph name="Zcaron" xMin="59" yMin="0" xMax="385" yMax="839">
      <component glyphName="Z" x="0" y="0" flags="0x0"/>
      <component glyphName="uni030C.case" x="0" y="0" flags="0x0"/>
    </TTGlyph>
    <TTGlyph name="Zdotaccent" xMin="59" yMin="0" xMax="385" yMax="839">
      <component glyphName="Z" x="0" y="0" flags="0x0"/>
      <component glyphName="uni0307" x="0" y="192" flags="0x4"/>
    </TTGlyph>
    <TTGlyph name="Zeta" xMin="59" yMin="0" xMax="385" yMax="640">
      <component glyphName="Z" x="0" y="0" flags="0x0"/>
    </TTGlyph>
    <TTGlyph name="_part.slash.comp" xMin="73" yMin="148" xMax="375" yMax="390">
      <contour>
        <pt x="339" y="390" on="1"/>
        <pt x="375" y="338" on="1"/>
        <pt x="109" y="148" on="1"/>
        <pt x="73" y="200" on="1"/>
      </contour>
    </TTGlyph>
    <TTGlyph name="a" xMin="43" yMin="-4" xMax="358" yMax="452">
      <contour>
        <pt x="298" y="49" on="1"/>
        <pt x="261" y="24" on="0"/>
        <pt x="196" y="-4" on="0"/>
        <pt x="160" y="-4" on="1"/>
        <pt x="110" y="-4" on="0"/>
        <pt x="43" y="59" on="0"/>
        <pt x="43" y="116" on="1"/>
        <pt x="43" y="185" on="0"/>
        <pt x="168" y="260" on="0"/>
        <pt x="296" y="262" on="1"/>
        <pt x="296" y="293" on="1"/>
        <pt x="296" y="353" on="0"/>
        <pt x="255" y="399" on="0"/>
        <pt x="205" y="399" on="1"/>
        <pt x="152" y="399" on="0"/>
        <pt x="78" y="372" on="1"/>
        <pt x="62" y="418" on="1"/>
        <pt x="138" y="452" on="0"/>
        <pt x="210" y="452" on="1"/>
        <pt x="354" y="452" on="0"/>
        <pt x="354" y="307" on="1"/>
        <pt x="354" y="64" on="1"/>
        <pt x="358" y="0" on="1"/>
        <pt x="303" y="0" on="1"/>
      </contour>
      <contour>
        <pt x="105" y="86" on="0"/>
        <pt x="137" y="49" on="0"/>
        <pt x="167" y="49" on="1"/>
        <pt x="198" y="49" on="0"/>
        <pt x="259" y="75" on="0"/>
        <pt x="296" y="101" on="1"/>
        <pt x="296" y="212" on="1"/>
        <pt x="193" y="210" on="0"/>
        <pt x="105" y="164" on="0"/>
        <pt x="105" y="118" on="1"/>
      </contour>
    </TTGlyph>
    <TTGlyph name="aacute" xMin="43" yMin="-4" xMax="358" yMax="649">
      <component glyphName="a" x="0" y="0" flags="0x0"/>
      <component glyphName="acutecomb" x="-13" y="0" flags="0x0"/>
    </TTGlyph>
    <TTGlyph name="abreve" xMin="43" yMin="-4" xMax="358" yMax="641">
      <component glyphName="a" x="0" y="0" flags="0x0"/>
      <component glyphName="uni0306" x="-13" y="0" flags="0x0"/>
    </TTGlyph>
    <TTGlyph name="acircumflex" xMin="43" yMin="-4" xMax="358" yMax="650">
      <component glyphName="a" x="0" y="0" flags="0x0"/>
      <component glyphName="uni0302" x="-13" y="0" flags="0x0"/>
    </TTGlyph>
    <TTGlyph name="acute" xMin="155" yMin="384" xMax="307" yMax="640">
      <contour>
        <pt x="155" y="384" on="1"/>
        <pt x="220" y="640" on="1"/>
        <pt x="307" y="640" on="1"/>
        <pt x="215" y="384" on="1"/>
      </contour>
    </TTGlyph>
    <TTGlyph name="acutecomb" xMin="198" yMin="513" xMax="328" yMax="649">
      <contour>
        <pt x="251" y="649" on="1"/>
        <pt x="328" y="649" on="1"/>
        <pt x="250" y="513" on="1"/>
        <pt x="198" y="513" on="1"/>
      </contour>
    </TTGlyph>
    <TTGlyph name="acutecomb.case" xMin="198" yMin="705" xMax="328" yMax="841">
      <component glyphName="acutecomb" x="0" y="192" flags="0x4"/>
    </TTGlyph>
    <TTGlyph name="adieresis" xMin="43" yMin="-4" xMax="358" yMax="645">
      <component glyphName="a" x="0" y="0" flags="0x0"/>
      <component glyphName="uni0308" x="-13" y="0" flags="0x0"/>
    </TTGlyph>
    <TTGlyph name="ae" xMin="54" yMin="-11" xMax="648" yMax="459">
      <contour>
        <pt x="402" y="-11" on="0"/>
        <pt x="355" y="50" on="1"/>
        <pt x="311" y="23" on="0"/>
        <pt x="232" y="-8" on="0"/>
        <pt x="187" y="-8" on="1"/>
        <pt x="129" y="-8" on="0"/>
        <pt x="54" y="56" on="0"/>
        <pt x="54" y="115" on="1"/>
        <pt x="54" y="186" on="0"/>
        <pt x="175" y="260" on="0"/>
        <pt x="312" y="264" on="1"/>
        <pt x="312" y="285" on="1"/>
        <pt x="312" y="344" on="0"/>
        <pt x="271" y="390" on="0"/>
        <pt x="220" y="390" on="1"/>
        <pt x="169" y="390" on="0"/>
        <pt x="98" y="363" on="1"/>
        <pt x="77" y="421" on="1"/>
        <pt x="151" y="455" on="0"/>
        <pt x="220" y="455" on="1"/>
        <pt x="321" y="455" on="0"/>
        <pt x="355" y="389" on="1"/>
        <pt x="397" y="459" on="0"/>
        <pt x="484" y="459" on="1"/>
        <pt x="563" y="459" on="0"/>
        <pt x="648" y="343" on="0"/>
        <pt x="648" y="241" on="1"/>
        <pt x="648" y="229" on="0"/>
        <pt x="646" y="201" on="1"/>
        <pt x="385" y="201" on="1"/>
        <pt x="388" y="119" on="0"/>
        <pt x="439" y="53" on="0"/>
        <pt x="501" y="53" on="1"/>
        <pt x="549" y="53" on="0"/>
        <pt x="616" y="76" on="1"/>
        <pt x="630" y="18" on="1"/>
        <pt x="565" y="-11" on="0"/>
        <pt x="497" y="-11" on="1"/>
      </contour>
      <contour>
        <pt x="130" y="90" on="0"/>
        <pt x="162" y="56" on="0"/>
        <pt x="195" y="56" on="1"/>
        <pt x="252" y="56" on="0"/>
        <pt x="327" y="103" on="1"/>
        <pt x="313" y="143" on="0"/>
        <pt x="310" y="202" on="1"/>
        <pt x="212" y="199" on="0"/>
        <pt x="130" y="159" on="0"/>
        <pt x="130" y="119" on="1"/>
      </contour>
      <contour>
        <pt x="572" y="263" on="1"/>
        <pt x="570" y="331" on="0"/>
        <pt x="524" y="395" on="0"/>
        <pt x="479" y="395" on="1"/>
        <pt x="434" y="395" on="0"/>
        <pt x="390" y="334" on="0"/>
        <pt x="386" y="263" on="1"/>
      </contour>
    </TTGlyph>
    <TTGlyph name="aeacute" xMin="54" yMin="-11" xMax="648" yMax="649">
      <component glyphName="ae" x="0" y="0" flags="0x0"/>
      <component glyphName="acutecomb" x="128" y="0" flags="0x0"/>
    </TTGlyph>
    <TTGlyph name="agrave" xMin="43" yMin="-4" xMax="358" yMax="649">
      <component glyphName="a" x="0" y="0" flags="0x0"/>
      <component glyphName="gravecomb" x="-13" y="0" flags="0x0"/>
    </TTGlyph>
    <TTGlyph name="alpha" xMin="51" yMin="-8" xMax="400" yMax="456">
      <contour>
        <pt x="129" y="130" on="0"/>
        <pt x="162" y="56" on="0"/>
        <pt x="199" y="56" on="1"/>
        <pt x="236" y="56" on="0"/>
        <pt x="299" y="142" on="0"/>
        <pt x="313" y="224" on="1"/>
        <pt x="299" y="306" on="0"/>
        <pt x="236" y="392" on="0"/>
        <pt x="199" y="392" on="1"/>
        <pt x="162" y="392" on="0"/>
        <pt x="129" y="318" on="0"/>
        <pt x="129" y="224" on="1"/>
      </contour>
      <contour>
        <pt x="51" y="331" on="0"/>
        <pt x="118" y="456" on="0"/>
        <pt x="194" y="456" on="1"/>
        <pt x="272" y="456" on="0"/>
        <pt x="325" y="364" on="1"/>
        <pt x="328" y="451" on="1"/>
        <pt x="400" y="446" on="1"/>
        <pt x="393" y="357" on="1"/>
        <pt x="387" y="279" on="0"/>
        <pt x="374" y="224" on="1"/>
        <pt x="387" y="169" on="0"/>
        <pt x="393" y="91" on="1"/>
        <pt x="400" y="2" on="1"/>
        <pt x="328" y="-3" on="1"/>
        <pt x="325" y="84" on="1"/>
        <pt x="272" y="-8" on="0"/>
        <pt x="194" y="-8" on="1"/>
        <pt x="118" y="-8" on="0"/>
        <pt x="51" y="117" on="0"/>
        <pt x="51" y="224" on="1"/>
      </contour>
    </TTGlyph>
    <TTGlyph name="alphatonos" xMin="51" yMin="-8" xMax="400" yMax="704">
      <component glyphName="alpha" x="0" y="0" flags="0x0"/>
      <component glyphName="tonos" x="0" y="0" flags="0x0"/>
    </TTGlyph>
    <TTGlyph name="amacron" xMin="43" yMin="-4" xMax="358" yMax="622">
      <component glyphName="a" x="0" y="0" flags="0x0"/>
      <component glyphName="uni0304" x="-13" y="0" flags="0x0"/>
    </TTGlyph>
    <TTGlyph name="ampersand" xMin="39" yMin="-10" xMax="425" yMax="542">
      <contour>
        <pt x="253" y="490" on="0"/>
        <pt x="210" y="490" on="1"/>
        <pt x="158" y="490" on="0"/>
        <pt x="112" y="440" on="0"/>
        <pt x="112" y="402" on="1"/>
        <pt x="112" y="314" on="0"/>
        <pt x="218" y="314" on="1"/>
        <pt x="425" y="314" on="1"/>
        <pt x="425" y="262" on="1"/>
        <pt x="365" y="262" on="1"/>
        <pt x="365" y="18" on="1"/>
        <pt x="327" y="5" on="0"/>
        <pt x="242" y="-10" on="0"/>
        <pt x="208" y="-10" on="1"/>
        <pt x="119" y="-10" on="0"/>
        <pt x="39" y="76" on="0"/>
        <pt x="39" y="144" on="1"/>
        <pt x="39" y="187" on="0"/>
        <pt x="83" y="265" on="0"/>
        <pt x="134" y="288" on="1"/>
        <pt x="94" y="304" on="0"/>
        <pt x="54" y="364" on="0"/>
        <pt x="54" y="403" on="1"/>
        <pt x="54" y="466" on="0"/>
        <pt x="136" y="542" on="0"/>
        <pt x="214" y="542" on="1"/>
        <pt x="268" y="542" on="0"/>
        <pt x="316" y="530" on="1"/>
        <pt x="307" y="481" on="1"/>
      </contour>
      <contour>
        <pt x="98" y="99" on="0"/>
        <pt x="145" y="42" on="0"/>
        <pt x="202" y="42" on="1"/>
        <pt x="258" y="42" on="0"/>
        <pt x="307" y="54" on="1"/>
        <pt x="307" y="262" on="1"/>
        <pt x="230" y="262" on="1"/>
        <pt x="158" y="262" on="0"/>
        <pt x="98" y="194" on="0"/>
        <pt x="98" y="144" on="1"/>
      </contour>
    </TTGlyph>
    <TTGlyph name="angle" xMin="64" yMin="64" xMax="384" yMax="522">
      <contour>
        <pt x="64" y="64" on="1"/>
        <pt x="64" y="128" on="1"/>
        <pt x="258" y="522" on="1"/>
        <pt x="316" y="494" on="1"/>
        <pt x="136" y="128" on="1"/>
        <pt x="384" y="128" on="1"/>
        <pt x="384" y="64" on="1"/>
      </contour>
    </TTGlyph>
    <TTGlyph name="anoteleia" xMin="103" yMin="344" xMax="217" yMax="458">
      <component glyphName="period" x="32" y="354" flags="0x4"/>
    </TTGlyph>
    <TTGlyph name="aogonek" xMin="43" yMin="-197" xMax="378" yMax="452">
      <component glyphName="a" x="0" y="0" flags="0x0"/>
      <component glyphName="uni0328" x="-20" y="0" flags="0x0"/>
    </TTGlyph>
    <TTGlyph name="approxequal" xMin="31" yMin="151" xMax="417" yMax="425">
      <contour>
        <pt x="283" y="151" on="0"/>
        <pt x="237" y="171" on="0"/>
        <pt x="208" y="190" on="1"/>
        <pt x="184" y="205" on="0"/>
        <pt x="152" y="220" on="0"/>
        <pt x="134" y="220" on="1"/>
        <pt x="110" y="220" on="0"/>
        <pt x="84" y="188" on="0"/>
        <pt x="79" y="154" on="1"/>
        <pt x="31" y="158" on="1"/>
        <pt x="46" y="270" on="0"/>
        <pt x="134" y="270" on="1"/>
        <pt x="165" y="270" on="0"/>
        <pt x="211" y="250" on="0"/>
        <pt x="240" y="231" on="1"/>
        <pt x="264" y="216" on="0"/>
        <pt x="296" y="201" on="0"/>
        <pt x="314" y="201" on="1"/>
        <pt x="338" y="201" on="0"/>
        <pt x="364" y="233" on="0"/>
        <pt x="369" y="267" on="1"/>
        <pt x="417" y="262" on="1"/>
        <pt x="402" y="151" on="0"/>
        <pt x="314" y="151" on="1"/>
      </contour>
      <contour>
        <pt x="45" y="425" on="0"/>
        <pt x="134" y="425" on="1"/>
        <pt x="165" y="425" on="0"/>
        <pt x="211" y="405" on="0"/>
        <pt x="240" y="386" on="1"/>
        <pt x="264" y="371" on="0"/>
        <pt x="296" y="356" on="0"/>
        <pt x="314" y="356" on="1"/>
        <pt x="338" y="356" on="0"/>
        <pt x="364" y="388" on="0"/>
        <pt x="369" y="422" on="1"/>
        <pt x="417" y="418" on="1"/>
        <pt x="402" y="306" on="0"/>
        <pt x="314" y="306" on="1"/>
        <pt x="283" y="306" on="0"/>
        <pt x="237" y="326" on="0"/>
        <pt x="208" y="345" on="1"/>
        <pt x="184" y="360" on="0"/>
        <pt x="152" y="375" on="0"/>
        <pt x="134" y="375" on="1"/>
        <pt x="110" y="375" on="0"/>
        <pt x="84" y="343" on="0"/>
        <pt x="79" y="309" on="1"/>
        <pt x="31" y="314" on="1"/>
      </contour>
    </TTGlyph>
    <TTGlyph name="aring" xMin="43" yMin="-4" xMax="358" yMax="691">
      <component glyphName="a" x="0" y="0" flags="0x0"/>
      <component glyphName="uni030A" x="-13" y="0" flags="0x0"/>
    </TTGlyph>
    <TTGlyph name="aringacute" xMin="43" yMin="-4" xMax="358" yMax="873">
      <component glyphName="a" x="0" y="0" flags="0x0"/>
      <component glyphName="uni030A" x="-13" y="0" flags="0x0"/>
      <component glyphName="acutecomb" x="-13" y="224" flags="0x4"/>
    </TTGlyph>
    <TTGlyph name="arrowboth" xMin="-10" yMin="118" xMax="458" yMax="458">
      <contour>
        <pt x="207" y="162" on="1"/>
        <pt x="169" y="118" on="1"/>
        <pt x="-10" y="266" on="1"/>
        <pt x="-10" y="310" on="1"/>
        <pt x="169" y="458" on="1"/>
        <pt x="207" y="414" on="1"/>
        <pt x="98" y="320" on="1"/>
        <pt x="350" y="320" on="1"/>
        <pt x="241" y="414" on="1"/>
        <pt x="279" y="458" on="1"/>
        <pt x="458" y="310" on="1"/>
        <pt x="458" y="266" on="1"/>
        <pt x="279" y="118" on="1"/>
        <pt x="241" y="162" on="1"/>
        <pt x="350" y="256" on="1"/>
        <pt x="98" y="256" on="1"/>
      </contour>
    </TTGlyph>
    <TTGlyph name="arrowdown" xMin="54" yMin="54" xMax="394" yMax="512">
      <contour>
        <pt x="54" y="233" on="1"/>
        <pt x="89" y="263" on="1"/>
        <pt x="197" y="142" on="1"/>
        <pt x="197" y="512" on="1"/>
        <pt x="251" y="512" on="1"/>
        <pt x="251" y="142" on="1"/>
        <pt x="359" y="263" on="1"/>
        <pt x="394" y="233" on="1"/>
        <pt x="242" y="54" on="1"/>
        <pt x="206" y="54" on="1"/>
      </contour>
    </TTGlyph>
    <TTGlyph name="arrowleft" xMin="-10" yMin="118" xMax="448" yMax="458">
      <contour>
        <pt x="-10" y="270" on="1"/>
        <pt x="-10" y="306" on="1"/>
        <pt x="169" y="458" on="1"/>
        <pt x="199" y="423" on="1"/>
        <pt x="78" y="315" on="1"/>
        <pt x="448" y="315" on="1"/>
        <pt x="448" y="261" on="1"/>
        <pt x="78" y="261" on="1"/>
        <pt x="199" y="153" on="1"/>
        <pt x="169" y="118" on="1"/>
      </contour>
    </TTGlyph>
    <TTGlyph name="arrowright" xMin="0" yMin="118" xMax="458" yMax="458">
      <contour>
        <pt x="249" y="153" on="1"/>
        <pt x="370" y="261" on="1"/>
        <pt x="0" y="261" on="1"/>
        <pt x="0" y="315" on="1"/>
        <pt x="370" y="315" on="1"/>
        <pt x="249" y="423" on="1"/>
        <pt x="279" y="458" on="1"/>
        <pt x="458" y="306" on="1"/>
        <pt x="458" y="270" on="1"/>
        <pt x="279" y="118" on="1"/>
      </contour>
    </TTGlyph>
    <TTGlyph name="arrowup" xMin="54" yMin="64" xMax="394" yMax="522">
      <contour>
        <pt x="89" y="313" on="1"/>
        <pt x="54" y="343" on="1"/>
        <pt x="206" y="522" on="1"/>
        <pt x="242" y="522" on="1"/>
        <pt x="394" y="343" on="1"/>
        <pt x="359" y="313" on="1"/>
        <pt x="251" y="434" on="1"/>
        <pt x="251" y="64" on="1"/>
        <pt x="197" y="64" on="1"/>
        <pt x="197" y="434" on="1"/>
      </contour>
    </TTGlyph>
    <TTGlyph name="arrowupdn" xMin="54" yMin="54" xMax="394" yMax="522">
      <contour>
        <pt x="98" y="305" on="1"/>
        <pt x="54" y="343" on="1"/>
        <pt x="202" y="522" on="1"/>
        <pt x="246" y="522" on="1"/>
        <pt x="394" y="343" on="1"/>
        <pt x="350" y="305" on="1"/>
        <pt x="256" y="414" on="1"/>
        <pt x="256" y="162" on="1"/>
        <pt x="350" y="271" on="1"/>
        <pt x="394" y="233" on="1"/>
        <pt x="246" y="54" on="1"/>
        <pt x="202" y="54" on="1"/>
        <pt x="54" y="233" on="1"/>
        <pt x="98" y="271" on="1"/>
        <pt x="192" y="162" on="1"/>
        <pt x="192" y="414" on="1"/>
      </contour>
    </TTGlyph>
    <TTGlyph name="arrowupdnbse" xMin="54" yMin="0" xMax="394" yMax="522">
      <contour>
        <pt x="194" y="64" on="1"/>
        <pt x="54" y="233" on="1"/>
        <pt x="98" y="271" on="1"/>
        <pt x="192" y="162" on="1"/>
        <pt x="192" y="414" on="1"/>
        <pt x="98" y="305" on="1"/>
        <pt x="54" y="343" on="1"/>
        <pt x="202" y="522" on="1"/>
        <pt x="246" y="522" on="1"/>
        <pt x="394" y="343" on="1"/>
        <pt x="350" y="305" on="1"/>
        <pt x="256" y="414" on="1"/>
        <pt x="256" y="162" on="1"/>
        <pt x="350" y="271" on="1"/>
        <pt x="394" y="233" on="1"/>
        <pt x="254" y="64" on="1"/>
        <pt x="384" y="64" on="1"/>
        <pt x="384" y="0" on="1"/>
        <pt x="64" y="0" on="1"/>
        <pt x="64" y="64" on="1"/>
      </contour>
    </TTGlyph>
    <TTGlyph name="asciicircum" xMin="52" yMin="192" xMax="397" yMax="566">
      <contour>
        <pt x="261" y="566" on="1"/>
        <pt x="397" y="192" on="1"/>
        <pt x="336" y="192" on="1"/>
        <pt x="224" y="509" on="1"/>
        <pt x="112" y="192" on="1"/>
        <pt x="52" y="192" on="1"/>
        <pt x="187" y="566" on="1"/>
      </contour>
    </TTGlyph>
    <TTGlyph name="asciitilde" xMin="-4" yMin="192" xMax="452" yMax="384">
      <contour>
        <pt x="285" y="192" on="0"/>
        <pt x="230" y="234" on="0"/>
        <pt x="199" y="273" on="1"/>
        <pt x="176" y="303" on="0"/>
        <pt x="141" y="332" on="0"/>
        <pt x="118" y="332" on="1"/>
        <pt x="82" y="332" on="0"/>
        <pt x="54" y="275" on="0"/>
        <pt x="48" y="207" on="1"/>
        <pt x="-4" y="210" on="1"/>
        <pt x="1" y="298" on="0"/>
        <pt x="58" y="384" on="0"/>
        <pt x="120" y="384" on="1"/>
        <pt x="164" y="384" on="0"/>
        <pt x="218" y="343" on="0"/>
        <pt x="249" y="303" on="1"/>
        <pt x="272" y="273" on="0"/>
        <pt x="307" y="244" on="0"/>
        <pt x="330" y="244" on="1"/>
        <pt x="366" y="244" on="0"/>
        <pt x="394" y="301" on="0"/>
        <pt x="400" y="370" on="1"/>
        <pt x="452" y="367" on="1"/>
        <pt x="447" y="278" on="0"/>
        <pt x="391" y="192" on="0"/>
        <pt x="329" y="192" on="1"/>
      </contour>
    </TTGlyph>
    <TTGlyph name="asterisk" xMin="45" yMin="78" xMax="403" yMax="499">
      <contour>
        <pt x="264" y="288" on="1"/>
        <pt x="403" y="175" on="1"/>
        <pt x="366" y="131" on="1"/>
        <pt x="249" y="232" on="1"/>
        <pt x="253" y="78" on="1"/>
        <pt x="195" y="78" on="1"/>
        <pt x="199" y="233" on="1"/>
        <pt x="82" y="131" on="1"/>
        <pt x="45" y="175" on="1"/>
        <pt x="184" y="288" on="1"/>
        <pt x="45" y="401" on="1"/>
        <pt x="82" y="445" on="1"/>
        <pt x="199" y="344" on="1"/>
        <pt x="195" y="499" on="1"/>
        <pt x="253" y="499" on="1"/>
        <pt x="249" y="343" on="1"/>
        <pt x="366" y="445" on="1"/>
        <pt x="403" y="401" on="1"/>
      </contour>
    </TTGlyph>
    <TTGlyph name="at" xMin="55" yMin="-128" xMax="381" yMax="586">
      <contour>
        <pt x="350" y="67" on="0"/>
        <pt x="303" y="67" on="1"/>
        <pt x="241" y="67" on="0"/>
        <pt x="173" y="147" on="0"/>
        <pt x="173" y="220" on="1"/>
        <pt x="173" y="290" on="0"/>
        <pt x="244" y="372" on="0"/>
        <pt x="323" y="384" on="1"/>
        <pt x="323" y="461" on="0"/>
        <pt x="282" y="533" on="0"/>
        <pt x="231" y="533" on="1"/>
        <pt x="188" y="533" on="0"/>
        <pt x="136" y="470" on="0"/>
        <pt x="113" y="336" on="0"/>
        <pt x="113" y="223" on="1"/>
        <pt x="113" y="60" on="0"/>
        <pt x="179" y="-76" on="0"/>
        <pt x="246" y="-76" on="1"/>
        <pt x="281" y="-76" on="0"/>
        <pt x="325" y="-64" on="1"/>
        <pt x="337" y="-110" on="1"/>
        <pt x="292" y="-128" on="0"/>
        <pt x="244" y="-128" on="1"/>
        <pt x="143" y="-128" on="0"/>
        <pt x="55" y="39" on="0"/>
        <pt x="55" y="223" on="1"/>
        <pt x="55" y="409" on="0"/>
        <pt x="137" y="586" on="0"/>
        <pt x="233" y="586" on="1"/>
        <pt x="307" y="586" on="0"/>
        <pt x="381" y="478" on="0"/>
        <pt x="381" y="383" on="1"/>
        <pt x="381" y="77" on="1"/>
      </contour>
      <contour>
        <pt x="233" y="172" on="0"/>
        <pt x="266" y="120" on="0"/>
        <pt x="305" y="120" on="1"/>
        <pt x="317" y="120" on="0"/>
        <pt x="323" y="121" on="1"/>
        <pt x="323" y="332" on="1"/>
        <pt x="271" y="324" on="0"/>
        <pt x="233" y="272" on="0"/>
        <pt x="233" y="220" on="1"/>
      </contour>
    </TTGlyph>
    <TTGlyph name="atilde" xMin="43" yMin="-4" xMax="360" yMax="645">
      <component glyphName="a" x="0" y="0" flags="0x0"/>
      <component glyphName="tildecomb" x="-13" y="0" flags="0x0"/>
    </TTGlyph>
    <TTGlyph name="b" xMin="62" yMin="-8" xMax="394" yMax="640">
      <contour>
        <pt x="159" y="-8" on="0"/>
        <pt x="118" y="38" on="1"/>
        <pt x="113" y="0" on="1"/>
        <pt x="62" y="0" on="1"/>
        <pt x="64" y="63" on="1"/>
        <pt x="64" y="640" on="1"/>
        <pt x="122" y="640" on="1"/>
        <pt x="122" y="415" on="1"/>
        <pt x="163" y="456" on="0"/>
        <pt x="226" y="456" on="1"/>
        <pt x="314" y="456" on="0"/>
        <pt x="394" y="323" on="0"/>
        <pt x="394" y="224" on="1"/>
        <pt x="394" y="125" on="0"/>
        <pt x="314" y="-8" on="0"/>
        <pt x="226" y="-8" on="1"/>
      </contour>
      <contour>
        <pt x="159" y="43" on="0"/>
        <pt x="220" y="43" on="1"/>
        <pt x="279" y="43" on="0"/>
        <pt x="330" y="129" on="0"/>
        <pt x="330" y="224" on="1"/>
        <pt x="330" y="319" on="0"/>
        <pt x="279" y="405" on="0"/>
        <pt x="222" y="405" on="1"/>
        <pt x="159" y="405" on="0"/>
        <pt x="122" y="358" on="1"/>
        <pt x="122" y="90" on="1"/>
      </contour>
    </TTGlyph>
    <TTGlyph name="backslash" xMin="61" yMin="-68" xMax="259" yMax="709">
      <contour>
        <pt x="201" y="-68" on="1"/>
        <pt x="61" y="699" on="1"/>
        <pt x="119" y="709" on="1"/>
        <pt x="259" y="-58" on="1"/>
      </contour>
    </TTGlyph>
    <TTGlyph name="bar" xMin="195" yMin="-64" xMax="253" yMax="704">
      <contour>
        <pt x="195" y="-64" on="1"/>
        <pt x="195" y="704" on="1"/>
        <pt x="253" y="704" on="1"/>
        <pt x="253" y="-64" on="1"/>
      </contour>
    </TTGlyph>
    <TTGlyph name="beta" xMin="64" yMin="-192" xMax="384" yMax="640">
      <contour>
        <pt x="128" y="576" on="1"/>
        <pt x="128" y="128" on="1"/>
        <pt x="192" y="128" on="1"/>
        <pt x="192" y="64" on="1"/>
        <pt x="128" y="64" on="1"/>
        <pt x="128" y="-192" on="1"/>
        <pt x="64" y="-192" on="1"/>
        <pt x="64" y="576" on="1"/>
      </contour>
      <contour>
        <pt x="128" y="640" on="1"/>
        <pt x="320" y="640" on="1"/>
        <pt x="320" y="576" on="1"/>
        <pt x="128" y="576" on="1"/>
      </contour>
      <contour>
        <pt x="192" y="64" on="1"/>
        <pt x="320" y="64" on="1"/>
        <pt x="320" y="0" on="1"/>
        <pt x="192" y="0" on="1"/>
      </contour>
      <contour>
        <pt x="192" y="384" on="1"/>
        <pt x="320" y="384" on="1"/>
        <pt x="320" y="320" on="1"/>
        <pt x="192" y="320" on="1"/>
      </contour>
      <contour>
        <pt x="320" y="320" on="1"/>
        <pt x="384" y="320" on="1"/>
        <pt x="384" y="64" on="1"/>
        <pt x="320" y="64" on="1"/>
      </contour>
      <contour>
        <pt x="320" y="576" on="1"/>
        <pt x="384" y="576" on="1"/>
        <pt x="384" y="384" on="1"/>
        <pt x="320" y="384" on="1"/>
      </contour>
    </TTGlyph>
    <TTGlyph name="block" xMin="0" yMin="-192" xMax="448" yMax="832">
      <contour>
        <pt x="0" y="-192" on="1"/>
        <pt x="0" y="832" on="1"/>
        <pt x="448" y="832" on="1"/>
        <pt x="448" y="-192" on="1"/>
      </contour>
    </TTGlyph>
    <TTGlyph name="braceleft" xMin="88" yMin="-64" xMax="329" yMax="704">
      <contour>
        <pt x="240" y="-54" on="0"/>
        <pt x="156" y="4" on="0"/>
        <pt x="156" y="72" on="1"/>
        <pt x="156" y="91" on="0"/>
        <pt x="162" y="127" on="1"/>
        <pt x="168" y="169" on="0"/>
        <pt x="168" y="194" on="1"/>
        <pt x="168" y="235" on="0"/>
        <pt x="129" y="280" on="0"/>
        <pt x="88" y="287" on="1"/>
        <pt x="88" y="353" on="1"/>
        <pt x="129" y="361" on="0"/>
        <pt x="168" y="406" on="0"/>
        <pt x="168" y="446" on="1"/>
        <pt x="168" y="471" on="0"/>
        <pt x="162" y="513" on="1"/>
        <pt x="156" y="549" on="0"/>
        <pt x="156" y="568" on="1"/>
        <pt x="156" y="636" on="0"/>
        <pt x="240" y="694" on="0"/>
        <pt x="321" y="704" on="1"/>
        <pt x="329" y="659" on="1"/>
        <pt x="262" y="647" on="0"/>
        <pt x="210" y="610" on="0"/>
        <pt x="210" y="571" on="1"/>
        <pt x="210" y="559" on="0"/>
        <pt x="214" y="526" on="0"/>
        <pt x="215" y="519" on="1"/>
        <pt x="222" y="482" on="0"/>
        <pt x="222" y="448" on="1"/>
        <pt x="222" y="391" on="0"/>
        <pt x="178" y="335" on="0"/>
        <pt x="132" y="320" on="1"/>
        <pt x="178" y="305" on="0"/>
        <pt x="222" y="249" on="0"/>
        <pt x="222" y="192" on="1"/>
        <pt x="222" y="159" on="0"/>
        <pt x="215" y="122" on="1"/>
        <pt x="214" y="115" on="0"/>
        <pt x="210" y="82" on="0"/>
        <pt x="210" y="69" on="1"/>
        <pt x="210" y="30" on="0"/>
        <pt x="262" y="-7" on="0"/>
        <pt x="329" y="-19" on="1"/>
        <pt x="321" y="-64" on="1"/>
      </contour>
    </TTGlyph>
    <TTGlyph name="braceright" xMin="119" yMin="-64" xMax="361" yMax="704">
      <contour>
        <pt x="187" y="-7" on="0"/>
        <pt x="239" y="30" on="0"/>
        <pt x="239" y="69" on="1"/>
        <pt x="239" y="82" on="0"/>
        <pt x="235" y="115" on="0"/>
        <pt x="234" y="122" on="1"/>
        <pt x="227" y="159" on="0"/>
        <pt x="227" y="192" on="1"/>
        <pt x="227" y="249" on="0"/>
        <pt x="270" y="305" on="0"/>
        <pt x="316" y="320" on="1"/>
        <pt x="270" y="335" on="0"/>
        <pt x="227" y="391" on="0"/>
        <pt x="227" y="448" on="1"/>
        <pt x="227" y="482" on="0"/>
        <pt x="234" y="519" on="1"/>
        <pt x="235" y="526" on="0"/>
        <pt x="239" y="559" on="0"/>
        <pt x="239" y="571" on="1"/>
        <pt x="239" y="610" on="0"/>
        <pt x="187" y="647" on="0"/>
        <pt x="119" y="659" on="1"/>
        <pt x="128" y="704" on="1"/>
        <pt x="209" y="694" on="0"/>
        <pt x="293" y="636" on="0"/>
        <pt x="293" y="568" on="1"/>
        <pt x="293" y="549" on="0"/>
        <pt x="287" y="513" on="1"/>
        <pt x="281" y="471" on="0"/>
        <pt x="281" y="446" on="1"/>
        <pt x="281" y="406" on="0"/>
        <pt x="320" y="361" on="0"/>
        <pt x="361" y="353" on="1"/>
        <pt x="361" y="287" on="1"/>
        <pt x="320" y="280" on="0"/>
        <pt x="281" y="235" on="0"/>
        <pt x="281" y="194" on="1"/>
        <pt x="281" y="169" on="0"/>
        <pt x="287" y="127" on="1"/>
        <pt x="293" y="91" on="0"/>
        <pt x="293" y="72" on="1"/>
        <pt x="293" y="4" on="0"/>
        <pt x="209" y="-54" on="0"/>
        <pt x="128" y="-64" on="1"/>
        <pt x="119" y="-19" on="1"/>
      </contour>
    </TTGlyph>
    <TTGlyph name="bracketleft" xMin="151" yMin="-64" xMax="333" yMax="704">
      <contour>
        <pt x="209" y="652" on="1"/>
        <pt x="209" y="-12" on="1"/>
        <pt x="333" y="-12" on="1"/>
        <pt x="333" y="-64" on="1"/>
        <pt x="151" y="-64" on="1"/>
        <pt x="151" y="704" on="1"/>
        <pt x="333" y="704" on="1"/>
        <pt x="333" y="652" on="1"/>
      </contour>
    </TTGlyph>
    <TTGlyph name="bracketright" xMin="115" yMin="-64" xMax="297" yMax="704">
      <contour>
        <pt x="115" y="-64" on="1"/>
        <pt x="115" y="-12" on="1"/>
        <pt x="239" y="-12" on="1"/>
        <pt x="239" y="652" on="1"/>
        <pt x="115" y="652" on="1"/>
        <pt x="115" y="704" on="1"/>
        <pt x="297" y="704" on="1"/>
        <pt x="297" y="-64" on="1"/>
      </contour>
    </TTGlyph>
    <TTGlyph name="breve" xMin="99" yMin="504" xMax="349" yMax="641">
      <component glyphName="uni0306" x="0" y="0" flags="0x0"/>
    </TTGlyph>
    <TTGlyph name="brokenbar" xMin="197" yMin="-192" xMax="251" yMax="704">
      <contour>
        <pt x="197" y="320" on="1"/>
        <pt x="197" y="704" on="1"/>
        <pt x="251" y="704" on="1"/>
        <pt x="251" y="320" on="1"/>
      </contour>
      <contour>
        <pt x="197" y="192" on="1"/>
        <pt x="251" y="192" on="1"/>
        <pt x="251" y="-192" on="1"/>
        <pt x="197" y="-192" on="1"/>
      </contour>
    </TTGlyph>
    <TTGlyph name="bullet" xMin="129" yMin="127" xMax="319" yMax="321">
      <contour>
        <pt x="264" y="321" on="0"/>
        <pt x="319" y="265" on="0"/>
        <pt x="319" y="224" on="1"/>
        <pt x="319" y="183" on="0"/>
        <pt x="264" y="127" on="0"/>
        <pt x="224" y="127" on="1"/>
        <pt x="184" y="127" on="0"/>
        <pt x="129" y="183" on="0"/>
        <pt x="129" y="224" on="1"/>
        <pt x="129" y="265" on="0"/>
        <pt x="184" y="321" on="0"/>
        <pt x="224" y="321" on="1"/>
      </contour>
    </TTGlyph>
    <TTGlyph name="c" xMin="54" yMin="-7" xMax="332" yMax="455">
      <contour>
        <pt x="133" y="-7" on="0"/>
        <pt x="54" y="118" on="0"/>
        <pt x="54" y="224" on="1"/>
        <pt x="54" y="330" on="0"/>
        <pt x="133" y="455" on="0"/>
        <pt x="224" y="455" on="1"/>
        <pt x="281" y="455" on="0"/>
        <pt x="332" y="437" on="1"/>
        <pt x="322" y="388" on="1"/>
        <pt x="270" y="404" on="0"/>
        <pt x="228" y="404" on="1"/>
        <pt x="166" y="404" on="0"/>
        <pt x="116" y="320" on="0"/>
        <pt x="116" y="224" on="1"/>
        <pt x="116" y="129" on="0"/>
        <pt x="168" y="45" on="0"/>
        <pt x="229" y="45" on="1"/>
        <pt x="273" y="45" on="0"/>
        <pt x="322" y="61" on="1"/>
        <pt x="332" y="13" on="1"/>
        <pt x="277" y="-7" on="0"/>
        <pt x="224" y="-7" on="1"/>
      </contour>
    </TTGlyph>
    <TTGlyph name="cacute" xMin="54" yMin="-7" xMax="336" yMax="649">
      <component glyphName="c" x="0" y="0" flags="0x0"/>
      <component glyphName="acutecomb" x="8" y="0" flags="0x0"/>
    </TTGlyph>
    <TTGlyph name="caron" xMin="93" yMin="510" xMax="355" yMax="647">
      <component glyphName="uni030C" x="0" y="0" flags="0x0"/>
    </TTGlyph>
    <TTGlyph name="carriagereturn" xMin="0" yMin="54" xMax="428" yMax="448">
      <contour>
        <pt x="217" y="98" on="1"/>
        <pt x="179" y="54" on="1"/>
        <pt x="0" y="202" on="1"/>
        <pt x="0" y="246" on="1"/>
        <pt x="179" y="394" on="1"/>
        <pt x="217" y="350" on="1"/>
        <pt x="108" y="256" on="1"/>
        <pt x="360" y="256" on="1"/>
        <pt x="360" y="448" on="1"/>
        <pt x="428" y="448" on="1"/>
        <pt x="428" y="192" on="1"/>
        <pt x="108" y="192" on="1"/>
      </contour>
    </TTGlyph>
    <TTGlyph name="ccaron" xMin="54" yMin="-7" xMax="363" yMax="647">
      <component glyphName="c" x="0" y="0" flags="0x0"/>
      <component glyphName="uni030C" x="8" y="0" flags="0x0"/>
    </TTGlyph>
    <TTGlyph name="ccedilla" xMin="54" yMin="-192" xMax="332" yMax="455">
      <component glyphName="c" x="0" y="0" flags="0x0"/>
      <component glyphName="uni0327" x="-31" y="0" flags="0x0"/>
    </TTGlyph>
    <TTGlyph name="ccircumflex" xMin="54" yMin="-7" xMax="363" yMax="650">
      <component glyphName="c" x="0" y="0" flags="0x0"/>
      <component glyphName="uni0302" x="8" y="0" flags="0x0"/>
    </TTGlyph>
    <TTGlyph name="cdotaccent" xMin="54" yMin="-7" xMax="332" yMax="647">
      <component glyphName="c" x="0" y="0" flags="0x0"/>
      <component glyphName="uni0307" x="8" y="0" flags="0x0"/>
    </TTGlyph>
    <TTGlyph name="cedilla" xMin="126" yMin="-192" xMax="315" yMax="10">
      <component glyphName="uni0327" x="0" y="0" flags="0x0"/>
    </TTGlyph>
    <TTGlyph name="cent" xMin="54" yMin="-64" xMax="332" yMax="640">
      <contour>
        <pt x="54" y="385" on="0"/>
        <pt x="121" y="508" on="0"/>
        <pt x="197" y="517" on="1"/>
        <pt x="197" y="640" on="1"/>
        <pt x="251" y="640" on="1"/>
        <pt x="251" y="518" on="1"/>
        <pt x="294" y="515" on="0"/>
        <pt x="332" y="501" on="1"/>
        <pt x="322" y="452" on="1"/>
        <pt x="270" y="468" on="0"/>
        <pt x="228" y="468" on="1"/>
        <pt x="166" y="468" on="0"/>
        <pt x="116" y="384" on="0"/>
        <pt x="116" y="288" on="1"/>
        <pt x="116" y="193" on="0"/>
        <pt x="168" y="109" on="0"/>
        <pt x="229" y="109" on="1"/>
        <pt x="273" y="109" on="0"/>
        <pt x="322" y="125" on="1"/>
        <pt x="332" y="77" on="1"/>
        <pt x="293" y="63" on="0"/>
        <pt x="251" y="58" on="1"/>
        <pt x="251" y="-64" on="1"/>
        <pt x="197" y="-64" on="1"/>
        <pt x="197" y="59" on="1"/>
        <pt x="121" y="68" on="0"/>
        <pt x="54" y="191" on="0"/>
        <pt x="54" y="288" on="1"/>
      </contour>
    </TTGlyph>
    <TTGlyph name="chi" xMin="25" yMin="-192" xMax="399" yMax="448">
      <contour>
        <pt x="399" y="448" on="1"/>
        <pt x="263" y="158" on="1"/>
        <pt x="324" y="89" on="0"/>
        <pt x="381" y="-65" on="0"/>
        <pt x="393" y="-192" on="1"/>
        <pt x="321" y="-192" on="1"/>
        <pt x="311" y="-82" on="0"/>
        <pt x="272" y="42" on="0"/>
        <pt x="231" y="91" on="1"/>
        <pt x="98" y="-192" on="1"/>
        <pt x="25" y="-192" on="1"/>
        <pt x="180" y="138" on="1"/>
        <pt x="124" y="210" on="0"/>
        <pt x="68" y="345" on="0"/>
        <pt x="48" y="448" on="1"/>
        <pt x="123" y="448" on="1"/>
        <pt x="138" y="366" on="0"/>
        <pt x="177" y="259" on="0"/>
        <pt x="212" y="207" on="1"/>
        <pt x="325" y="448" on="1"/>
      </contour>
    </TTGlyph>
    <TTGlyph name="circle" xMin="54" yMin="120" xMax="394" yMax="456">
      <contour>
        <pt x="177" y="120" on="0"/>
        <pt x="99" y="164" on="0"/>
        <pt x="54" y="241" on="0"/>
        <pt x="54" y="288" on="1"/>
        <pt x="54" y="335" on="0"/>
        <pt x="99" y="412" on="0"/>
        <pt x="177" y="456" on="0"/>
        <pt x="224" y="456" on="1"/>
        <pt x="271" y="456" on="0"/>
        <pt x="349" y="412" on="0"/>
        <pt x="394" y="335" on="0"/>
        <pt x="394" y="288" on="1"/>
        <pt x="394" y="241" on="0"/>
        <pt x="349" y="164" on="0"/>
        <pt x="271" y="120" on="0"/>
        <pt x="224" y="120" on="1"/>
      </contour>
      <contour>
        <pt x="124" y="244" on="0"/>
        <pt x="181" y="184" on="0"/>
        <pt x="224" y="184" on="1"/>
        <pt x="267" y="184" on="0"/>
        <pt x="324" y="244" on="0"/>
        <pt x="324" y="288" on="1"/>
        <pt x="324" y="332" on="0"/>
        <pt x="267" y="392" on="0"/>
        <pt x="224" y="392" on="1"/>
        <pt x="181" y="392" on="0"/>
        <pt x="124" y="332" on="0"/>
        <pt x="124" y="288" on="1"/>
      </contour>
    </TTGlyph>
    <TTGlyph name="circumflex" xMin="93" yMin="513" xMax="355" yMax="650">
      <component glyphName="uni0302" x="0" y="0" flags="0x0"/>
    </TTGlyph>
    <TTGlyph name="club" xMin="64" yMin="64" xMax="384" yMax="512">
      <contour>
        <pt x="384" y="384" on="1"/>
        <pt x="384" y="192" on="1"/>
        <pt x="320" y="192" on="1"/>
        <pt x="320" y="256" on="1"/>
        <pt x="256" y="256" on="1"/>
        <pt x="256" y="128" on="1"/>
        <pt x="384" y="128" on="1"/>
        <pt x="384" y="64" on="1"/>
        <pt x="64" y="64" on="1"/>
        <pt x="64" y="128" on="1"/>
        <pt x="192" y="128" on="1"/>
        <pt x="192" y="256" on="1"/>
        <pt x="128" y="256" on="1"/>
        <pt x="128" y="192" on="1"/>
        <pt x="64" y="192" on="1"/>
        <pt x="64" y="384" on="1"/>
        <pt x="128" y="384" on="1"/>
        <pt x="128" y="320" on="1"/>
        <pt x="192" y="320" on="1"/>
        <pt x="192" y="448" on="1"/>
        <pt x="128" y="448" on="1"/>
        <pt x="128" y="512" on="1"/>
        <pt x="320" y="512" on="1"/>
        <pt x="320" y="448" on="1"/>
        <pt x="256" y="448" on="1"/>
        <pt x="256" y="320" on="1"/>
        <pt x="320" y="320" on="1"/>
        <pt x="320" y="384" on="1"/>
      </contour>
    </TTGlyph>
    <TTGlyph name="colon" xMin="71" yMin="-10" xMax="185" yMax="458">
      <contour>
        <pt x="152" y="104" on="0"/>
        <pt x="185" y="73" on="0"/>
        <pt x="185" y="47" on="1"/>
        <pt x="185" y="20" on="0"/>
        <pt x="152" y="-10" on="0"/>
        <pt x="128" y="-10" on="1"/>
        <pt x="104" y="-10" on="0"/>
        <pt x="71" y="20" on="0"/>
        <pt x="71" y="47" on="1"/>
        <pt x="71" y="73" on="0"/>
        <pt x="104" y="104" on="0"/>
        <pt x="128" y="104" on="1"/>
      </contour>
      <contour>
        <pt x="71" y="427" on="0"/>
        <pt x="104" y="458" on="0"/>
        <pt x="128" y="458" on="1"/>
        <pt x="152" y="458" on="0"/>
        <pt x="185" y="427" on="0"/>
        <pt x="185" y="401" on="1"/>
        <pt x="185" y="374" on="0"/>
        <pt x="152" y="344" on="0"/>
        <pt x="128" y="344" on="1"/>
        <pt x="104" y="344" on="0"/>
        <pt x="71" y="374" on="0"/>
        <pt x="71" y="401" on="1"/>
      </contour>
    </TTGlyph>
    <TTGlyph name="comma" xMin="70" yMin="-129" xMax="188" yMax="105">
      <contour>
        <pt x="154" y="105" on="0"/>
        <pt x="188" y="65" on="0"/>
        <pt x="188" y="25" on="1"/>
        <pt x="188" y="-21" on="0"/>
        <pt x="146" y="-95" on="0"/>
        <pt x="105" y="-129" on="1"/>
        <pt x="74" y="-94" on="1"/>
        <pt x="98" y="-72" on="0"/>
        <pt x="126" y="-34" on="0"/>
        <pt x="130" y="-11" on="1"/>
        <pt x="101" y="-10" on="0"/>
        <pt x="70" y="23" on="0"/>
        <pt x="70" y="48" on="1"/>
        <pt x="70" y="73" on="0"/>
        <pt x="103" y="105" on="0"/>
        <pt x="125" y="105" on="1"/>
      </contour>
    </TTGlyph>
    <TTGlyph name="copyright" xMin="11" yMin="13" xMax="437" yMax="499">
      <contour>
        <pt x="169" y="13" on="0"/>
        <pt x="71" y="69" on="0"/>
        <pt x="11" y="179" on="0"/>
        <pt x="11" y="256" on="1"/>
        <pt x="11" y="334" on="0"/>
        <pt x="71" y="444" on="0"/>
        <pt x="168" y="499" on="0"/>
        <pt x="224" y="499" on="1"/>
        <pt x="280" y="499" on="0"/>
        <pt x="377" y="444" on="0"/>
        <pt x="437" y="334" on="0"/>
        <pt x="437" y="256" on="1"/>
        <pt x="437" y="179" on="0"/>
        <pt x="377" y="69" on="0"/>
        <pt x="279" y="13" on="0"/>
        <pt x="224" y="13" on="1"/>
      </contour>
      <contour>
        <pt x="57" y="164" on="0"/>
        <pt x="144" y="57" on="0"/>
        <pt x="224" y="57" on="1"/>
        <pt x="304" y="57" on="0"/>
        <pt x="391" y="164" on="0"/>
        <pt x="391" y="256" on="1"/>
        <pt x="391" y="347" on="0"/>
        <pt x="304" y="455" on="0"/>
        <pt x="224" y="455" on="1"/>
        <pt x="144" y="455" on="0"/>
        <pt x="57" y="347" on="0"/>
        <pt x="57" y="256" on="1"/>
      </contour>
      <contour>
        <pt x="114" y="324" on="0"/>
        <pt x="175" y="397" on="0"/>
        <pt x="235" y="397" on="1"/>
        <pt x="274" y="397" on="0"/>
        <pt x="310" y="383" on="1"/>
        <pt x="297" y="345" on="1"/>
        <pt x="264" y="356" on="0"/>
        <pt x="237" y="356" on="1"/>
        <pt x="198" y="356" on="0"/>
        <pt x="163" y="311" on="0"/>
        <pt x="163" y="258" on="1"/>
        <pt x="163" y="206" on="0"/>
        <pt x="198" y="162" on="0"/>
        <pt x="238" y="162" on="1"/>
        <pt x="262" y="162" on="0"/>
        <pt x="299" y="172" on="1"/>
        <pt x="310" y="134" on="1"/>
        <pt x="268" y="120" on="0"/>
        <pt x="235" y="120" on="1"/>
        <pt x="175" y="120" on="0"/>
        <pt x="114" y="191" on="0"/>
        <pt x="114" y="258" on="1"/>
      </contour>
    </TTGlyph>
    <TTGlyph name="currency" xMin="43" yMin="57" xMax="405" yMax="519">
      <contour>
        <pt x="265" y="464" on="0"/>
        <pt x="301" y="447" on="1"/>
        <pt x="353" y="519" on="1"/>
        <pt x="405" y="481" on="1"/>
        <pt x="353" y="410" on="1"/>
        <pt x="376" y="387" on="0"/>
        <pt x="402" y="324" on="0"/>
        <pt x="402" y="288" on="1"/>
        <pt x="402" y="252" on="0"/>
        <pt x="377" y="189" on="0"/>
        <pt x="353" y="165" on="1"/>
        <pt x="405" y="95" on="1"/>
        <pt x="353" y="57" on="1"/>
        <pt x="301" y="128" on="1"/>
        <pt x="264" y="112" on="0"/>
        <pt x="224" y="112" on="1"/>
        <pt x="184" y="112" on="0"/>
        <pt x="147" y="128" on="1"/>
        <pt x="95" y="57" on="1"/>
        <pt x="43" y="95" on="1"/>
        <pt x="95" y="165" on="1"/>
        <pt x="71" y="189" on="0"/>
        <pt x="46" y="252" on="0"/>
        <pt x="46" y="288" on="1"/>
        <pt x="46" y="324" on="0"/>
        <pt x="72" y="387" on="0"/>
        <pt x="95" y="410" on="1"/>
        <pt x="43" y="481" on="1"/>
        <pt x="95" y="519" on="1"/>
        <pt x="147" y="447" on="1"/>
        <pt x="183" y="464" on="0"/>
        <pt x="224" y="464" on="1"/>
      </contour>
      <contour>
        <pt x="114" y="241" on="0"/>
        <pt x="177" y="176" on="0"/>
        <pt x="224" y="176" on="1"/>
        <pt x="271" y="176" on="0"/>
        <pt x="334" y="241" on="0"/>
        <pt x="334" y="288" on="1"/>
        <pt x="334" y="335" on="0"/>
        <pt x="271" y="400" on="0"/>
        <pt x="224" y="400" on="1"/>
        <pt x="177" y="400" on="0"/>
        <pt x="114" y="335" on="0"/>
        <pt x="114" y="288" on="1"/>
      </contour>
    </TTGlyph>
    <TTGlyph name="d" xMin="55" yMin="-8" xMax="387" yMax="640">
      <contour>
        <pt x="136" y="-8" on="0"/>
        <pt x="55" y="125" on="0"/>
        <pt x="55" y="224" on="1"/>
        <pt x="55" y="323" on="0"/>
        <pt x="136" y="456" on="0"/>
        <pt x="225" y="456" on="1"/>
        <pt x="288" y="456" on="0"/>
        <pt x="327" y="415" on="1"/>
        <pt x="327" y="640" on="1"/>
        <pt x="385" y="640" on="1"/>
        <pt x="385" y="63" on="1"/>
        <pt x="387" y="0" on="1"/>
        <pt x="335" y="0" on="1"/>
        <pt x="331" y="34" on="1"/>
        <pt x="286" y="-8" on="0"/>
        <pt x="225" y="-8" on="1"/>
      </contour>
      <contour>
        <pt x="119" y="129" on="0"/>
        <pt x="170" y="43" on="0"/>
        <pt x="229" y="43" on="1"/>
        <pt x="286" y="43" on="0"/>
        <pt x="327" y="86" on="1"/>
        <pt x="327" y="359" on="1"/>
        <pt x="291" y="405" on="0"/>
        <pt x="229" y="405" on="1"/>
        <pt x="170" y="405" on="0"/>
        <pt x="119" y="320" on="0"/>
        <pt x="119" y="224" on="1"/>
      </contour>
    </TTGlyph>
    <TTGlyph name="dagger" xMin="68" yMin="0" xMax="381" yMax="640">
      <contour>
        <pt x="251" y="452" on="1"/>
        <pt x="381" y="452" on="1"/>
        <pt x="381" y="402" on="1"/>
        <pt x="251" y="402" on="1"/>
        <pt x="251" y="0" on="1"/>
        <pt x="197" y="0" on="1"/>
        <pt x="197" y="402" on="1"/>
        <pt x="68" y="402" on="1"/>
        <pt x="68" y="452" on="1"/>
        <pt x="197" y="452" on="1"/>
        <pt x="197" y="640" on="1"/>
        <pt x="251" y="640" on="1"/>
      </contour>
    </TTGlyph>
    <TTGlyph name="daggerdbl" xMin="68" yMin="0" xMax="381" yMax="640">
      <contour>
        <pt x="251" y="452" on="1"/>
        <pt x="381" y="452" on="1"/>
        <pt x="381" y="400" on="1"/>
        <pt x="251" y="400" on="1"/>
        <pt x="251" y="240" on="1"/>
        <pt x="381" y="240" on="1"/>
        <pt x="381" y="188" on="1"/>
        <pt x="251" y="188" on="1"/>
        <pt x="251" y="0" on="1"/>
        <pt x="197" y="0" on="1"/>
        <pt x="197" y="188" on="1"/>
        <pt x="68" y="188" on="1"/>
        <pt x="68" y="240" on="1"/>
        <pt x="197" y="240" on="1"/>
        <pt x="197" y="400" on="1"/>
        <pt x="68" y="400" on="1"/>
        <pt x="68" y="452" on="1"/>
        <pt x="197" y="452" on="1"/>
        <pt x="197" y="640" on="1"/>
        <pt x="251" y="640" on="1"/>
      </contour>
    </TTGlyph>
    <TTGlyph name="dcaron" xMin="55" yMin="-8" xMax="530" yMax="640">
      <component glyphName="d" x="0" y="0" flags="0x0"/>
      <component glyphName="uni0315" x="101" y="0" flags="0x0"/>
    </TTGlyph>
    <TTGlyph name="dcroat" xMin="55" yMin="-8" xMax="436" yMax="640">
      <component glyphName="d" x="0" y="0" flags="0x0"/>
      <component glyphName="uni0335" x="86" y="310" flags="0x4"/>
    </TTGlyph>
    <TTGlyph name="degree" xMin="58" yMin="377" xMax="326" yMax="647">
      <contour>
        <pt x="230" y="647" on="0"/>
        <pt x="292" y="610" on="0"/>
        <pt x="326" y="548" on="0"/>
        <pt x="326" y="512" on="1"/>
        <pt x="326" y="476" on="0"/>
        <pt x="292" y="414" on="0"/>
        <pt x="230" y="377" on="0"/>
        <pt x="192" y="377" on="1"/>
        <pt x="154" y="377" on="0"/>
        <pt x="92" y="414" on="0"/>
        <pt x="58" y="476" on="0"/>
        <pt x="58" y="512" on="1"/>
        <pt x="58" y="548" on="0"/>
        <pt x="92" y="610" on="0"/>
        <pt x="154" y="647" on="0"/>
        <pt x="192" y="647" on="1"/>
      </contour>
      <contour>
        <pt x="112" y="475" on="0"/>
        <pt x="154" y="426" on="0"/>
        <pt x="192" y="426" on="1"/>
        <pt x="230" y="426" on="0"/>
        <pt x="272" y="475" on="0"/>
        <pt x="272" y="512" on="1"/>
        <pt x="272" y="549" on="0"/>
        <pt x="230" y="598" on="0"/>
        <pt x="192" y="598" on="1"/>
        <pt x="154" y="598" on="0"/>
        <pt x="112" y="549" on="0"/>
        <pt x="112" y="512" on="1"/>
      </contour>
    </TTGlyph>
    <TTGlyph name="delta" xMin="50" yMin="-13" xMax="398" yMax="642">
      <contour>
        <pt x="315" y="578" on="0"/>
        <pt x="278" y="578" on="1"/>
        <pt x="192" y="578" on="0"/>
        <pt x="192" y="516" on="1"/>
        <pt x="192" y="492" on="0"/>
        <pt x="218" y="457" on="0"/>
        <pt x="257" y="429" on="1"/>
        <pt x="317" y="386" on="0"/>
        <pt x="398" y="276" on="0"/>
        <pt x="398" y="192" on="1"/>
        <pt x="398" y="139" on="0"/>
        <pt x="362" y="46" on="0"/>
        <pt x="282" y="-13" on="0"/>
        <pt x="221" y="-13" on="1"/>
        <pt x="162" y="-13" on="0"/>
        <pt x="85" y="44" on="0"/>
        <pt x="50" y="131" on="0"/>
        <pt x="50" y="177" on="1"/>
        <pt x="50" y="247" on="0"/>
        <pt x="121" y="360" on="0"/>
        <pt x="184" y="396" on="1"/>
        <pt x="151" y="421" on="0"/>
        <pt x="117" y="478" on="0"/>
        <pt x="117" y="518" on="1"/>
        <pt x="117" y="572" on="0"/>
        <pt x="193" y="642" on="0"/>
        <pt x="278" y="642" on="1"/>
        <pt x="323" y="642" on="0"/>
        <pt x="384" y="635" on="1"/>
        <pt x="378" y="573" on="1"/>
      </contour>
      <contour>
        <pt x="125" y="118" on="0"/>
        <pt x="175" y="51" on="0"/>
        <pt x="221" y="51" on="1"/>
        <pt x="272" y="51" on="0"/>
        <pt x="324" y="122" on="0"/>
        <pt x="324" y="192" on="1"/>
        <pt x="324" y="291" on="0"/>
        <pt x="240" y="357" on="1"/>
        <pt x="175" y="320" on="0"/>
        <pt x="125" y="236" on="0"/>
        <pt x="125" y="176" on="1"/>
      </contour>
    </TTGlyph>
    <TTGlyph name="diamond" xMin="64" yMin="80" xMax="384" yMax="456">
      <contour>
        <pt x="202" y="456" on="1"/>
        <pt x="246" y="456" on="1"/>
        <pt x="384" y="284" on="1"/>
        <pt x="384" y="252" on="1"/>
        <pt x="246" y="80" on="1"/>
        <pt x="202" y="80" on="1"/>
        <pt x="64" y="252" on="1"/>
        <pt x="64" y="284" on="1"/>
      </contour>
    </TTGlyph>
    <TTGlyph name="dieresis" xMin="83" yMin="542" xMax="365" yMax="645">
      <component glyphName="uni0308" x="0" y="0" flags="0x0"/>
    </TTGlyph>
    <TTGlyph name="dieresistonos" xMin="58" yMin="512" xMax="390" yMax="704">
      <contour>
        <pt x="276" y="704" on="1"/>
        <pt x="246" y="512" on="1"/>
        <pt x="182" y="512" on="1"/>
        <pt x="192" y="704" on="1"/>
      </contour>
      <contour>
        <pt x="58" y="618" on="0"/>
        <pt x="79" y="650" on="0"/>
        <pt x="96" y="650" on="1"/>
        <pt x="113" y="650" on="0"/>
        <pt x="134" y="618" on="0"/>
        <pt x="134" y="586" on="1"/>
        <pt x="134" y="554" on="0"/>
        <pt x="113" y="522" on="0"/>
        <pt x="96" y="522" on="1"/>
        <pt x="79" y="522" on="0"/>
        <pt x="58" y="554" on="0"/>
        <pt x="58" y="586" on="1"/>
      </contour>
      <contour>
        <pt x="314" y="618" on="0"/>
        <pt x="335" y="650" on="0"/>
        <pt x="352" y="650" on="1"/>
        <pt x="369" y="650" on="0"/>
        <pt x="390" y="618" on="0"/>
        <pt x="390" y="586" on="1"/>
        <pt x="390" y="554" on="0"/>
        <pt x="369" y="522" on="0"/>
        <pt x="352" y="522" on="1"/>
        <pt x="335" y="522" on="0"/>
        <pt x="314" y="554" on="0"/>
        <pt x="314" y="586" on="1"/>
      </contour>
    </TTGlyph>
    <TTGlyph name="divide" xMin="24" yMin="69" xMax="424" yMax="507">
      <contour>
        <pt x="24" y="313" on="1"/>
        <pt x="424" y="313" on="1"/>
        <pt x="424" y="263" on="1"/>
        <pt x="24" y="263" on="1"/>
      </contour>
      <contour>
        <pt x="167" y="152" on="0"/>
        <pt x="200" y="183" on="0"/>
        <pt x="224" y="183" on="1"/>
        <pt x="248" y="183" on="0"/>
        <pt x="281" y="152" on="0"/>
        <pt x="281" y="126" on="1"/>
        <pt x="281" y="99" on="0"/>
        <pt x="248" y="69" on="0"/>
        <pt x="224" y="69" on="1"/>
        <pt x="200" y="69" on="0"/>
        <pt x="167" y="99" on="0"/>
        <pt x="167" y="126" on="1"/>
      </contour>
      <contour>
        <pt x="167" y="476" on="0"/>
        <pt x="200" y="507" on="0"/>
        <pt x="224" y="507" on="1"/>
        <pt x="248" y="507" on="0"/>
        <pt x="281" y="476" on="0"/>
        <pt x="281" y="450" on="1"/>
        <pt x="281" y="423" on="0"/>
        <pt x="248" y="393" on="0"/>
        <pt x="224" y="393" on="1"/>
        <pt x="200" y="393" on="0"/>
        <pt x="167" y="423" on="0"/>
        <pt x="167" y="450" on="1"/>
      </contour>
    </TTGlyph>
    <TTGlyph name="dkshade" xMin="0" yMin="-192" xMax="384" yMax="832">
      <contour>
        <pt x="64" y="64" on="1"/>
        <pt x="64" y="128" on="1"/>
        <pt x="0" y="128" on="1"/>
        <pt x="0" y="320" on="1"/>
        <pt x="64" y="320" on="1"/>
        <pt x="64" y="384" on="1"/>
        <pt x="0" y="384" on="1"/>
        <pt x="0" y="576" on="1"/>
        <pt x="64" y="576" on="1"/>
        <pt x="64" y="640" on="1"/>
        <pt x="0" y="640" on="1"/>
        <pt x="0" y="832" on="1"/>
        <pt x="384" y="832" on="1"/>
        <pt x="384" y="768" on="1"/>
        <pt x="320" y="768" on="1"/>
        <pt x="320" y="704" on="1"/>
        <pt x="384" y="704" on="1"/>
        <pt x="384" y="512" on="1"/>
        <pt x="320" y="512" on="1"/>
        <pt x="320" y="448" on="1"/>
        <pt x="384" y="448" on="1"/>
        <pt x="384" y="256" on="1"/>
        <pt x="320" y="256" on="1"/>
        <pt x="320" y="192" on="1"/>
        <pt x="384" y="192" on="1"/>
        <pt x="384" y="0" on="1"/>
        <pt x="320" y="0" on="1"/>
        <pt x="320" y="-64" on="1"/>
        <pt x="384" y="-64" on="1"/>
        <pt x="384" y="-192" on="1"/>
        <pt x="320" y="-192" on="1"/>
        <pt x="320" y="-128" on="1"/>
        <pt x="256" y="-128" on="1"/>
        <pt x="256" y="-192" on="1"/>
        <pt x="192" y="-192" on="1"/>
        <pt x="192" y="-128" on="1"/>
        <pt x="128" y="-128" on="1"/>
        <pt x="128" y="-192" on="1"/>
        <pt x="64" y="-192" on="1"/>
        <pt x="64" y="-128" on="1"/>
        <pt x="0" y="-128" on="1"/>
        <pt x="0" y="64" on="1"/>
      </contour>
      <contour>
        <pt x="128" y="-64" on="1"/>
        <pt x="128" y="0" on="1"/>
        <pt x="64" y="0" on="1"/>
        <pt x="64" y="-64" on="1"/>
      </contour>
      <contour>
        <pt x="128" y="192" on="1"/>
        <pt x="128" y="256" on="1"/>
        <pt x="64" y="256" on="1"/>
        <pt x="64" y="192" on="1"/>
      </contour>
      <contour>
        <pt x="128" y="448" on="1"/>
        <pt x="128" y="512" on="1"/>
        <pt x="64" y="512" on="1"/>
        <pt x="64" y="448" on="1"/>
      </contour>
      <contour>
        <pt x="128" y="704" on="1"/>
        <pt x="128" y="768" on="1"/>
        <pt x="64" y="768" on="1"/>
        <pt x="64" y="704" on="1"/>
      </contour>
      <contour>
        <pt x="192" y="64" on="1"/>
        <pt x="192" y="128" on="1"/>
        <pt x="128" y="128" on="1"/>
        <pt x="128" y="64" on="1"/>
      </contour>
      <contour>
        <pt x="192" y="320" on="1"/>
        <pt x="192" y="384" on="1"/>
        <pt x="128" y="384" on="1"/>
        <pt x="128" y="320" on="1"/>
      </contour>
      <contour>
        <pt x="192" y="576" on="1"/>
        <pt x="192" y="640" on="1"/>
        <pt x="128" y="640" on="1"/>
        <pt x="128" y="576" on="1"/>
      </contour>
      <contour>
        <pt x="256" y="-64" on="1"/>
        <pt x="256" y="0" on="1"/>
        <pt x="192" y="0" on="1"/>
        <pt x="192" y="-64" on="1"/>
      </contour>
      <contour>
        <pt x="256" y="192" on="1"/>
        <pt x="256" y="256" on="1"/>
        <pt x="192" y="256" on="1"/>
        <pt x="192" y="192" on="1"/>
      </contour>
      <contour>
        <pt x="256" y="448" on="1"/>
        <pt x="256" y="512" on="1"/>
        <pt x="192" y="512" on="1"/>
        <pt x="192" y="448" on="1"/>
      </contour>
      <contour>
        <pt x="256" y="704" on="1"/>
        <pt x="256" y="768" on="1"/>
        <pt x="192" y="768" on="1"/>
        <pt x="192" y="704" on="1"/>
      </contour>
      <contour>
        <pt x="320" y="64" on="1"/>
        <pt x="320" y="128" on="1"/>
        <pt x="256" y="128" on="1"/>
        <pt x="256" y="64" on="1"/>
      </contour>
      <contour>
        <pt x="320" y="320" on="1"/>
        <pt x="320" y="384" on="1"/>
        <pt x="256" y="384" on="1"/>
        <pt x="256" y="320" on="1"/>
      </contour>
      <contour>
        <pt x="320" y="576" on="1"/>
        <pt x="320" y="640" on="1"/>
        <pt x="256" y="640" on="1"/>
        <pt x="256" y="576" on="1"/>
      </contour>
    </TTGlyph>
    <TTGlyph name="dnblock" xMin="0" yMin="-192" xMax="448" yMax="320">
      <contour>
        <pt x="0" y="-192" on="1"/>
        <pt x="0" y="320" on="1"/>
        <pt x="448" y="320" on="1"/>
        <pt x="448" y="-192" on="1"/>
      </contour>
    </TTGlyph>
    <TTGlyph name="dollar" xMin="56" yMin="-128" xMax="387" yMax="704">
      <contour>
        <pt x="71" y="67" on="1"/>
        <pt x="106" y="56" on="0"/>
        <pt x="165" y="44" on="0"/>
        <pt x="201" y="44" on="1"/>
        <pt x="270" y="44" on="0"/>
        <pt x="326" y="89" on="0"/>
        <pt x="326" y="130" on="1"/>
        <pt x="326" y="160" on="0"/>
        <pt x="297" y="199" on="0"/>
        <pt x="252" y="225" on="0"/>
        <pt x="215" y="240" on="1"/>
        <pt x="166" y="261" on="0"/>
        <pt x="106" y="298" on="0"/>
        <pt x="63" y="368" on="0"/>
        <pt x="63" y="422" on="1"/>
        <pt x="63" y="482" on="0"/>
        <pt x="132" y="566" on="0"/>
        <pt x="197" y="579" on="1"/>
        <pt x="197" y="704" on="1"/>
        <pt x="251" y="704" on="1"/>
        <pt x="251" y="584" on="1"/>
        <pt x="255" y="584" on="1"/>
        <pt x="284" y="584" on="0"/>
        <pt x="347" y="574" on="0"/>
        <pt x="371" y="566" on="1"/>
        <pt x="358" y="516" on="1"/>
        <pt x="305" y="532" on="0"/>
        <pt x="254" y="532" on="1"/>
        <pt x="124" y="532" on="0"/>
        <pt x="124" y="425" on="1"/>
        <pt x="124" y="387" on="0"/>
        <pt x="158" y="336" on="0"/>
        <pt x="207" y="307" on="0"/>
        <pt x="250" y="288" on="1"/>
        <pt x="295" y="269" on="0"/>
        <pt x="350" y="236" on="0"/>
        <pt x="387" y="178" on="0"/>
        <pt x="387" y="133" on="1"/>
        <pt x="387" y="73" on="0"/>
        <pt x="316" y="4" on="0"/>
        <pt x="251" y="-5" on="1"/>
        <pt x="251" y="-128" on="1"/>
        <pt x="197" y="-128" on="1"/>
        <pt x="197" y="-8" on="1"/>
        <pt x="127" y="-7" on="0"/>
        <pt x="56" y="17" on="1"/>
      </contour>
    </TTGlyph>
    <TTGlyph name="dotaccent" xMin="169" yMin="536" xMax="280" yMax="647">
      <component glyphName="uni0307" x="0" y="0" flags="0x0"/>
    </TTGlyph>
    <TTGlyph name="dotbelowcomb" xMin="169" yMin="-174" xMax="280" yMax="-63">
      <component glyphName="uni0307" x="0" y="-710" flags="0x4"/>
    </TTGlyph>
    <TTGlyph name="dotlessi" xMin="30" yMin="0" xMax="175" yMax="448">
      <contour>
        <pt x="117" y="396" on="1"/>
        <pt x="30" y="402" on="1"/>
        <pt x="30" y="448" on="1"/>
        <pt x="175" y="448" on="1"/>
        <pt x="175" y="0" on="1"/>
        <pt x="117" y="0" on="1"/>
      </contour>
    </TTGlyph>
    <TTGlyph name="dotmath" xMin="103" yMin="231" xMax="217" yMax="345">
      <component glyphName="period" x="32" y="241" flags="0x4"/>
    </TTGlyph>
    <TTGlyph name="e" xMin="54" yMin="-13" xMax="393" yMax="461">
      <contour>
        <pt x="54" y="331" on="0"/>
        <pt x="135" y="461" on="0"/>
        <pt x="224" y="461" on="1"/>
        <pt x="305" y="461" on="0"/>
        <pt x="393" y="344" on="0"/>
        <pt x="393" y="238" on="1"/>
        <pt x="393" y="218" on="0"/>
        <pt x="392" y="208" on="1"/>
        <pt x="116" y="208" on="1"/>
        <pt x="118" y="120" on="0"/>
        <pt x="178" y="38" on="0"/>
        <pt x="249" y="38" on="1"/>
        <pt x="299" y="38" on="0"/>
        <pt x="362" y="58" on="1"/>
        <pt x="373" y="13" on="1"/>
        <pt x="314" y="-13" on="0"/>
        <pt x="242" y="-13" on="1"/>
        <pt x="54" y="-13" on="0"/>
        <pt x="54" y="224" on="1"/>
      </contour>
      <contour>
        <pt x="332" y="260" on="1"/>
        <pt x="327" y="409" on="0"/>
        <pt x="224" y="409" on="1"/>
        <pt x="172" y="409" on="0"/>
        <pt x="122" y="338" on="0"/>
        <pt x="117" y="260" on="1"/>
      </contour>
    </TTGlyph>
    <TTGlyph name="eacute" xMin="54" yMin="-13" xMax="393" yMax="649">
      <component glyphName="e" x="0" y="0" flags="0x0"/>
      <component glyphName="acutecomb" x="0" y="0" flags="0x0"/>
    </TTGlyph>
    <TTGlyph name="ebreve" xMin="54" yMin="-13" xMax="393" yMax="641">
      <component glyphName="e" x="0" y="0" flags="0x0"/>
      <component glyphName="uni0306" x="0" y="0" flags="0x0"/>
    </TTGlyph>
    <TTGlyph name="ecaron" xMin="54" yMin="-13" xMax="393" yMax="647">
      <component glyphName="e" x="0" y="0" flags="0x0"/>
      <component glyphName="uni030C" x="0" y="0" flags="0x0"/>
    </TTGlyph>
    <TTGlyph name="ecircumflex" xMin="54" yMin="-13" xMax="393" yMax="650">
      <component glyphName="e" x="0" y="0" flags="0x0"/>
      <component glyphName="uni0302" x="0" y="0" flags="0x0"/>
    </TTGlyph>
    <TTGlyph name="edieresis" xMin="54" yMin="-13" xMax="393" yMax="645">
      <component glyphName="e" x="0" y="0" flags="0x0"/>
      <component glyphName="uni0308" x="0" y="0" flags="0x0"/>
    </TTGlyph>
    <TTGlyph name="edotaccent" xMin="54" yMin="-13" xMax="393" yMax="647">
      <component glyphName="e" x="0" y="0" flags="0x0"/>
      <component glyphName="uni0307" x="0" y="0" flags="0x0"/>
    </TTGlyph>
    <TTGlyph name="egrave" xMin="54" yMin="-13" xMax="393" yMax="649">
      <component glyphName="e" x="0" y="0" flags="0x0"/>
      <component glyphName="gravecomb" x="0" y="0" flags="0x0"/>
    </TTGlyph>
    <TTGlyph name="eight" xMin="36" yMin="-11" xMax="412" yMax="586">
      <contour>
        <pt x="136" y="-11" on="0"/>
        <pt x="36" y="79" on="0"/>
        <pt x="36" y="149" on="1"/>
        <pt x="36" y="198" on="0"/>
        <pt x="91" y="278" on="0"/>
        <pt x="137" y="307" on="1"/>
        <pt x="96" y="337" on="0"/>
        <pt x="62" y="400" on="0"/>
        <pt x="62" y="438" on="1"/>
        <pt x="62" y="502" on="0"/>
        <pt x="153" y="586" on="0"/>
        <pt x="224" y="586" on="1"/>
        <pt x="296" y="586" on="0"/>
        <pt x="387" y="500" on="0"/>
        <pt x="387" y="429" on="1"/>
        <pt x="387" y="389" on="0"/>
        <pt x="345" y="309" on="0"/>
        <pt x="301" y="277" on="1"/>
        <pt x="358" y="247" on="0"/>
        <pt x="412" y="182" on="0"/>
        <pt x="412" y="135" on="1"/>
        <pt x="412" y="96" on="0"/>
        <pt x="367" y="29" on="0"/>
        <pt x="282" y="-11" on="0"/>
        <pt x="224" y="-11" on="1"/>
      </contour>
      <contour>
        <pt x="96" y="102" on="0"/>
        <pt x="160" y="41" on="0"/>
        <pt x="224" y="41" on="1"/>
        <pt x="288" y="41" on="0"/>
        <pt x="352" y="98" on="0"/>
        <pt x="352" y="135" on="1"/>
        <pt x="352" y="157" on="0"/>
        <pt x="331" y="192" on="0"/>
        <pt x="272" y="233" on="0"/>
        <pt x="214" y="261" on="1"/>
        <pt x="202" y="267" on="0"/>
        <pt x="184" y="276" on="0"/>
        <pt x="177" y="280" on="1"/>
        <pt x="131" y="253" on="0"/>
        <pt x="96" y="188" on="0"/>
        <pt x="96" y="150" on="1"/>
      </contour>
      <contour>
        <pt x="122" y="413" on="0"/>
        <pt x="141" y="372" on="0"/>
        <pt x="200" y="326" on="0"/>
        <pt x="259" y="298" on="1"/>
        <pt x="327" y="357" on="0"/>
        <pt x="327" y="433" on="1"/>
        <pt x="327" y="475" on="0"/>
        <pt x="274" y="534" on="0"/>
        <pt x="223" y="534" on="1"/>
        <pt x="170" y="534" on="0"/>
        <pt x="122" y="479" on="0"/>
        <pt x="122" y="439" on="1"/>
      </contour>
    </TTGlyph>
    <TTGlyph name="eight.dnom" xMin="176" yMin="-198" xMax="400" yMax="134">
      <component glyphName="uni2078" x="128" y="-512" flags="0x4"/>
    </TTGlyph>
    <TTGlyph name="eight.numr" xMin="48" yMin="314" xMax="272" yMax="646">
      <component glyphName="uni2078" x="0" y="0" flags="0x0"/>
    </TTGlyph>
    <TTGlyph name="eight_fraction_nine" xMin="42" yMin="-198" xMax="405" yMax="646">
      <component glyphName="eight.numr" x="0" y="0" flags="0x0"/>
      <component glyphName="fraction.alt" x="0" y="0" flags="0x0"/>
      <component glyphName="nine.dnom" x="0" y="0" flags="0x0"/>
    </TTGlyph>
    <TTGlyph name="ellipsis" xMin="-46" yMin="-10" xMax="366" yMax="104">
      <component glyphName="period" x="-117" y="0" flags="0x0"/>
      <component glyphName="period" x="32" y="0" flags="0x0"/>
      <component glyphName="period" x="181" y="0" flags="0x0"/>
    </TTGlyph>
    <TTGlyph name="emacron" xMin="54" yMin="-13" xMax="393" yMax="622">
      <component glyphName="e" x="0" y="0" flags="0x0"/>
      <component glyphName="uni0304" x="0" y="0" flags="0x0"/>
    </TTGlyph>
    <TTGlyph name="emdash" xMin="-10" yMin="262" xMax="458" yMax="314">
      <contour>
        <pt x="-10" y="262" on="1"/>
        <pt x="-10" y="314" on="1"/>
        <pt x="458" y="314" on="1"/>
        <pt x="458" y="262" on="1"/>
      </contour>
    </TTGlyph>
    <TTGlyph name="emoji.eyes" xMin="50" yMin="378" xMax="398" yMax="518">
      <contour>
        <pt x="77" y="378" on="0"/>
        <pt x="50" y="419" on="0"/>
        <pt x="50" y="448" on="1"/>
        <pt x="50" y="477" on="0"/>
        <pt x="77" y="518" on="0"/>
        <pt x="96" y="518" on="1"/>
        <pt x="115" y="518" on="0"/>
        <pt x="142" y="477" on="0"/>
        <pt x="142" y="448" on="1"/>
        <pt x="142" y="419" on="0"/>
        <pt x="115" y="378" on="0"/>
        <pt x="96" y="378" on="1"/>
      </contour>
      <contour>
        <pt x="306" y="477" on="0"/>
        <pt x="333" y="518" on="0"/>
        <pt x="352" y="518" on="1"/>
        <pt x="371" y="518" on="0"/>
        <pt x="398" y="477" on="0"/>
        <pt x="398" y="448" on="1"/>
        <pt x="398" y="419" on="0"/>
        <pt x="371" y="378" on="0"/>
        <pt x="352" y="378" on="1"/>
        <pt x="333" y="378" on="0"/>
        <pt x="306" y="419" on="0"/>
        <pt x="306" y="448" on="1"/>
      </contour>
    </TTGlyph>
    <TTGlyph name="emoji.eyes.smiling" xMin="0" yMin="384" xMax="448" yMax="512">
      <contour>
        <pt x="64" y="512" on="1"/>
        <pt x="128" y="512" on="1"/>
        <pt x="192" y="384" on="1"/>
        <pt x="133" y="384" on="1"/>
        <pt x="101" y="448" on="1"/>
        <pt x="91" y="448" on="1"/>
        <pt x="59" y="384" on="1"/>
        <pt x="0" y="384" on="1"/>
      </contour>
      <contour>
        <pt x="320" y="512" on="1"/>
        <pt x="384" y="512" on="1"/>
        <pt x="448" y="384" on="1"/>
        <pt x="389" y="384" on="1"/>
        <pt x="357" y="448" on="1"/>
        <pt x="347" y="448" on="1"/>
        <pt x="315" y="384" on="1"/>
        <pt x="256" y="384" on="1"/>
      </contour>
    </TTGlyph>
    <TTGlyph name="emoji.mouth" xMin="0" yMin="130" xMax="448" yMax="256">
      <contour>
        <pt x="61" y="130" on="0"/>
        <pt x="0" y="194" on="0"/>
        <pt x="0" y="249" on="1"/>
        <pt x="0" y="256" on="1"/>
        <pt x="64" y="256" on="1"/>
        <pt x="64" y="251" on="1"/>
        <pt x="64" y="221" on="0"/>
        <pt x="88" y="190" on="0"/>
        <pt x="116" y="190" on="1"/>
        <pt x="332" y="190" on="1"/>
        <pt x="360" y="190" on="0"/>
        <pt x="384" y="221" on="0"/>
        <pt x="384" y="251" on="1"/>
        <pt x="384" y="256" on="1"/>
        <pt x="448" y="256" on="1"/>
        <pt x="448" y="249" on="1"/>
        <pt x="448" y="194" on="0"/>
        <pt x="387" y="130" on="0"/>
        <pt x="332" y="130" on="1"/>
        <pt x="116" y="130" on="1"/>
      </contour>
    </TTGlyph>
    <TTGlyph name="emoji.mouth.grinning" xMin="0" yMin="66" xMax="448" yMax="254">
      <contour>
        <pt x="61" y="66" on="0"/>
        <pt x="0" y="130" on="0"/>
        <pt x="0" y="185" on="1"/>
        <pt x="0" y="254" on="1"/>
        <pt x="448" y="254" on="1"/>
        <pt x="448" y="185" on="1"/>
        <pt x="448" y="130" on="0"/>
        <pt x="387" y="66" on="0"/>
        <pt x="332" y="66" on="1"/>
        <pt x="116" y="66" on="1"/>
      </contour>
      <contour>
        <pt x="64" y="157" on="0"/>
        <pt x="88" y="126" on="0"/>
        <pt x="116" y="126" on="1"/>
        <pt x="128" y="126" on="1"/>
        <pt x="128" y="194" on="1"/>
        <pt x="64" y="194" on="1"/>
        <pt x="64" y="187" on="1"/>
      </contour>
      <contour>
        <pt x="256" y="126" on="1"/>
        <pt x="256" y="194" on="1"/>
        <pt x="192" y="194" on="1"/>
        <pt x="192" y="126" on="1"/>
      </contour>
      <contour>
        <pt x="332" y="126" on="1"/>
        <pt x="360" y="126" on="0"/>
        <pt x="384" y="157" on="0"/>
        <pt x="384" y="187" on="1"/>
        <pt x="384" y="194" on="1"/>
        <pt x="320" y="194" on="1"/>
        <pt x="320" y="126" on="1"/>
      </contour>
    </TTGlyph>
    <TTGlyph name="endash" xMin="91" yMin="262" xMax="357" yMax="314">
      <component glyphName="hyphen" x="0" y="0" flags="0x0"/>
    </TTGlyph>
    <TTGlyph name="eng" xMin="62" yMin="-196" xMax="385" yMax="452">
      <contour>
        <pt x="64" y="375" on="1"/>
        <pt x="62" y="448" on="1"/>
        <pt x="115" y="448" on="1"/>
        <pt x="120" y="388" on="1"/>
        <pt x="151" y="416" on="0"/>
        <pt x="224" y="452" on="0"/>
        <pt x="261" y="452" on="1"/>
        <pt x="316" y="452" on="0"/>
        <pt x="385" y="385" on="0"/>
        <pt x="385" y="304" on="1"/>
        <pt x="385" y="-5" on="1"/>
        <pt x="385" y="-77" on="0"/>
        <pt x="334" y="-167" on="0"/>
        <pt x="269" y="-196" on="1"/>
        <pt x="245" y="-148" on="1"/>
        <pt x="290" y="-128" on="0"/>
        <pt x="327" y="-69" on="0"/>
        <pt x="327" y="-13" on="1"/>
        <pt x="327" y="298" on="1"/>
        <pt x="327" y="352" on="0"/>
        <pt x="292" y="400" on="0"/>
        <pt x="250" y="400" on="1"/>
        <pt x="189" y="400" on="0"/>
        <pt x="122" y="335" on="1"/>
        <pt x="122" y="0" on="1"/>
        <pt x="64" y="0" on="1"/>
      </contour>
    </TTGlyph>
    <TTGlyph name="eogonek" xMin="54" yMin="-197" xMax="393" yMax="461">
      <component glyphName="e" x="0" y="0" flags="0x0"/>
      <component glyphName="uni0328" x="-41" y="0" flags="0x0"/>
    </TTGlyph>
    <TTGlyph name="epsilon" xMin="64" yMin="0" xMax="384" yMax="448">
      <contour>
        <pt x="384" y="0" on="1"/>
        <pt x="128" y="0" on="1"/>
        <pt x="128" y="64" on="1"/>
        <pt x="384" y="64" on="1"/>
      </contour>
      <contour>
        <pt x="64" y="192" on="1"/>
        <pt x="128" y="192" on="1"/>
        <pt x="128" y="64" on="1"/>
        <pt x="64" y="64" on="1"/>
      </contour>
      <contour>
        <pt x="64" y="384" on="1"/>
        <pt x="128" y="384" on="1"/>
        <pt x="128" y="256" on="1"/>
        <pt x="64" y="256" on="1"/>
      </contour>
      <contour>
        <pt x="128" y="256" on="1"/>
        <pt x="320" y="256" on="1"/>
        <pt x="320" y="192" on="1"/>
        <pt x="128" y="192" on="1"/>
      </contour>
      <contour>
        <pt x="128" y="448" on="1"/>
        <pt x="384" y="448" on="1"/>
        <pt x="384" y="384" on="1"/>
        <pt x="128" y="384" on="1"/>
      </contour>
    </TTGlyph>
    <TTGlyph name="epsilontonos" xMin="64" yMin="0" xMax="384" yMax="704">
      <component glyphName="epsilon" x="0" y="0" flags="0x0"/>
      <component glyphName="tonos" x="0" y="0" flags="0x0"/>
    </TTGlyph>
    <TTGlyph name="equal" xMin="32" yMin="186" xMax="416" yMax="390">
      <contour>
        <pt x="32" y="186" on="1"/>
        <pt x="32" y="236" on="1"/>
        <pt x="416" y="236" on="1"/>
        <pt x="416" y="186" on="1"/>
      </contour>
      <contour>
        <pt x="32" y="390" on="1"/>
        <pt x="416" y="390" on="1"/>
        <pt x="416" y="340" on="1"/>
        <pt x="32" y="340" on="1"/>
      </contour>
    </TTGlyph>
    <TTGlyph name="equivalence" xMin="32" yMin="130" xMax="416" yMax="446">
      <contour>
        <pt x="32" y="130" on="1"/>
        <pt x="32" y="180" on="1"/>
        <pt x="416" y="180" on="1"/>
        <pt x="416" y="130" on="1"/>
      </contour>
      <contour>
        <pt x="32" y="313" on="1"/>
        <pt x="416" y="313" on="1"/>
        <pt x="416" y="263" on="1"/>
        <pt x="32" y="263" on="1"/>
      </contour>
      <contour>
        <pt x="32" y="446" on="1"/>
        <pt x="416" y="446" on="1"/>
        <pt x="416" y="396" on="1"/>
        <pt x="32" y="396" on="1"/>
      </contour>
    </TTGlyph>
    <TTGlyph name="estimated" xMin="50" yMin="-13" xMax="398" yMax="461">
      <contour>
        <pt x="296" y="-13" on="0"/>
        <pt x="238" y="-13" on="1"/>
        <pt x="138" y="-13" on="0"/>
        <pt x="50" y="122" on="0"/>
        <pt x="50" y="224" on="1"/>
        <pt x="50" y="326" on="0"/>
        <pt x="139" y="461" on="0"/>
        <pt x="229" y="461" on="1"/>
        <pt x="317" y="461" on="0"/>
        <pt x="398" y="333" on="0"/>
        <pt x="398" y="224" on="1"/>
        <pt x="398" y="191" on="1"/>
        <pt x="164" y="191" on="1"/>
        <pt x="166" y="109" on="0"/>
        <pt x="202" y="41" on="0"/>
        <pt x="249" y="41" on="1"/>
        <pt x="297" y="41" on="0"/>
        <pt x="348" y="57" on="1"/>
        <pt x="362" y="8" on="1"/>
      </contour>
      <contour>
        <pt x="284" y="247" on="1"/>
        <pt x="282" y="335" on="0"/>
        <pt x="256" y="407" on="0"/>
        <pt x="225" y="407" on="1"/>
        <pt x="192" y="407" on="0"/>
        <pt x="166" y="335" on="0"/>
        <pt x="164" y="247" on="1"/>
      </contour>
    </TTGlyph>
    <TTGlyph name="eta" xMin="58" yMin="-192" xMax="388" yMax="452">
      <contour>
        <pt x="58" y="448" on="1"/>
        <pt x="124" y="448" on="1"/>
        <pt x="130" y="400" on="1"/>
        <pt x="158" y="424" on="0"/>
        <pt x="226" y="452" on="0"/>
        <pt x="261" y="452" on="1"/>
        <pt x="318" y="452" on="0"/>
        <pt x="388" y="382" on="0"/>
        <pt x="388" y="297" on="1"/>
        <pt x="388" y="-192" on="1"/>
        <pt x="316" y="-192" on="1"/>
        <pt x="316" y="289" on="1"/>
        <pt x="316" y="342" on="0"/>
        <pt x="286" y="388" on="0"/>
        <pt x="247" y="388" on="1"/>
        <pt x="218" y="388" on="0"/>
        <pt x="158" y="356" on="0"/>
        <pt x="132" y="330" on="1"/>
        <pt x="132" y="0" on="1"/>
        <pt x="60" y="0" on="1"/>
        <pt x="60" y="383" on="1"/>
      </contour>
    </TTGlyph>
    <TTGlyph name="etatonos" xMin="58" yMin="-192" xMax="388" yMax="704">
      <component glyphName="eta" x="0" y="0" flags="0x0"/>
      <component glyphName="tonos" x="0" y="0" flags="0x0"/>
    </TTGlyph>
    <TTGlyph name="eth" xMin="51" yMin="-8" xMax="397" yMax="648">
      <contour>
        <pt x="210" y="620" on="0"/>
        <pt x="246" y="587" on="1"/>
        <pt x="309" y="631" on="1"/>
        <pt x="335" y="594" on="1"/>
        <pt x="279" y="555" on="1"/>
        <pt x="397" y="428" on="0"/>
        <pt x="397" y="252" on="1"/>
        <pt x="397" y="124" on="0"/>
        <pt x="306" y="-8" on="0"/>
        <pt x="221" y="-8" on="1"/>
        <pt x="143" y="-8" on="0"/>
        <pt x="51" y="106" on="0"/>
        <pt x="51" y="203" on="1"/>
        <pt x="51" y="302" on="0"/>
        <pt x="142" y="414" on="0"/>
        <pt x="215" y="414" on="1"/>
        <pt x="272" y="414" on="0"/>
        <pt x="320" y="384" on="1"/>
        <pt x="297" y="461" on="0"/>
        <pt x="236" y="525" on="1"/>
        <pt x="160" y="472" on="1"/>
        <pt x="134" y="509" on="1"/>
        <pt x="203" y="557" on="1"/>
        <pt x="182" y="576" on="0"/>
        <pt x="138" y="607" on="1"/>
        <pt x="167" y="648" on="1"/>
      </contour>
      <contour>
        <pt x="111" y="129" on="0"/>
        <pt x="165" y="44" on="0"/>
        <pt x="224" y="44" on="1"/>
        <pt x="285" y="44" on="0"/>
        <pt x="338" y="147" on="0"/>
        <pt x="338" y="246" on="1"/>
        <pt x="338" y="284" on="0"/>
        <pt x="333" y="326" on="1"/>
        <pt x="309" y="343" on="0"/>
        <pt x="249" y="362" on="0"/>
        <pt x="219" y="362" on="1"/>
        <pt x="160" y="362" on="0"/>
        <pt x="111" y="274" on="0"/>
        <pt x="111" y="203" on="1"/>
      </contour>
    </TTGlyph>
    <TTGlyph name="exclam" xMin="167" yMin="-10" xMax="281" yMax="640">
      <contour>
        <pt x="185" y="640" on="1"/>
        <pt x="263" y="640" on="1"/>
        <pt x="250" y="192" on="1"/>
        <pt x="198" y="192" on="1"/>
      </contour>
      <contour>
        <pt x="167" y="73" on="0"/>
        <pt x="200" y="104" on="0"/>
        <pt x="224" y="104" on="1"/>
        <pt x="248" y="104" on="0"/>
        <pt x="281" y="73" on="0"/>
        <pt x="281" y="47" on="1"/>
        <pt x="281" y="20" on="0"/>
        <pt x="248" y="-10" on="0"/>
        <pt x="224" y="-10" on="1"/>
        <pt x="200" y="-10" on="0"/>
        <pt x="167" y="20" on="0"/>
        <pt x="167" y="47" on="1"/>
      </contour>
    </TTGlyph>
    <TTGlyph name="exclamdbl" xMin="74" yMin="-10" xMax="374" yMax="640">
      <component glyphName="exclam" x="-93" y="0" flags="0x0"/>
      <component glyphName="exclam" x="93" y="0" flags="0x0"/>
    </TTGlyph>
    <TTGlyph name="exclamdown" xMin="167" yMin="-192" xMax="281" yMax="458">
      <contour>
        <pt x="263" y="-192" on="1"/>
        <pt x="185" y="-192" on="1"/>
        <pt x="198" y="256" on="1"/>
        <pt x="250" y="256" on="1"/>
      </contour>
      <contour>
        <pt x="167" y="428" on="0"/>
        <pt x="200" y="458" on="0"/>
        <pt x="224" y="458" on="1"/>
        <pt x="248" y="458" on="0"/>
        <pt x="281" y="428" on="0"/>
        <pt x="281" y="401" on="1"/>
        <pt x="281" y="375" on="0"/>
        <pt x="248" y="344" on="0"/>
        <pt x="224" y="344" on="1"/>
        <pt x="200" y="344" on="0"/>
        <pt x="167" y="375" on="0"/>
        <pt x="167" y="401" on="1"/>
      </contour>
    </TTGlyph>
    <TTGlyph name="f" xMin="33" yMin="0" xMax="347" yMax="648">
      <contour>
        <pt x="33" y="399" on="1"/>
        <pt x="33" y="448" on="1"/>
        <pt x="108" y="448" on="1"/>
        <pt x="108" y="504" on="1"/>
        <pt x="108" y="576" on="0"/>
        <pt x="179" y="648" on="0"/>
        <pt x="238" y="648" on="1"/>
        <pt x="289" y="648" on="0"/>
        <pt x="347" y="636" on="1"/>
        <pt x="337" y="586" on="1"/>
        <pt x="284" y="596" on="0"/>
        <pt x="245" y="596" on="1"/>
        <pt x="203" y="596" on="0"/>
        <pt x="166" y="548" on="0"/>
        <pt x="166" y="510" on="1"/>
        <pt x="166" y="448" on="1"/>
        <pt x="317" y="448" on="1"/>
        <pt x="317" y="397" on="1"/>
        <pt x="166" y="397" on="1"/>
        <pt x="166" y="0" on="1"/>
        <pt x="108" y="0" on="1"/>
        <pt x="108" y="396" on="1"/>
      </contour>
    </TTGlyph>
    <TTGlyph name="female" xMin="54" yMin="-114" xMax="394" yMax="456">
      <contour>
        <pt x="190" y="48" on="1"/>
        <pt x="190" y="123" on="1"/>
        <pt x="130" y="134" on="0"/>
        <pt x="54" y="226" on="0"/>
        <pt x="54" y="288" on="1"/>
        <pt x="54" y="335" on="0"/>
        <pt x="99" y="412" on="0"/>
        <pt x="177" y="456" on="0"/>
        <pt x="224" y="456" on="1"/>
        <pt x="271" y="456" on="0"/>
        <pt x="349" y="412" on="0"/>
        <pt x="394" y="335" on="0"/>
        <pt x="394" y="288" on="1"/>
        <pt x="394" y="226" on="0"/>
        <pt x="318" y="134" on="0"/>
        <pt x="258" y="123" on="1"/>
        <pt x="258" y="48" on="1"/>
        <pt x="354" y="48" on="1"/>
        <pt x="354" y="-16" on="1"/>
        <pt x="258" y="-16" on="1"/>
        <pt x="258" y="-114" on="1"/>
        <pt x="190" y="-114" on="1"/>
        <pt x="190" y="-16" on="1"/>
        <pt x="94" y="-16" on="1"/>
        <pt x="94" y="48" on="1"/>
      </contour>
      <contour>
        <pt x="124" y="244" on="0"/>
        <pt x="181" y="184" on="0"/>
        <pt x="224" y="184" on="1"/>
        <pt x="267" y="184" on="0"/>
        <pt x="324" y="244" on="0"/>
        <pt x="324" y="288" on="1"/>
        <pt x="324" y="332" on="0"/>
        <pt x="267" y="392" on="0"/>
        <pt x="224" y="392" on="1"/>
        <pt x="181" y="392" on="0"/>
        <pt x="124" y="332" on="0"/>
        <pt x="124" y="288" on="1"/>
      </contour>
    </TTGlyph>
    <TTGlyph name="filledbox" xMin="62" yMin="128" xMax="386" yMax="448">
      <contour>
        <pt x="386" y="128" on="1"/>
        <pt x="62" y="128" on="1"/>
        <pt x="62" y="448" on="1"/>
        <pt x="386" y="448" on="1"/>
      </contour>
    </TTGlyph>
    <TTGlyph name="filledrect" xMin="16" yMin="192" xMax="432" yMax="384">
      <contour>
        <pt x="432" y="192" on="1"/>
        <pt x="16" y="192" on="1"/>
        <pt x="16" y="384" on="1"/>
        <pt x="432" y="384" on="1"/>
      </contour>
    </TTGlyph>
    <TTGlyph name="five" xMin="57" yMin="0" xMax="393" yMax="576">
      <contour>
        <pt x="114" y="61" on="0"/>
        <pt x="177" y="52" on="0"/>
        <pt x="209" y="52" on="1"/>
        <pt x="274" y="52" on="0"/>
        <pt x="331" y="105" on="0"/>
        <pt x="331" y="162" on="1"/>
        <pt x="331" y="219" on="0"/>
        <pt x="279" y="267" on="0"/>
        <pt x="217" y="267" on="1"/>
        <pt x="188" y="267" on="0"/>
        <pt x="124" y="259" on="0"/>
        <pt x="89" y="253" on="1"/>
        <pt x="72" y="271" on="1"/>
        <pt x="85" y="576" on="1"/>
        <pt x="371" y="576" on="1"/>
        <pt x="371" y="524" on="1"/>
        <pt x="141" y="524" on="1"/>
        <pt x="132" y="308" on="1"/>
        <pt x="178" y="319" on="0"/>
        <pt x="227" y="319" on="1"/>
        <pt x="302" y="319" on="0"/>
        <pt x="393" y="247" on="0"/>
        <pt x="393" y="163" on="1"/>
        <pt x="393" y="79" on="0"/>
        <pt x="295" y="0" on="0"/>
        <pt x="211" y="0" on="1"/>
        <pt x="139" y="0" on="0"/>
        <pt x="57" y="21" on="1"/>
        <pt x="69" y="71" on="1"/>
      </contour>
    </TTGlyph>
    <TTGlyph name="five.dnom" xMin="176" yMin="-198" xMax="392" yMax="128">
      <component glyphName="uni2075" x="128" y="-512" flags="0x4"/>
    </TTGlyph>
    <TTGlyph name="five.numr" xMin="48" yMin="314" xMax="264" yMax="640">
      <component glyphName="uni2075" x="0" y="0" flags="0x0"/>
    </TTGlyph>
    <TTGlyph name="five_fraction_nine" xMin="42" yMin="-198" xMax="405" yMax="640">
      <component glyphName="five.numr" x="0" y="0" flags="0x0"/>
      <component glyphName="fraction.alt" x="0" y="0" flags="0x0"/>
      <component glyphName="nine.dnom" x="0" y="0" flags="0x0"/>
    </TTGlyph>
    <TTGlyph name="five_fraction_seven" xMin="42" yMin="-198" xMax="405" yMax="640">
      <component glyphName="five.numr" x="0" y="0" flags="0x0"/>
      <component glyphName="fraction.alt" x="0" y="0" flags="0x0"/>
      <component glyphName="seven.dnom" x="0" y="0" flags="0x0"/>
    </TTGlyph>
    <TTGlyph name="fiveeighths" xMin="42" yMin="-198" xMax="405" yMax="640">
      <component glyphName="five.numr" x="0" y="0" flags="0x0"/>
      <component glyphName="fraction.alt" x="0" y="0" flags="0x0"/>
      <component glyphName="eight.dnom" x="0" y="0" flags="0x0"/>
    </TTGlyph>
    <TTGlyph name="florin" xMin="61" yMin="-196" xMax="381" yMax="648">
      <contour>
        <pt x="106" y="-128" on="0"/>
        <pt x="142" y="-67" on="0"/>
        <pt x="142" y="-13" on="1"/>
        <pt x="142" y="396" on="1"/>
        <pt x="67" y="399" on="1"/>
        <pt x="67" y="448" on="1"/>
        <pt x="142" y="448" on="1"/>
        <pt x="142" y="504" on="1"/>
        <pt x="142" y="576" on="0"/>
        <pt x="214" y="648" on="0"/>
        <pt x="272" y="648" on="1"/>
        <pt x="323" y="648" on="0"/>
        <pt x="381" y="636" on="1"/>
        <pt x="371" y="586" on="1"/>
        <pt x="318" y="596" on="0"/>
        <pt x="279" y="596" on="1"/>
        <pt x="237" y="596" on="0"/>
        <pt x="200" y="548" on="0"/>
        <pt x="200" y="510" on="1"/>
        <pt x="200" y="448" on="1"/>
        <pt x="351" y="448" on="1"/>
        <pt x="351" y="397" on="1"/>
        <pt x="200" y="397" on="1"/>
        <pt x="200" y="-5" on="1"/>
        <pt x="200" y="-78" on="0"/>
        <pt x="150" y="-166" on="0"/>
        <pt x="84" y="-196" on="1"/>
        <pt x="61" y="-148" on="1"/>
      </contour>
    </TTGlyph>
    <TTGlyph name="four" xMin="45" yMin="0" xMax="420" yMax="592">
      <contour>
        <pt x="274" y="134" on="1"/>
        <pt x="45" y="134" on="1"/>
        <pt x="54" y="335" on="0"/>
        <pt x="193" y="557" on="0"/>
        <pt x="332" y="592" on="1"/>
        <pt x="332" y="186" on="1"/>
        <pt x="420" y="186" on="1"/>
        <pt x="420" y="134" on="1"/>
        <pt x="332" y="134" on="1"/>
        <pt x="332" y="0" on="1"/>
        <pt x="274" y="0" on="1"/>
      </contour>
      <contour>
        <pt x="274" y="186" on="1"/>
        <pt x="274" y="510" on="1"/>
        <pt x="200" y="477" on="0"/>
        <pt x="120" y="317" on="0"/>
        <pt x="107" y="186" on="1"/>
      </contour>
    </TTGlyph>
    <TTGlyph name="four.dnom" xMin="189" yMin="-192" xMax="411" yMax="138">
      <component glyphName="uni2074" x="128" y="-512" flags="0x4"/>
    </TTGlyph>
    <TTGlyph name="four.numr" xMin="61" yMin="320" xMax="283" yMax="650">
      <component glyphName="uni2074" x="0" y="0" flags="0x0"/>
    </TTGlyph>
    <TTGlyph name="four_fraction_nine" xMin="42" yMin="-198" xMax="405" yMax="650">
      <component glyphName="four.numr" x="0" y="0" flags="0x0"/>
      <component glyphName="fraction.alt" x="0" y="0" flags="0x0"/>
      <component glyphName="nine.dnom" x="0" y="0" flags="0x0"/>
    </TTGlyph>
    <TTGlyph name="four_fraction_seven" xMin="42" yMin="-198" xMax="405" yMax="650">
      <component glyphName="four.numr" x="0" y="0" flags="0x0"/>
      <component glyphName="fraction.alt" x="0" y="0" flags="0x0"/>
      <component glyphName="seven.dnom" x="0" y="0" flags="0x0"/>
    </TTGlyph>
    <TTGlyph name="fraction" xMin="61" yMin="-68" xMax="259" yMax="709">
      <component glyphName="slash" x="0" y="0" flags="0x0"/>
    </TTGlyph>
    <TTGlyph name="fraction.alt" xMin="42" yMin="176" xMax="405" yMax="272">
      <contour>
        <pt x="399" y="272" on="1"/>
        <pt x="405" y="227" on="1"/>
        <pt x="48" y="176" on="1"/>
        <pt x="42" y="221" on="1"/>
      </contour>
    </TTGlyph>
    <TTGlyph name="fraction.percent" xMin="26" yMin="187" xMax="422" yMax="453">
      <contour>
        <pt x="395" y="453" on="1"/>
        <pt x="422" y="408" on="1"/>
        <pt x="52" y="187" on="1"/>
        <pt x="26" y="232" on="1"/>
      </contour>
    </TTGlyph>
    <TTGlyph name="franc" xMin="10" yMin="0" xMax="384" yMax="576">
      <contour>
        <pt x="60" y="174" on="1"/>
        <pt x="60" y="576" on="1"/>
        <pt x="384" y="576" on="1"/>
        <pt x="384" y="512" on="1"/>
        <pt x="132" y="512" on="1"/>
        <pt x="132" y="320" on="1"/>
        <pt x="320" y="320" on="1"/>
        <pt x="320" y="256" on="1"/>
        <pt x="132" y="256" on="1"/>
        <pt x="132" y="174" on="1"/>
        <pt x="266" y="174" on="1"/>
        <pt x="266" y="114" on="1"/>
        <pt x="132" y="114" on="1"/>
        <pt x="132" y="0" on="1"/>
        <pt x="60" y="0" on="1"/>
        <pt x="60" y="114" on="1"/>
        <pt x="10" y="114" on="1"/>
        <pt x="10" y="174" on="1"/>
      </contour>
    </TTGlyph>
    <TTGlyph name="g" xMin="55" yMin="-196" xMax="386" yMax="456">
      <contour>
        <pt x="163" y="-196" on="0"/>
        <pt x="110" y="-182" on="1"/>
        <pt x="117" y="-134" on="1"/>
        <pt x="165" y="-145" on="0"/>
        <pt x="221" y="-145" on="1"/>
        <pt x="281" y="-145" on="0"/>
        <pt x="328" y="-100" on="0"/>
        <pt x="328" y="-47" on="1"/>
        <pt x="328" y="35" on="1"/>
        <pt x="287" y="-8" on="0"/>
        <pt x="225" y="-8" on="1"/>
        <pt x="136" y="-8" on="0"/>
        <pt x="55" y="125" on="0"/>
        <pt x="55" y="224" on="1"/>
        <pt x="55" y="323" on="0"/>
        <pt x="136" y="456" on="0"/>
        <pt x="225" y="456" on="1"/>
        <pt x="290" y="456" on="0"/>
        <pt x="331" y="410" on="1"/>
        <pt x="335" y="448" on="1"/>
        <pt x="386" y="448" on="1"/>
        <pt x="384" y="384" on="1"/>
        <pt x="384" y="-44" on="1"/>
        <pt x="384" y="-122" on="0"/>
        <pt x="300" y="-196" on="0"/>
        <pt x="224" y="-196" on="1"/>
      </contour>
      <contour>
        <pt x="119" y="129" on="0"/>
        <pt x="170" y="43" on="0"/>
        <pt x="229" y="43" on="1"/>
        <pt x="289" y="43" on="0"/>
        <pt x="328" y="91" on="1"/>
        <pt x="328" y="357" on="1"/>
        <pt x="292" y="405" on="0"/>
        <pt x="229" y="405" on="1"/>
        <pt x="170" y="405" on="0"/>
        <pt x="119" y="320" on="0"/>
        <pt x="119" y="224" on="1"/>
      </contour>
    </TTGlyph>
    <TTGlyph name="g.ss01" xMin="41" yMin="-200" xMax="426" yMax="456">
      <contour>
        <pt x="251" y="456" on="0"/>
        <pt x="280" y="448" on="1"/>
        <pt x="423" y="448" on="1"/>
        <pt x="423" y="402" on="1"/>
        <pt x="354" y="398" on="1"/>
        <pt x="383" y="358" on="0"/>
        <pt x="383" y="301" on="1"/>
        <pt x="383" y="235" on="0"/>
        <pt x="298" y="147" on="0"/>
        <pt x="220" y="147" on="1"/>
        <pt x="181" y="147" on="0"/>
        <pt x="145" y="160" on="1"/>
        <pt x="129" y="152" on="0"/>
        <pt x="110" y="123" on="0"/>
        <pt x="110" y="107" on="1"/>
        <pt x="110" y="70" on="0"/>
        <pt x="162" y="70" on="1"/>
        <pt x="270" y="70" on="1"/>
        <pt x="348" y="70" on="0"/>
        <pt x="426" y="-2" on="0"/>
        <pt x="426" y="-59" on="1"/>
        <pt x="426" y="-128" on="0"/>
        <pt x="329" y="-200" on="0"/>
        <pt x="233" y="-200" on="1"/>
        <pt x="130" y="-200" on="0"/>
        <pt x="41" y="-127" on="0"/>
        <pt x="41" y="-74" on="1"/>
        <pt x="41" y="-46" on="0"/>
        <pt x="68" y="6" on="0"/>
        <pt x="96" y="24" on="1"/>
        <pt x="51" y="46" on="0"/>
        <pt x="51" y="99" on="1"/>
        <pt x="51" y="125" on="0"/>
        <pt x="81" y="169" on="0"/>
        <pt x="105" y="184" on="1"/>
        <pt x="57" y="226" on="0"/>
        <pt x="57" y="301" on="1"/>
        <pt x="57" y="369" on="0"/>
        <pt x="141" y="456" on="0"/>
        <pt x="220" y="456" on="1"/>
      </contour>
      <contour>
        <pt x="100" y="-103" on="0"/>
        <pt x="157" y="-148" on="0"/>
        <pt x="233" y="-148" on="1"/>
        <pt x="306" y="-148" on="0"/>
        <pt x="365" y="-102" on="0"/>
        <pt x="365" y="-63" on="1"/>
        <pt x="365" y="11" on="0"/>
        <pt x="267" y="11" on="1"/>
        <pt x="166" y="11" on="1"/>
        <pt x="146" y="12" on="1"/>
        <pt x="124" y="-3" on="0"/>
        <pt x="100" y="-44" on="0"/>
        <pt x="100" y="-66" on="1"/>
      </contour>
      <contour>
        <pt x="120" y="250" on="0"/>
        <pt x="171" y="197" on="0"/>
        <pt x="220" y="197" on="1"/>
        <pt x="270" y="197" on="0"/>
        <pt x="321" y="250" on="0"/>
        <pt x="321" y="301" on="1"/>
        <pt x="321" y="351" on="0"/>
        <pt x="269" y="405" on="0"/>
        <pt x="220" y="405" on="1"/>
        <pt x="171" y="405" on="0"/>
        <pt x="120" y="351" on="0"/>
        <pt x="120" y="301" on="1"/>
      </contour>
    </TTGlyph>
    <TTGlyph name="gamma" xMin="42" yMin="-192" xMax="406" yMax="451">
      <contour>
        <pt x="117" y="451" on="1"/>
        <pt x="128" y="325" on="0"/>
        <pt x="178" y="166" on="0"/>
        <pt x="224" y="86" on="1"/>
        <pt x="270" y="166" on="0"/>
        <pt x="320" y="325" on="0"/>
        <pt x="331" y="451" on="1"/>
        <pt x="406" y="447" on="1"/>
        <pt x="395" y="313" on="0"/>
        <pt x="322" y="111" on="0"/>
        <pt x="260" y="15" on="1"/>
        <pt x="260" y="-192" on="1"/>
        <pt x="188" y="-192" on="1"/>
        <pt x="188" y="15" on="1"/>
        <pt x="126" y="111" on="0"/>
        <pt x="53" y="313" on="0"/>
        <pt x="42" y="447" on="1"/>
      </contour>
    </TTGlyph>
    <TTGlyph name="gbreve" xMin="55" yMin="-196" xMax="386" yMax="641">
      <component glyphName="g" x="0" y="0" flags="0x0"/>
      <component glyphName="uni0306" x="0" y="0" flags="0x0"/>
    </TTGlyph>
    <TTGlyph name="gbreve.ss01" xMin="41" yMin="-200" xMax="426" yMax="641">
      <component glyphName="g.ss01" x="0" y="0" flags="0x0"/>
      <component glyphName="uni0306" x="5" y="0" flags="0x0"/>
    </TTGlyph>
    <TTGlyph name="gcaron" xMin="55" yMin="-196" xMax="386" yMax="647">
      <component glyphName="g" x="0" y="0" flags="0x0"/>
      <component glyphName="uni030C" x="0" y="0" flags="0x0"/>
    </TTGlyph>
    <TTGlyph name="gcaron.ss01" xMin="41" yMin="-200" xMax="426" yMax="647">
      <component glyphName="g.ss01" x="0" y="0" flags="0x0"/>
      <component glyphName="uni030C" x="5" y="0" flags="0x0"/>
    </TTGlyph>
    <TTGlyph name="gcircumflex" xMin="55" yMin="-196" xMax="386" yMax="650">
      <component glyphName="g" x="0" y="0" flags="0x0"/>
      <component glyphName="uni0302" x="0" y="0" flags="0x0"/>
    </TTGlyph>
    <TTGlyph name="gcircumflex.ss01" xMin="41" yMin="-200" xMax="426" yMax="650">
      <component glyphName="g.ss01" x="0" y="0" flags="0x0"/>
      <component glyphName="uni0302" x="5" y="0" flags="0x0"/>
    </TTGlyph>
    <TTGlyph name="gdotaccent" xMin="55" yMin="-196" xMax="386" yMax="647">
      <component glyphName="g" x="0" y="0" flags="0x0"/>
      <component glyphName="uni0307" x="0" y="0" flags="0x0"/>
    </TTGlyph>
    <TTGlyph name="gdotaccent.ss01" xMin="41" yMin="-200" xMax="426" yMax="647">
      <component glyphName="g.ss01" x="0" y="0" flags="0x0"/>
      <component glyphName="uni0307" x="5" y="0" flags="0x0"/>
    </TTGlyph>
    <TTGlyph name="germandbls" xMin="64" yMin="-8" xMax="405" yMax="648">
      <contour>
        <pt x="64" y="574" on="0"/>
        <pt x="148" y="648" on="0"/>
        <pt x="217" y="648" on="1"/>
        <pt x="281" y="648" on="0"/>
        <pt x="365" y="580" on="0"/>
        <pt x="365" y="518" on="1"/>
        <pt x="365" y="478" on="0"/>
        <pt x="333" y="430" on="0"/>
        <pt x="301" y="401" on="1"/>
        <pt x="277" y="379" on="0"/>
        <pt x="254" y="349" on="0"/>
        <pt x="254" y="327" on="1"/>
        <pt x="254" y="301" on="0"/>
        <pt x="285" y="266" on="0"/>
        <pt x="318" y="243" on="1"/>
        <pt x="346" y="223" on="0"/>
        <pt x="380" y="192" on="0"/>
        <pt x="405" y="144" on="0"/>
        <pt x="405" y="111" on="1"/>
        <pt x="405" y="54" on="0"/>
        <pt x="331" y="-8" on="0"/>
        <pt x="273" y="-8" on="1"/>
        <pt x="228" y="-8" on="0"/>
        <pt x="192" y="3" on="1"/>
        <pt x="201" y="54" on="1"/>
        <pt x="236" y="46" on="0"/>
        <pt x="267" y="46" on="1"/>
        <pt x="344" y="46" on="0"/>
        <pt x="344" y="111" on="1"/>
        <pt x="344" y="141" on="0"/>
        <pt x="310" y="180" on="0"/>
        <pt x="275" y="203" on="1"/>
        <pt x="235" y="231" on="0"/>
        <pt x="193" y="282" on="0"/>
        <pt x="193" y="325" on="1"/>
        <pt x="193" y="361" on="0"/>
        <pt x="222" y="403" on="0"/>
        <pt x="252" y="427" on="1"/>
        <pt x="278" y="449" on="0"/>
        <pt x="305" y="486" on="0"/>
        <pt x="305" y="515" on="1"/>
        <pt x="305" y="554" on="0"/>
        <pt x="258" y="596" on="0"/>
        <pt x="216" y="596" on="1"/>
        <pt x="168" y="596" on="0"/>
        <pt x="122" y="546" on="0"/>
        <pt x="122" y="503" on="1"/>
        <pt x="122" y="0" on="1"/>
        <pt x="64" y="0" on="1"/>
        <pt x="64" y="496" on="1"/>
      </contour>
    </TTGlyph>
    <TTGlyph name="grave" xMin="141" yMin="384" xMax="292" yMax="640">
      <contour>
        <pt x="232" y="384" on="1"/>
        <pt x="141" y="640" on="1"/>
        <pt x="228" y="640" on="1"/>
        <pt x="292" y="384" on="1"/>
      </contour>
    </TTGlyph>
    <TTGlyph name="gravecomb" xMin="120" yMin="513" xMax="250" yMax="649">
      <contour>
        <pt x="198" y="513" on="1"/>
        <pt x="120" y="649" on="1"/>
        <pt x="198" y="649" on="1"/>
        <pt x="250" y="513" on="1"/>
      </contour>
    </TTGlyph>
    <TTGlyph name="gravecomb.case" xMin="120" yMin="705" xMax="250" yMax="841">
      <component glyphName="gravecomb" x="0" y="192" flags="0x4"/>
    </TTGlyph>
    <TTGlyph name="greater" xMin="118" yMin="56" xMax="398" yMax="520">
      <contour>
        <pt x="118" y="90" on="1"/>
        <pt x="322" y="288" on="1"/>
        <pt x="118" y="486" on="1"/>
        <pt x="157" y="520" on="1"/>
        <pt x="398" y="288" on="1"/>
        <pt x="157" y="56" on="1"/>
      </contour>
    </TTGlyph>
    <TTGlyph name="greaterequal" xMin="64" yMin="0" xMax="398" yMax="584">
      <contour>
        <pt x="64" y="0" on="1"/>
        <pt x="64" y="64" on="1"/>
        <pt x="384" y="64" on="1"/>
        <pt x="384" y="0" on="1"/>
      </contour>
      <contour>
        <pt x="322" y="352" on="1"/>
        <pt x="118" y="550" on="1"/>
        <pt x="157" y="584" on="1"/>
        <pt x="398" y="352" on="1"/>
        <pt x="157" y="120" on="1"/>
        <pt x="118" y="154" on="1"/>
      </contour>
    </TTGlyph>
    <TTGlyph name="guillemotleft" xMin="70" yMin="33" xMax="365" yMax="415">
      <contour>
        <pt x="70" y="224" on="1"/>
        <pt x="136" y="415" on="1"/>
        <pt x="190" y="399" on="1"/>
        <pt x="135" y="224" on="1"/>
        <pt x="191" y="49" on="1"/>
        <pt x="136" y="33" on="1"/>
      </contour>
      <contour>
        <pt x="310" y="409" on="1"/>
        <pt x="364" y="393" on="1"/>
        <pt x="311" y="224" on="1"/>
        <pt x="365" y="55" on="1"/>
        <pt x="310" y="39" on="1"/>
        <pt x="246" y="224" on="1"/>
      </contour>
    </TTGlyph>
    <TTGlyph name="guillemotright" xMin="83" yMin="33" xMax="378" yMax="415">
      <contour>
        <pt x="258" y="49" on="1"/>
        <pt x="313" y="224" on="1"/>
        <pt x="257" y="399" on="1"/>
        <pt x="312" y="415" on="1"/>
        <pt x="378" y="224" on="1"/>
        <pt x="312" y="33" on="1"/>
      </contour>
      <contour>
        <pt x="138" y="409" on="1"/>
        <pt x="202" y="224" on="1"/>
        <pt x="138" y="39" on="1"/>
        <pt x="84" y="55" on="1"/>
        <pt x="137" y="224" on="1"/>
        <pt x="83" y="393" on="1"/>
      </contour>
    </TTGlyph>
    <TTGlyph name="guilsinglleft" xMin="64" yMin="33" xMax="185" yMax="415">
      <contour>
        <pt x="64" y="224" on="1"/>
        <pt x="130" y="415" on="1"/>
        <pt x="184" y="399" on="1"/>
        <pt x="129" y="224" on="1"/>
        <pt x="185" y="49" on="1"/>
        <pt x="130" y="33" on="1"/>
      </contour>
    </TTGlyph>
    <TTGlyph name="guilsinglright" xMin="71" yMin="33" xMax="192" yMax="415">
      <contour>
        <pt x="72" y="49" on="1"/>
        <pt x="127" y="224" on="1"/>
        <pt x="71" y="399" on="1"/>
        <pt x="126" y="415" on="1"/>
        <pt x="192" y="224" on="1"/>
        <pt x="126" y="33" on="1"/>
      </contour>
    </TTGlyph>
    <TTGlyph name="h" xMin="64" yMin="0" xMax="385" yMax="640">
      <contour>
        <pt x="64" y="640" on="1"/>
        <pt x="122" y="640" on="1"/>
        <pt x="122" y="390" on="1"/>
        <pt x="152" y="418" on="0"/>
        <pt x="224" y="452" on="0"/>
        <pt x="261" y="452" on="1"/>
        <pt x="316" y="452" on="0"/>
        <pt x="385" y="385" on="0"/>
        <pt x="385" y="304" on="1"/>
        <pt x="385" y="0" on="1"/>
        <pt x="327" y="0" on="1"/>
        <pt x="327" y="298" on="1"/>
        <pt x="327" y="352" on="0"/>
        <pt x="292" y="400" on="0"/>
        <pt x="250" y="400" on="1"/>
        <pt x="191" y="400" on="0"/>
        <pt x="122" y="335" on="1"/>
        <pt x="122" y="0" on="1"/>
        <pt x="64" y="0" on="1"/>
      </contour>
    </TTGlyph>
    <TTGlyph name="hbar" xMin="12" yMin="0" xMax="385" yMax="640">
      <component glyphName="h" x="0" y="0" flags="0x0"/>
      <component glyphName="uni0335" x="-86" y="310" flags="0x4"/>
    </TTGlyph>
    <TTGlyph name="hcircumflex" xMin="64" yMin="0" xMax="385" yMax="842">
      <component glyphName="h" x="0" y="0" flags="0x0"/>
      <component glyphName="uni0302" x="0" y="192" flags="0x4"/>
    </TTGlyph>
    <TTGlyph name="heart" xMin="54" yMin="56" xMax="394" yMax="448">
      <contour>
        <pt x="203" y="101" on="0"/>
        <pt x="162" y="169" on="0"/>
        <pt x="125" y="213" on="1"/>
        <pt x="89" y="254" on="0"/>
        <pt x="54" y="316" on="0"/>
        <pt x="54" y="355" on="1"/>
        <pt x="54" y="401" on="0"/>
        <pt x="95" y="448" on="0"/>
        <pt x="128" y="448" on="1"/>
        <pt x="158" y="448" on="0"/>
        <pt x="209" y="397" on="0"/>
        <pt x="224" y="354" on="1"/>
        <pt x="237" y="396" on="0"/>
        <pt x="291" y="448" on="0"/>
        <pt x="320" y="448" on="1"/>
        <pt x="352" y="448" on="0"/>
        <pt x="394" y="401" on="0"/>
        <pt x="394" y="355" on="1"/>
        <pt x="394" y="316" on="0"/>
        <pt x="359" y="254" on="0"/>
        <pt x="323" y="213" on="1"/>
        <pt x="286" y="169" on="0"/>
        <pt x="245" y="101" on="0"/>
        <pt x="240" y="56" on="1"/>
        <pt x="208" y="56" on="1"/>
      </contour>
    </TTGlyph>
    <TTGlyph name="hookabovecomb" xMin="127" yMin="508" xMax="319" yMax="701">
      <contour>
        <pt x="230" y="567" on="0"/>
        <pt x="263" y="598" on="0"/>
        <pt x="263" y="618" on="1"/>
        <pt x="263" y="653" on="0"/>
        <pt x="199" y="653" on="1"/>
        <pt x="168" y="653" on="0"/>
        <pt x="133" y="648" on="1"/>
        <pt x="127" y="694" on="1"/>
        <pt x="164" y="701" on="0"/>
        <pt x="203" y="701" on="1"/>
        <pt x="259" y="701" on="0"/>
        <pt x="319" y="659" on="0"/>
        <pt x="319" y="619" on="1"/>
        <pt x="319" y="582" on="0"/>
        <pt x="264" y="530" on="0"/>
        <pt x="210" y="508" on="1"/>
        <pt x="192" y="550" on="1"/>
      </contour>
    </TTGlyph>
    <TTGlyph name="hookabovecomb.case" xMin="127" yMin="700" xMax="319" yMax="893">
      <component glyphName="hookabovecomb" x="0" y="192" flags="0x4"/>
    </TTGlyph>
    <TTGlyph name="house" xMin="62" yMin="64" xMax="386" yMax="458">
      <contour>
        <pt x="200" y="458" on="1"/>
        <pt x="248" y="458" on="1"/>
        <pt x="386" y="320" on="1"/>
        <pt x="386" y="64" on="1"/>
        <pt x="62" y="64" on="1"/>
        <pt x="62" y="320" on="1"/>
      </contour>
      <contour>
        <pt x="318" y="128" on="1"/>
        <pt x="318" y="302" on="1"/>
        <pt x="224" y="393" on="1"/>
        <pt x="130" y="302" on="1"/>
        <pt x="130" y="128" on="1"/>
      </contour>
    </TTGlyph>
    <TTGlyph name="hungarumlaut" xMin="135" yMin="512" xMax="394" yMax="644">
      <component glyphName="uni030B" x="0" y="0" flags="0x0"/>
    </TTGlyph>
    <TTGlyph name="hyphen" xMin="91" yMin="262" xMax="357" yMax="314">
      <contour>
        <pt x="91" y="262" on="1"/>
        <pt x="91" y="314" on="1"/>
        <pt x="357" y="314" on="1"/>
        <pt x="357" y="262" on="1"/>
      </contour>
    </TTGlyph>
    <TTGlyph name="i" xMin="30" yMin="0" xMax="198" yMax="647">
      <component glyphName="dotlessi" x="0" y="0" flags="0x0"/>
      <component glyphName="uni0307" x="-82" y="0" flags="0x0"/>
    </TTGlyph>
    <TTGlyph name="i.loclTRK" xMin="30" yMin="0" xMax="198" yMax="647">
      <component glyphName="dotlessi" x="0" y="0" flags="0x0"/>
      <component glyphName="uni0307" x="-82" y="0" flags="0x0"/>
    </TTGlyph>
    <TTGlyph name="iacute" xMin="30" yMin="0" xMax="246" yMax="649">
      <component glyphName="dotlessi" x="0" y="0" flags="0x0"/>
      <component glyphName="acutecomb" x="-82" y="0" flags="0x0"/>
    </TTGlyph>
    <TTGlyph name="iacute_j.loclNLD" xMin="24" yMin="-200" xMax="394" yMax="841">
      <component glyphName="ij" x="0" y="0" flags="0x0"/>
      <component glyphName="acutecomb" x="0" y="192" flags="0x4"/>
    </TTGlyph>
    <TTGlyph name="ibreve" xMin="17" yMin="0" xMax="267" yMax="641">
      <component glyphName="dotlessi" x="0" y="0" flags="0x0"/>
      <component glyphName="uni0306" x="-82" y="0" flags="0x0"/>
    </TTGlyph>
    <TTGlyph name="icircumflex" xMin="11" yMin="0" xMax="273" yMax="650">
      <component glyphName="dotlessi" x="0" y="0" flags="0x0"/>
      <component glyphName="uni0302" x="-82" y="0" flags="0x0"/>
    </TTGlyph>
    <TTGlyph name="idieresis" xMin="1" yMin="0" xMax="283" yMax="645">
      <component glyphName="dotlessi" x="0" y="0" flags="0x0"/>
      <component glyphName="uni0308" x="-82" y="0" flags="0x0"/>
    </TTGlyph>
    <TTGlyph name="igrave" xMin="30" yMin="0" xMax="175" yMax="649">
      <component glyphName="dotlessi" x="0" y="0" flags="0x0"/>
      <component glyphName="gravecomb" x="-82" y="0" flags="0x0"/>
    </TTGlyph>
    <TTGlyph name="ij" xMin="24" yMin="-200" xMax="394" yMax="647">
      <contour>
        <pt x="188" y="-200" on="0"/>
        <pt x="149" y="-193" on="1"/>
        <pt x="153" y="-147" on="1"/>
        <pt x="191" y="-152" on="0"/>
        <pt x="224" y="-152" on="1"/>
        <pt x="272" y="-152" on="0"/>
        <pt x="315" y="-103" on="0"/>
        <pt x="315" y="-49" on="1"/>
        <pt x="315" y="394" on="1"/>
        <pt x="234" y="400" on="1"/>
        <pt x="234" y="448" on="1"/>
        <pt x="373" y="448" on="1"/>
        <pt x="373" y="-45" on="1"/>
        <pt x="373" y="-128" on="0"/>
        <pt x="298" y="-200" on="0"/>
        <pt x="229" y="-200" on="1"/>
      </contour>
      <contour>
        <pt x="24" y="448" on="1"/>
        <pt x="156" y="448" on="1"/>
        <pt x="156" y="0" on="1"/>
        <pt x="98" y="0" on="1"/>
        <pt x="98" y="394" on="1"/>
        <pt x="24" y="400" on="1"/>
      </contour>
      <contour>
        <pt x="68" y="618" on="0"/>
        <pt x="99" y="647" on="0"/>
        <pt x="123" y="647" on="1"/>
        <pt x="147" y="647" on="0"/>
        <pt x="179" y="618" on="0"/>
        <pt x="179" y="592" on="1"/>
        <pt x="179" y="565" on="0"/>
        <pt x="147" y="536" on="0"/>
        <pt x="123" y="536" on="1"/>
        <pt x="99" y="536" on="0"/>
        <pt x="68" y="565" on="0"/>
        <pt x="68" y="592" on="1"/>
      </contour>
      <contour>
        <pt x="283" y="618" on="0"/>
        <pt x="314" y="647" on="0"/>
        <pt x="338" y="647" on="1"/>
        <pt x="362" y="647" on="0"/>
        <pt x="394" y="618" on="0"/>
        <pt x="394" y="592" on="1"/>
        <pt x="394" y="565" on="0"/>
        <pt x="362" y="536" on="0"/>
        <pt x="338" y="536" on="1"/>
        <pt x="314" y="536" on="0"/>
        <pt x="283" y="565" on="0"/>
        <pt x="283" y="592" on="1"/>
      </contour>
    </TTGlyph>
    <TTGlyph name="imacron" xMin="24" yMin="0" xMax="260" yMax="622">
      <component glyphName="dotlessi" x="0" y="0" flags="0x0"/>
      <component glyphName="uni0304" x="-82" y="0" flags="0x0"/>
    </TTGlyph>
    <TTGlyph name="infinity" xMin="0" yMin="177" xMax="449" yMax="399">
      <contour>
        <pt x="305" y="177" on="0"/>
        <pt x="251" y="215" on="0"/>
        <pt x="223" y="249" on="1"/>
        <pt x="196" y="215" on="0"/>
        <pt x="143" y="177" on="0"/>
        <pt x="109" y="177" on="1"/>
        <pt x="62" y="177" on="0"/>
        <pt x="0" y="240" on="0"/>
        <pt x="0" y="288" on="1"/>
        <pt x="0" y="336" on="0"/>
        <pt x="62" y="399" on="0"/>
        <pt x="109" y="399" on="1"/>
        <pt x="143" y="399" on="0"/>
        <pt x="197" y="361" on="0"/>
        <pt x="225" y="327" on="1"/>
        <pt x="252" y="361" on="0"/>
        <pt x="306" y="399" on="0"/>
        <pt x="340" y="399" on="1"/>
        <pt x="387" y="399" on="0"/>
        <pt x="449" y="336" on="0"/>
        <pt x="449" y="288" on="1"/>
        <pt x="449" y="240" on="0"/>
        <pt x="386" y="177" on="0"/>
        <pt x="339" y="177" on="1"/>
      </contour>
      <contour>
        <pt x="58" y="261" on="0"/>
        <pt x="89" y="227" on="0"/>
        <pt x="112" y="227" on="1"/>
        <pt x="134" y="227" on="0"/>
        <pt x="172" y="258" on="0"/>
        <pt x="194" y="287" on="1"/>
        <pt x="170" y="317" on="0"/>
        <pt x="132" y="349" on="0"/>
        <pt x="110" y="349" on="1"/>
        <pt x="88" y="349" on="0"/>
        <pt x="58" y="315" on="0"/>
        <pt x="58" y="288" on="1"/>
      </contour>
      <contour>
        <pt x="278" y="258" on="0"/>
        <pt x="315" y="227" on="0"/>
        <pt x="336" y="227" on="1"/>
        <pt x="359" y="227" on="0"/>
        <pt x="391" y="261" on="0"/>
        <pt x="391" y="288" on="1"/>
        <pt x="391" y="315" on="0"/>
        <pt x="359" y="349" on="0"/>
        <pt x="336" y="349" on="1"/>
        <pt x="314" y="349" on="0"/>
        <pt x="276" y="318" on="0"/>
        <pt x="254" y="289" on="1"/>
      </contour>
    </TTGlyph>
    <TTGlyph name="integral" xMin="14" yMin="-136" xMax="434" yMax="712">
      <contour>
        <pt x="72" y="-136" on="0"/>
        <pt x="14" y="-124" on="1"/>
        <pt x="24" y="-74" on="1"/>
        <pt x="77" y="-84" on="0"/>
        <pt x="117" y="-84" on="1"/>
        <pt x="159" y="-84" on="0"/>
        <pt x="195" y="-36" on="0"/>
        <pt x="195" y="2" on="1"/>
        <pt x="195" y="568" on="1"/>
        <pt x="195" y="640" on="0"/>
        <pt x="266" y="712" on="0"/>
        <pt x="325" y="712" on="1"/>
        <pt x="376" y="712" on="0"/>
        <pt x="434" y="700" on="1"/>
        <pt x="424" y="650" on="1"/>
        <pt x="371" y="660" on="0"/>
        <pt x="332" y="660" on="1"/>
        <pt x="290" y="660" on="0"/>
        <pt x="253" y="612" on="0"/>
        <pt x="253" y="574" on="1"/>
        <pt x="253" y="8" on="1"/>
        <pt x="253" y="-64" on="0"/>
        <pt x="182" y="-136" on="0"/>
        <pt x="123" y="-136" on="1"/>
      </contour>
    </TTGlyph>
    <TTGlyph name="integralbt" xMin="14" yMin="-136" xMax="253" yMax="832">
      <contour>
        <pt x="72" y="-136" on="0"/>
        <pt x="14" y="-124" on="1"/>
        <pt x="24" y="-74" on="1"/>
        <pt x="77" y="-84" on="0"/>
        <pt x="117" y="-84" on="1"/>
        <pt x="159" y="-84" on="0"/>
        <pt x="195" y="-36" on="0"/>
        <pt x="195" y="2" on="1"/>
        <pt x="195" y="832" on="1"/>
        <pt x="253" y="832" on="1"/>
        <pt x="253" y="8" on="1"/>
        <pt x="253" y="-64" on="0"/>
        <pt x="182" y="-136" on="0"/>
        <pt x="123" y="-136" on="1"/>
      </contour>
    </TTGlyph>
</ttFont>
